<svg width="35" height="35" viewBox="0 0 35 35" fill="none" xmlns="http://www.w3.org/2000/svg">
<path opacity="0.4" d="M22.6035 19.1777H19.4389C16.8431 19.1777 14.7285 17.0777 14.7285 14.4673V11.3027C14.7285 10.7048 14.2473 10.209 13.6348 10.209H9.01185C5.6431 10.209 2.91602 12.3965 2.91602 16.3048V25.9882C2.91602 29.8965 5.6431 32.084 9.01185 32.084H17.6014C20.9702 32.084 23.6973 29.8965 23.6973 25.9882V20.2715C23.6973 19.659 23.2014 19.1777 22.6035 19.1777Z" fill="white"/>
<path d="M25.9873 2.91602H23.1144H21.5248H17.3977C14.1018 2.91602 11.4331 5.01602 11.3164 8.76393C11.4039 8.76393 11.4768 8.74935 11.5643 8.74935H15.6915H17.281H20.154C23.5227 8.74935 26.2498 10.9368 26.2498 14.8452V17.7181V21.6702V24.5431C26.2498 24.6306 26.2352 24.7035 26.2352 24.7764C29.4873 24.6743 32.0831 22.516 32.0831 18.7098V15.8368V11.8848V9.01185C32.0831 5.10352 29.356 2.91602 25.9873 2.91602Z" fill="white"/>
<path d="M17.4711 10.4304C17.019 9.9783 16.2461 10.2845 16.2461 10.9116V14.7325C16.2461 16.3366 17.6023 17.6491 19.2648 17.6491C20.3003 17.6637 21.744 17.6637 22.9836 17.6637C23.6107 17.6637 23.9315 16.9345 23.494 16.497C21.9044 14.9075 19.0753 12.0637 17.4711 10.4304Z" fill="white"/>
</svg>
