<svg width="29" height="31" viewBox="0 0 29 31" fill="none" xmlns="http://www.w3.org/2000/svg">
<path opacity="0.4" d="M21.6062 1H8.7C8.90417 1.42292 9.02083 1.91875 9.02083 2.50208V6.78958C9.02083 8.64167 7.9125 9.75 6.06042 9.75H1.77292C1.49583 9.75 1.24792 9.72083 1 9.6625V23.0646C1 26.9875 4.17917 30.1667 8.10208 30.1667H19.725C19.9729 30.1667 20.2208 30.0792 20.4104 29.875C22.5688 27.7021 26.3312 23.9104 28.4458 21.7812C28.6354 21.5917 28.7083 21.3729 28.7083 21.1542V8.10208C28.7083 4.17917 25.5292 1 21.6062 1Z" fill="white"/>
<path fill-rule="evenodd" clip-rule="evenodd" d="M3 0C1.34315 0 0 1.34315 0 3V7C0 8.65685 1.34315 10 3 10H7C8.65685 10 10 8.65685 10 7V3C10 1.34315 8.65685 0 7 0H3ZM8.25867 4.5511C8.56304 4.27015 8.58202 3.79566 8.30106 3.49129C8.02011 3.18692 7.54562 3.16794 7.24125 3.4489L4.52076 5.96012L3.53034 4.96968C3.23745 4.67678 2.76257 4.67677 2.46968 4.96966C2.17678 5.26255 2.17677 5.73743 2.46966 6.03032L3.96962 7.53032C4.25427 7.81498 4.71287 7.82415 5.00867 7.5511L8.25867 4.5511Z" fill="white"/>
<path d="M28.9312 20.9333C28.9312 21.1521 28.8583 21.3708 28.6687 21.5604C26.5542 23.6896 22.7917 27.4813 20.6333 29.6542C20.4437 29.8583 20.1958 29.9458 19.9479 29.9458C19.4667 29.9458 19 29.5667 19 29.0125V23.9083C19 21.7792 20.8083 20.0146 23.025 20.0146C24.4104 20 26.3354 20 27.9833 20C28.5521 20 28.9312 20.4521 28.9312 20.9333Z" fill="white"/>
</svg>
