<svg width="35" height="35" viewBox="0 0 35 35" fill="none" xmlns="http://www.w3.org/2000/svg">
<path d="M31.3548 15.8952V5.97852C31.3548 3.79102 30.4215 2.91602 28.1027 2.91602H22.2111C19.8923 2.91602 18.959 3.79102 18.959 5.97852V15.8952C18.959 18.0827 19.8923 18.9577 22.2111 18.9577H28.1027C30.4215 18.9577 31.3548 18.0827 31.3548 15.8952Z" fill="white"/>
<path d="M16.0423 19.1035V29.0202C16.0423 31.2077 15.109 32.0827 12.7902 32.0827H6.89857C4.57982 32.0827 3.64648 31.2077 3.64648 29.0202V19.1035C3.64648 16.916 4.57982 16.041 6.89857 16.041H12.7902C15.109 16.041 16.0423 16.916 16.0423 19.1035Z" fill="white"/>
<path opacity="0.4" d="M31.3548 29.0208V24.9375C31.3548 22.75 30.4215 21.875 28.1027 21.875H22.2111C19.8923 21.875 18.959 22.75 18.959 24.9375V29.0208C18.959 31.2083 19.8923 32.0833 22.2111 32.0833H28.1027C30.4215 32.0833 31.3548 31.2083 31.3548 29.0208Z" fill="white"/>
<path opacity="0.4" d="M16.0423 10.0618V5.97852C16.0423 3.79102 15.109 2.91602 12.7902 2.91602H6.89857C4.57982 2.91602 3.64648 3.79102 3.64648 5.97852V10.0618C3.64648 12.2493 4.57982 13.1243 6.89857 13.1243H12.7902C15.109 13.1243 16.0423 12.2493 16.0423 10.0618Z" fill="white"/>
</svg>
