<svg width="35" height="35" viewBox="0 0 35 35" fill="none" xmlns="http://www.w3.org/2000/svg">
<path d="M8.7069 1.45898H4.4194C2.56732 1.45898 1.45898 2.56732 1.45898 4.4194V8.7069C1.45898 10.559 2.56732 11.6673 4.4194 11.6673H8.7069C10.559 11.6673 11.6673 10.559 11.6673 8.7069V4.4194C11.6673 2.56732 10.559 1.45898 8.7069 1.45898ZM9.43607 8.10898C9.80065 8.47357 9.80065 9.07148 9.43607 9.43607C9.24648 9.61107 8.99857 9.69857 8.76523 9.69857C8.5319 9.69857 8.29857 9.61107 8.10898 9.43607L6.54857 7.89023L5.0319 9.43607C4.84232 9.61107 4.60898 9.69857 4.34648 9.69857C4.11315 9.69857 3.87982 9.61107 3.69023 9.43607C3.32565 9.07148 3.32565 8.47357 3.69023 8.10898L5.25065 6.56315L3.70482 5.0319C3.34023 4.66732 3.34023 4.0694 3.70482 3.70482C4.0694 3.34023 4.66732 3.34023 5.0319 3.70482L6.54857 5.25065L8.0944 3.70482C8.45898 3.34023 9.0569 3.34023 9.42148 3.70482C9.78607 4.0694 9.78607 4.66732 9.42148 5.0319L7.89023 6.56315L9.43607 8.10898Z" fill="white"/>
<path opacity="0.4" d="M24.2527 2.91602H11.3465C11.5507 3.33893 11.6673 3.83477 11.6673 4.4181V8.7056C11.6673 10.5577 10.559 11.666 8.7069 11.666H4.4194C4.14232 11.666 3.8944 11.6368 3.64648 11.5785V24.9806C3.64648 28.9035 6.82565 32.0827 10.7486 32.0827H22.3715C22.6194 32.0827 22.8673 31.9952 23.0569 31.791C25.2152 29.6181 28.9777 25.8264 31.0923 23.6973C31.2819 23.5077 31.3548 23.2889 31.3548 23.0702V10.0181C31.3548 6.09518 28.1756 2.91602 24.2527 2.91602Z" fill="white"/>
<path d="M31.3531 23.0701C31.3531 23.2888 31.2802 23.5076 31.0906 23.6971C28.976 25.8263 25.2135 29.618 23.0552 31.7909C22.8656 31.9951 22.6177 32.0826 22.3698 32.0826C21.8885 32.0826 21.4219 31.7034 21.4219 31.1492V26.0451C21.4219 23.9159 23.2302 22.1513 25.4469 22.1513C26.8323 22.1367 28.7573 22.1367 30.4052 22.1367C30.974 22.1367 31.3531 22.5888 31.3531 23.0701Z" fill="white"/>
<path d="M21.5533 18.5371H10.7324C10.1199 18.5371 9.63867 18.0413 9.63867 17.4434C9.63867 16.8454 10.1345 16.3496 10.7324 16.3496H21.5533C22.1658 16.3496 22.647 16.8454 22.647 17.4434C22.647 18.0413 22.1658 18.5371 21.5533 18.5371Z" fill="white"/>
<path d="M17.4991 23.9492H10.7324C10.1199 23.9492 9.63867 23.4534 9.63867 22.8555C9.63867 22.243 10.1345 21.7617 10.7324 21.7617H17.4991C18.1116 21.7617 18.5929 22.2576 18.5929 22.8555C18.5929 23.4534 18.1116 23.9492 17.4991 23.9492Z" fill="white"/>
</svg>
