<svg width="36" height="37" viewBox="0 0 36 37" fill="none" xmlns="http://www.w3.org/2000/svg">
<path fill-rule="evenodd" clip-rule="evenodd" d="M23.8211 32.012C23.8661 32.252 23.7311 32.507 23.5061 32.597C21.7961 33.272 19.9511 33.632 18.0161 33.632C14.7161 33.632 11.6411 32.567 9.16607 30.737C8.95607 30.587 8.89607 30.287 9.03107 30.062C9.85607 28.592 13.0811 23.867 20.2061 21.227C20.4761 21.122 20.7761 21.257 20.8661 21.527C22.6661 26.312 23.5061 30.362 23.8211 32.012Z" fill="#01BAEF"/>
<path fill-rule="evenodd" clip-rule="evenodd" d="M32.7295 21.463C32.0395 25.153 29.9695 28.363 27.0745 30.553C26.7595 30.793 26.3095 30.613 26.2345 30.238C25.9195 28.618 25.1545 25.123 23.6845 20.968C23.5795 20.653 23.7895 20.308 24.1195 20.263C27.8545 19.813 31.1245 20.533 32.3545 20.863C32.6095 20.953 32.7745 21.208 32.7295 21.463Z" fill="#01BAEF"/>
<path opacity="0.4" fill-rule="evenodd" clip-rule="evenodd" d="M32.3853 18.3589C30.8553 18.0889 26.9553 17.5189 22.9653 17.9539C22.7253 17.9839 22.5153 17.8489 22.4103 17.6239C22.3503 17.4889 22.3053 17.3539 22.2453 17.2189C22.0053 16.6639 21.7503 16.0939 21.4953 15.5389C21.3603 15.2689 21.4953 14.9389 21.7653 14.8189C25.9653 13.0039 28.3053 10.6639 29.2203 9.61388C29.4453 9.35888 29.8353 9.37388 30.0453 9.64388C31.7703 11.9389 32.8353 14.7439 33.0003 17.7739C33.0153 18.1489 32.7153 18.4189 32.3853 18.3589Z" fill="#01BAEF"/>
<path fill-rule="evenodd" clip-rule="evenodd" d="M27.6596 7.81586C26.8796 8.76086 24.6896 11.0109 20.5346 12.6609C20.2946 12.7659 20.0096 12.6609 19.8746 12.4209C17.9546 8.94086 15.9146 6.01586 14.9695 4.69586C14.7445 4.36586 14.9245 3.93086 15.3146 3.85586C16.1846 3.70586 17.0846 3.63086 18.0146 3.63086C21.6446 3.63086 24.9896 4.92086 27.5846 7.08086C27.8096 7.26086 27.8396 7.59086 27.6596 7.81586Z" fill="#01BAEF"/>
<path fill-rule="evenodd" clip-rule="evenodd" d="M16.5311 13.89C10.8461 15.315 5.82111 15.51 3.99111 15.54C3.64611 15.54 3.39111 15.21 3.48111 14.88C4.56111 10.68 7.44111 7.17 11.2361 5.235C11.4611 5.115 11.7461 5.19 11.8961 5.4C12.6761 6.48 14.7911 9.525 16.861 13.11C17.026 13.41 16.8761 13.8 16.5311 13.89Z" fill="#01BAEF"/>
<path opacity="0.4" fill-rule="evenodd" clip-rule="evenodd" d="M19.38 18.0321C19.515 18.3171 19.35 18.6621 19.05 18.7671C12.405 20.9121 8.43 26.2371 7.23 28.0671C7.035 28.3671 6.615 28.3821 6.39 28.1121C4.275 25.5321 3 22.5771 3 18.9771V18.7071C3 18.4071 3.24 18.1671 3.54 18.1821C5.43 18.2571 11.595 18.0021 18 16.1571C18.24 16.0821 18.51 16.2021 18.615 16.4271C18.885 16.9671 19.14 17.4921 19.38 18.0321Z" fill="#01BAEF"/>
</svg>
