<svg width="36" height="37" viewBox="0 0 36 37" fill="none" xmlns="http://www.w3.org/2000/svg">
<path opacity="0.4" d="M17.9991 9.63276L9.65904 15.6328L4.78404 12.3328C3.91404 11.7478 3.89907 10.4878 4.75407 9.87278L10.499 5.73278C11.009 5.37278 11.6991 5.35776 12.2091 5.70276L17.9991 9.63276Z" fill="#01BAEF"/>
<path opacity="0.4" d="M31.215 12.3291L26.34 15.6291L18 9.6291L23.79 5.7141C24.315 5.3691 24.99 5.3691 25.5 5.7441L31.245 9.88409C32.1 10.4841 32.085 11.7441 31.215 12.3291Z" fill="#01BAEF"/>
<path opacity="0.4" d="M17.9999 21.6309L11.3399 26.1309L7.49988 23.3709L4.73989 21.3909C3.89989 20.7759 3.91487 19.5159 4.76987 18.9309L9.64487 15.6309L17.9999 21.6309Z" fill="#01BAEF"/>
<path opacity="0.4" d="M31.215 18.9309C32.085 19.5159 32.1 20.7759 31.245 21.3909L28.5 23.3709L24.66 26.1309L18 21.6309L26.34 15.6309L31.215 18.9309Z" fill="#01BAEF"/>
<path d="M28.5 23.3709V27.8259C28.5 28.4109 28.155 28.9359 27.63 29.1909L18.63 33.3459C18.225 33.5259 17.775 33.5259 17.37 33.3459L8.36998 29.1909C7.84498 28.9509 7.5 28.4109 7.5 27.8259V23.3709L11.34 26.1309L18 21.6309L24.66 26.1309L28.5 23.3709Z" fill="#01BAEF"/>
</svg>
