<svg width="35" height="37" viewBox="0 0 35 37" fill="none" xmlns="http://www.w3.org/2000/svg">
<path opacity="0.4" d="M23.6101 3.63086H11.4038C6.09548 3.63086 2.93091 6.88586 2.93091 12.3459V24.9009C2.93091 30.3609 6.09548 33.6159 11.4038 33.6159H23.6101C28.9185 33.6159 32.083 30.3609 32.083 24.9009V12.3459C32.083 6.88586 28.9185 3.63086 23.6101 3.63086Z" fill="#01BAEF"/>
<path d="M20.3006 14.5497L20.3736 18.9747L24.209 18.9147C24.4861 18.9147 24.6902 19.1697 24.6465 19.4397L24.1359 22.3047C24.0922 22.5147 23.9173 22.6647 23.7131 22.6797L20.4319 22.7397L20.6069 33.6147L16.2319 33.6897L16.0569 22.8147L13.5777 22.8597C13.3298 22.8597 13.1402 22.6647 13.1402 22.4097L13.0964 19.5597C13.0964 19.3047 13.286 19.1097 13.5339 19.1097L16.0131 19.0647L15.9402 14.1897C15.8965 11.6997 17.8215 9.65969 20.2423 9.61469L24.1797 9.55469C24.4276 9.55469 24.6173 9.74969 24.6173 10.0047L24.6756 13.6047C24.6756 13.8597 24.4861 14.0547 24.2381 14.0547L20.7381 14.1147C20.4902 14.0997 20.3006 14.3097 20.3006 14.5497Z" fill="#01BAEF"/>
</svg>
