<svg width="36" height="37" viewBox="0 0 36 37" fill="none" xmlns="http://www.w3.org/2000/svg">
<path d="M17.9997 3.63086H13.0047C10.2447 3.63086 8.00977 5.86586 8.00977 8.62586C8.00977 11.3859 10.2447 13.6209 13.0047 13.6209H17.9997V3.63086Z" fill="#01BAEF"/>
<path opacity="0.4" d="M17.9997 13.6387H13.0047C10.2447 13.6387 8.00977 15.8737 8.00977 18.6337C8.00977 21.3937 10.2447 23.6287 13.0047 23.6287H17.9997V13.6387Z" fill="#01BAEF"/>
<path d="M17.9997 23.623H13.0047C10.2447 23.623 8.00977 25.858 8.00977 28.618C8.00977 31.378 10.2447 33.613 13.0047 33.613C15.7647 33.613 17.9997 31.378 17.9997 28.618V23.623Z" fill="#01BAEF"/>
<path opacity="0.4" d="M18 3.63086H22.995C25.755 3.63086 27.99 5.86586 27.99 8.62586C27.99 11.3859 25.755 13.6209 22.995 13.6209H18V3.63086Z" fill="#01BAEF"/>
<path d="M22.995 13.6387C25.755 13.6387 27.99 15.8737 27.99 18.6337C27.99 21.3937 25.755 23.6287 22.995 23.6287C20.235 23.6287 18 21.3937 18 18.6337C18 15.8737 20.235 13.6387 22.995 13.6387Z" fill="#01BAEF"/>
</svg>
