<svg width="36" height="37" viewBox="0 0 36 37" fill="none" xmlns="http://www.w3.org/2000/svg">
<path opacity="0.4" d="M24.285 3.63086H11.715C6.255 3.63086 3 6.88586 3 12.3459V24.9009C3 30.3759 6.255 33.6309 11.715 33.6309H24.27C29.73 33.6309 32.985 30.3759 32.985 24.9159V12.3459C33 6.88586 29.745 3.63086 24.285 3.63086Z" fill="#01BAEF"/>
<path d="M17.9987 24.4525C21.213 24.4525 23.8187 21.8469 23.8187 18.6325C23.8187 15.4182 21.213 12.8125 17.9987 12.8125C14.7844 12.8125 12.1787 15.4182 12.1787 18.6325C12.1787 21.8469 14.7844 24.4525 17.9987 24.4525Z" fill="#01BAEF"/>
<path d="M25.5 11.8822C25.095 11.8822 24.72 11.7322 24.435 11.4472C24.3 11.2972 24.195 11.1322 24.12 10.9522C24.045 10.7722 24 10.5772 24 10.3822C24 10.1872 24.045 9.99218 24.12 9.81218C24.195 9.61718 24.3 9.46718 24.435 9.31718C24.78 8.97218 25.305 8.80718 25.785 8.91218C25.89 8.92718 25.98 8.95718 26.07 9.00218C26.16 9.03218 26.25 9.07718 26.34 9.13718C26.415 9.18218 26.49 9.25718 26.565 9.31718C26.7 9.46718 26.805 9.61718 26.88 9.81218C26.955 9.99218 27 10.1872 27 10.3822C27 10.5772 26.955 10.7722 26.88 10.9522C26.805 11.1322 26.7 11.2972 26.565 11.4472C26.415 11.5822 26.25 11.6872 26.07 11.7622C25.89 11.8372 25.695 11.8822 25.5 11.8822Z" fill="#01BAEF"/>
</svg>
