<svg width="767" height="571" viewBox="0 0 767 571" fill="none" xmlns="http://www.w3.org/2000/svg">
<path d="M0.000183105 501.785H766.318V502.168H0.000183105V501.785Z" fill="#EBEBEB"/>
<path d="M76.7852 526.445H161.433V526.828H76.7852V526.445Z" fill="#EBEBEB"/>
<path d="M259.781 518.414H273.1V518.797H259.781V518.414Z" fill="#EBEBEB"/>
<path d="M166.046 512.221H195.458V512.604H166.046V512.221Z" fill="#EBEBEB"/>
<path d="M619.721 514.797H685.916V515.18H619.721V514.797Z" fill="#EBEBEB"/>
<path d="M366.223 524.697H436.295V525.08H366.223V524.697Z" fill="#EBEBEB"/>
<path d="M407.467 518.215H551.044V518.598H407.467V518.215Z" fill="#EBEBEB"/>
<path d="M394.317 424.678C394.317 425.828 394.543 426.968 394.984 428.03C395.425 429.093 396.071 430.059 396.885 430.871C397.699 431.684 398.666 432.329 399.73 432.767C400.793 433.206 401.933 433.431 403.083 433.429H699.02C701.338 433.425 703.56 432.501 705.198 430.861C706.836 429.22 707.756 426.996 707.756 424.678V8.67472C707.736 6.36967 706.807 4.16567 705.171 2.54144C703.535 0.917218 701.325 0.00394866 699.02 0L403.083 0C400.762 0 398.536 0.922015 396.895 2.56321C395.254 4.20441 394.332 6.43034 394.332 8.75135M394.715 8.75135C394.707 7.64655 394.917 6.55105 395.334 5.52783C395.751 4.50461 396.366 3.57385 397.143 2.78907C397.921 2.00428 398.846 1.38095 399.866 0.954909C400.885 0.528867 401.978 0.308518 403.083 0.306528L699.02 0.306528C701.237 0.310588 703.361 1.19402 704.927 2.76292C706.493 4.33182 707.373 6.45799 707.373 8.67472V424.678C707.373 426.895 706.493 429.021 704.927 430.59C703.361 432.159 701.237 433.042 699.02 433.046H403.083C400.865 433.042 398.739 432.159 397.171 430.591C395.602 429.022 394.719 426.896 394.715 424.678" fill="#EBEBEB"/>
<path d="M71.559 433.429H367.511C369.831 433.425 372.054 432.502 373.695 430.862C375.335 429.221 376.258 426.998 376.262 424.678V8.67472C376.238 6.36827 375.306 4.16429 373.668 2.54049C372.03 0.916682 369.817 0.0039056 367.511 0L71.559 0C69.2565 0.00797659 67.0499 0.923028 65.4175 2.54682C63.7851 4.17062 62.8584 6.37232 62.8383 8.67472V424.678C62.8383 426.994 63.756 429.215 65.3906 430.855C67.0252 432.496 69.2433 433.421 71.559 433.429ZM367.511 0.306528C369.729 0.31058 371.855 1.19352 373.424 2.76199C374.992 4.33045 375.875 6.45658 375.879 8.67472V424.678C375.875 426.896 374.992 429.022 373.424 430.591C371.855 432.159 369.729 433.042 367.511 433.046H71.559C69.3408 433.042 67.2147 432.159 65.6462 430.591C64.0778 429.022 63.1948 426.896 63.1908 424.678V8.67472C63.1948 6.45658 64.0778 4.33045 65.6462 2.76199C67.2147 1.19352 69.3408 0.31058 71.559 0.306528L367.511 0.306528Z" fill="#EBEBEB"/>
<path d="M245.973 106.977H347.663V224.882H245.973V106.977Z" fill="#E6E6E6"/>
<path d="M238.877 106.977H346.131V224.882H238.877V106.977Z" fill="#F0F0F0"/>
<path d="M247.858 215.918V115.975H337.134V215.918H247.858Z" fill="white"/>
<path d="M270.786 188.514H293.96C299.565 188.506 304.939 186.275 308.901 182.31C312.863 178.345 315.091 172.97 315.095 167.364V144.206C315.095 143.978 315.004 143.76 314.843 143.599C314.682 143.438 314.464 143.348 314.236 143.348H291.063C285.455 143.352 280.077 145.581 276.112 149.547C272.146 153.513 269.917 158.89 269.913 164.498V187.671C269.915 187.784 269.939 187.895 269.984 187.999C270.029 188.102 270.094 188.196 270.175 188.274C270.256 188.352 270.352 188.414 270.457 188.455C270.562 188.496 270.674 188.516 270.786 188.514ZM313.378 145.064V167.364C313.37 172.512 311.322 177.446 307.682 181.086C304.042 184.726 299.107 186.774 293.96 186.783H271.645V164.498C271.649 159.349 273.696 154.412 277.337 150.772C280.977 147.131 285.914 145.084 291.063 145.08L313.378 145.064Z" fill="#F0F0F0"/>
<path d="M99.0393 151.3H215.474L205.159 65.8711H109.354L99.0393 151.3Z" fill="#EBEBEB"/>
<path d="M196.193 151.287H198.062V184.009H196.193V151.287Z" fill="#E0E0E0"/>
<path d="M197.128 186.245C195.892 186.245 194.89 185.243 194.89 184.007C194.89 182.771 195.892 181.77 197.128 181.77C198.363 181.77 199.365 182.771 199.365 184.007C199.365 185.243 198.363 186.245 197.128 186.245Z" fill="#E0E0E0"/>
<path d="M124.588 151.3H144.604L148.85 65.8711H130.381L124.588 151.3Z" fill="#F5F5F5"/>
<path d="M151.425 151.287H163.073V501.77H151.425V151.287Z" fill="#F0F0F0"/>
<path d="M138.827 501.784H175.687C175.687 499.702 174.86 497.704 173.389 496.23C171.918 494.756 169.922 493.926 167.839 493.922H146.674C144.591 493.926 142.595 494.756 141.124 496.23C139.653 497.704 138.827 499.702 138.827 501.784Z" fill="#F0F0F0"/>
<path d="M151.425 151.287H163.073V158.399H151.425V151.287Z" fill="#E0E0E0"/>
<path d="M170.766 336.152C171.701 336.152 172.636 336.152 173.586 336.244C179.49 336.655 185.23 338.368 190.392 341.262C195.555 344.155 200.013 348.156 203.445 352.977C206.877 357.799 209.198 363.32 210.242 369.146C211.285 374.971 211.026 380.955 209.481 386.668C205.109 403.723 202.996 421.279 203.197 438.885V490.167C203.199 491.051 203.026 491.927 202.689 492.744C202.352 493.561 201.856 494.304 201.231 494.929C200.606 495.554 199.863 496.05 199.046 496.387C198.229 496.725 197.353 496.897 196.469 496.895H86.119V336.152H170.766Z" fill="#F0F0F0"/>
<path d="M45.9795 376.231C45.9811 370.522 47.2018 364.88 49.5599 359.681C51.9181 354.482 55.3593 349.846 59.6534 346.084C63.9475 342.322 68.9955 339.521 74.4595 337.867C79.9236 336.214 85.6778 335.746 91.3372 336.496C96.9966 337.245 102.431 339.195 107.276 342.214C112.121 345.233 116.266 349.251 119.433 354.001C122.6 358.751 124.715 364.123 125.639 369.756C126.562 375.39 126.272 381.156 124.788 386.668C120.416 403.724 118.303 421.28 118.504 438.885V490.167C118.506 491.051 118.333 491.927 117.996 492.744C117.658 493.562 117.163 494.304 116.538 494.929C115.912 495.555 115.17 496.05 114.353 496.387C113.535 496.725 112.66 496.898 111.776 496.896H60.371C58.5865 496.896 56.8751 496.187 55.6133 494.925C54.3515 493.663 53.6427 491.952 53.6427 490.167V435.881C53.8175 419.367 51.7553 402.905 47.5121 386.944C46.5165 383.46 46.0008 379.855 45.9795 376.231Z" fill="#F5F5F5"/>
<path d="M106.426 399.299H289.208V496.897H106.426V399.299Z" fill="#F0F0F0"/>
<path d="M220.945 271.43H355.817C359.704 271.36 363.562 272.118 367.134 273.653C370.705 275.188 373.909 277.466 376.533 280.335C379.157 283.203 381.14 286.598 382.352 290.292C383.563 293.986 383.974 297.896 383.558 301.761L373.289 421.307H177.786L188.055 301.761C188.882 293.559 192.685 285.943 198.745 280.355C204.805 274.766 212.703 271.591 220.945 271.43Z" fill="#E0E0E0"/>
<path d="M181.28 271.429H319.064C322.766 271.357 326.441 272.075 329.843 273.535C333.246 274.994 336.298 277.163 338.797 279.895C341.296 282.627 343.183 285.861 344.334 289.38C345.485 292.899 345.873 296.623 345.471 300.304L335.065 421.382H139.47L149.876 300.304C150.658 292.476 154.289 285.21 160.079 279.885C165.87 274.561 173.415 271.552 181.28 271.429Z" fill="#F5F5F5"/>
<path d="M286.205 390.393H109.523C106.86 390.393 104.307 391.45 102.424 393.333C100.541 395.216 99.4838 397.769 99.4838 400.431V420.095C99.4838 422.758 100.541 425.311 102.424 427.194C104.307 429.076 106.86 430.134 109.523 430.134H286.205C287.018 430.134 287.797 429.811 288.372 429.236C288.947 428.661 289.27 427.881 289.27 427.069V393.351C289.242 392.556 288.907 391.804 288.335 391.252C287.763 390.7 286.999 390.392 286.205 390.393Z" fill="#E0E0E0"/>
<path d="M387.68 336.152C388.62 336.152 389.555 336.183 390.485 336.244C396.387 336.661 402.123 338.378 407.284 341.273C412.444 344.167 416.9 348.168 420.332 352.987C423.764 357.806 426.087 363.325 427.136 369.148C428.184 374.972 427.931 380.954 426.394 386.668C422.015 403.722 419.902 421.279 420.111 438.885V490.167C420.111 491.951 419.402 493.663 418.14 494.924C416.878 496.186 415.167 496.895 413.382 496.895H303.033V336.152H387.68Z" fill="#F0F0F0"/>
<path d="M262.939 376.233C262.957 370.534 264.189 364.905 266.554 359.72C268.92 354.535 272.363 349.913 276.655 346.164C280.947 342.415 285.989 339.624 291.445 337.977C296.9 336.33 302.645 335.864 308.294 336.612C313.944 337.36 319.369 339.304 324.208 342.314C329.048 345.324 333.19 349.331 336.358 354.068C339.526 358.805 341.649 364.163 342.583 369.785C343.518 375.407 343.243 381.163 341.777 386.67C337.398 403.724 335.285 421.281 335.494 438.887V490.169C335.494 491.054 335.319 491.93 334.98 492.748C334.641 493.565 334.144 494.307 333.518 494.932C332.891 495.557 332.148 496.052 331.33 496.39C330.511 496.727 329.635 496.899 328.75 496.897H277.361C276.477 496.899 275.601 496.727 274.784 496.389C273.966 496.052 273.224 495.556 272.599 494.931C271.973 494.306 271.478 493.564 271.141 492.746C270.803 491.929 270.63 491.053 270.633 490.169V435.883C270.777 419.365 268.684 402.903 264.41 386.946C263.442 383.457 262.947 379.854 262.939 376.233Z" fill="#F5F5F5"/>
<path d="M106.457 501.784H384.814C386.111 501.784 387.354 501.269 388.271 500.352C389.188 499.435 389.703 498.191 389.703 496.895H101.568C101.568 498.191 102.083 499.435 103 500.352C103.917 501.269 105.16 501.784 106.457 501.784Z" fill="#E0E0E0"/>
<path d="M662.053 53.3809H695.648V501.784H662.053V53.3809Z" fill="#E6E6E6"/>
<path d="M662.068 501.785L367.235 501.785L367.235 53.382L662.068 53.382V501.785Z" fill="#F5F5F5"/>
<path d="M372.737 501.784L372.737 59.9863L656.55 59.9863V501.784H372.737Z" fill="#E6E6E6"/>
<path d="M632.794 501.784V59.9863H656.55V501.784H632.794Z" fill="#E0E0E0"/>
<path d="M369.749 423.022V416.432H656.551V423.022H369.749Z" fill="#F5F5F5"/>
<path d="M369.749 330.454V323.863H656.551V330.454H369.749Z" fill="#F5F5F5"/>
<path d="M369.749 237.895V231.289L656.551 231.289V237.895L369.749 237.895Z" fill="#F5F5F5"/>
<path d="M369.749 145.309V138.719L656.551 138.719V145.309L369.749 145.309Z" fill="#F5F5F5"/>
<path d="M631.262 138.734H588.609V75.8504H631.262V138.734Z" fill="#FAFAFA"/>
<path d="M584.072 75.834H592.256C593.543 75.834 594.586 76.877 594.586 78.1636V136.388C594.586 137.675 593.543 138.718 592.256 138.718H584.072C582.785 138.718 581.742 137.675 581.742 136.388V78.1636C581.742 76.877 582.785 75.834 584.072 75.834Z" fill="#F0F0F0"/>
<path d="M645.638 138.734H602.985V75.8504H645.638V138.734Z" fill="#FAFAFA"/>
<path d="M598.418 75.834H606.602C607.889 75.834 608.932 76.877 608.932 78.1636V136.388C608.932 137.675 607.889 138.718 606.602 138.718H598.418C597.131 138.718 596.088 137.675 596.088 136.388V78.1636C596.088 76.877 597.131 75.834 598.418 75.834Z" fill="#E6E6E6"/>
<path d="M656.551 75.834H619.737L622.664 138.733H656.551V75.834Z" fill="#FAFAFA"/>
<path d="M614.986 75.834H623.584C624.209 75.8958 624.788 76.1928 625.204 76.6651C625.619 77.1373 625.84 77.7495 625.821 78.3782L628.519 136.189C628.559 136.489 628.539 136.794 628.459 137.085C628.38 137.377 628.242 137.65 628.055 137.887C627.867 138.125 627.634 138.322 627.369 138.467C627.104 138.613 626.812 138.703 626.511 138.733H617.913C617.29 138.665 616.715 138.366 616.301 137.895C615.887 137.424 615.664 136.816 615.675 136.189L612.978 78.3782C612.935 78.0781 612.954 77.7725 613.032 77.4799C613.111 77.1873 613.249 76.9137 613.436 76.6758C613.624 76.4379 613.858 76.2406 614.125 76.0959C614.391 75.9512 614.684 75.8621 614.986 75.834Z" fill="#F0F0F0"/>
<path d="M434.012 138.719H401.673V85.6283H434.012V138.719Z" fill="#FAFAFA"/>
<path d="M398.317 85.6445H404.34C405.364 85.6445 406.194 86.4748 406.194 87.499V136.881C406.194 137.905 405.364 138.735 404.34 138.735H398.317C397.292 138.735 396.462 137.905 396.462 136.881V87.499C396.462 86.4748 397.292 85.6445 398.317 85.6445Z" fill="#F0F0F0"/>
<path d="M444.909 138.719H412.57V85.6283H444.909V138.719Z" fill="#FAFAFA"/>
<path d="M409.198 85.6445H415.222C416.246 85.6445 417.076 86.4748 417.076 87.499V136.881C417.076 137.905 416.246 138.735 415.222 138.735H409.198C408.174 138.735 407.344 137.905 407.344 136.881V87.499C407.344 86.4748 408.174 85.6445 409.198 85.6445Z" fill="#E6E6E6"/>
<path d="M453.185 85.6445H425.276L427.498 138.735H453.185V85.6445Z" fill="#FAFAFA"/>
<path d="M421.674 85.6445H428.188C429.077 85.6445 429.828 86.6101 429.889 87.7902L431.928 136.589C431.928 137.769 431.299 138.735 430.395 138.735H423.866C422.977 138.735 422.226 137.769 422.18 136.589L420.126 87.7902C420.096 86.6101 420.785 85.6445 421.674 85.6445Z" fill="#F0F0F0"/>
<path d="M475.715 138.719H443.376V85.6283H475.715V138.719Z" fill="#FAFAFA"/>
<path d="M440.02 85.6445H446.043C447.067 85.6445 447.897 86.4748 447.897 87.499V136.881C447.897 137.905 447.067 138.735 446.043 138.735H440.02C438.996 138.735 438.165 137.905 438.165 136.881V87.499C438.165 86.4748 438.996 85.6445 440.02 85.6445Z" fill="#F0F0F0"/>
<path d="M486.597 138.719H454.258V85.6283H486.597V138.719Z" fill="#FAFAFA"/>
<path d="M450.902 85.6445H456.925C457.949 85.6445 458.779 86.4748 458.779 87.499V136.881C458.779 137.905 457.949 138.735 456.925 138.735H450.902C449.877 138.735 449.047 137.905 449.047 136.881V87.499C449.047 86.4748 449.877 85.6445 450.902 85.6445Z" fill="#E6E6E6"/>
<path d="M494.873 85.6445H466.979L469.186 138.735H494.873V85.6445Z" fill="#FAFAFA"/>
<path d="M463.362 85.6445H469.891C470.78 85.6445 471.531 86.6101 471.577 87.7902L473.584 136.589C473.584 137.769 472.941 138.735 472.052 138.735H465.538C464.649 138.735 463.898 137.769 463.837 136.589L461.799 87.7902C461.799 86.6101 462.473 85.6445 463.362 85.6445Z" fill="#F0F0F0"/>
<path d="M536.637 138.734H514.092V81.6744H536.637V138.734Z" fill="#FAFAFA"/>
<path d="M512.054 81.6582H515.625C516.513 81.6582 517.234 82.3787 517.234 83.2675V137.109C517.234 137.998 516.513 138.718 515.625 138.718H512.054C511.165 138.718 510.444 137.998 510.444 137.109V83.2675C510.444 82.3787 511.165 81.6582 512.054 81.6582Z" fill="#F0F0F0"/>
<path d="M555.412 138.734H530.568V75.8504H555.412V138.734Z" fill="#FAFAFA"/>
<path d="M528.33 75.834H532.253C533.235 75.834 534.031 76.63 534.031 77.6118V136.94C534.031 137.922 533.235 138.718 532.253 138.718H528.33C527.348 138.718 526.552 137.922 526.552 136.94V77.6118C526.552 76.63 527.348 75.834 528.33 75.834Z" fill="#F5F5F5"/>
<path d="M561.772 75.834H540.331L542.032 138.733H561.772V75.834Z" fill="#FAFAFA"/>
<path d="M537.557 75.834H542.553C543.228 75.834 543.825 76.9681 543.856 78.3782L545.389 136.189C545.389 137.584 544.914 138.733 544.224 138.733H539.212C538.538 138.733 537.955 137.584 537.909 136.189L536.377 78.3782C536.423 76.9681 536.883 75.834 537.557 75.834Z" fill="#F0F0F0"/>
<path d="M517.709 231.305H475.056V168.421H517.709V231.305Z" fill="#FAFAFA"/>
<path d="M470.504 168.404H478.688C479.975 168.404 481.018 169.447 481.018 170.734V228.959C481.018 230.245 479.975 231.288 478.688 231.288H470.504C469.217 231.288 468.174 230.245 468.174 228.959V170.734C468.174 169.447 469.217 168.404 470.504 168.404Z" fill="#F0F0F0"/>
<path d="M532.055 231.305H489.401V168.421H532.055V231.305Z" fill="#FAFAFA"/>
<path d="M484.865 168.404H493.049C494.335 168.404 495.378 169.447 495.378 170.734V228.959C495.378 230.245 494.335 231.288 493.049 231.288H484.865C483.578 231.288 482.535 230.245 482.535 228.959V170.734C482.535 169.447 483.578 168.404 484.865 168.404Z" fill="#E6E6E6"/>
<path d="M542.982 168.404H506.183L509.111 231.304H542.982V168.404Z" fill="#FAFAFA"/>
<path d="M501.417 168.404H510.015C510.641 168.466 511.22 168.763 511.636 169.235C512.051 169.708 512.272 170.32 512.253 170.948L514.966 228.759C515.009 229.059 514.99 229.365 514.911 229.658C514.832 229.95 514.695 230.224 514.507 230.462C514.319 230.7 514.085 230.897 513.819 231.042C513.553 231.186 513.26 231.276 512.958 231.304H504.36C503.737 231.235 503.162 230.936 502.748 230.465C502.334 229.995 502.111 229.386 502.122 228.759L499.44 170.948C499.395 170.65 499.411 170.346 499.487 170.055C499.563 169.763 499.698 169.49 499.883 169.252C500.068 169.014 500.299 168.816 500.563 168.67C500.827 168.525 501.117 168.434 501.417 168.404Z" fill="#F0F0F0"/>
<path d="M452.327 231.289H426.195V178.199H452.327V231.289Z" fill="#FAFAFA"/>
<path d="M423.651 178.215H428.172C429.095 178.215 429.843 178.963 429.843 179.885V229.635C429.843 230.557 429.095 231.305 428.172 231.305H423.651C422.728 231.305 421.98 230.557 421.98 229.635V179.885C421.98 178.963 422.728 178.215 423.651 178.215Z" fill="#F0F0F0"/>
<path d="M461.124 231.289H434.993V178.199H461.124V231.289Z" fill="#FAFAFA"/>
<path d="M432.448 178.215H436.97C437.892 178.215 438.64 178.963 438.64 179.885V229.635C438.64 230.557 437.892 231.305 436.97 231.305H432.448C431.526 231.305 430.778 230.557 430.778 229.635V179.885C430.778 178.963 431.526 178.215 432.448 178.215Z" fill="#E6E6E6"/>
<path d="M467.822 178.215H445.261L447.055 231.305H467.822V178.215Z" fill="#FAFAFA"/>
<path d="M442.349 178.215H447.621C448.342 178.215 448.955 179.18 448.985 180.361L450.595 229.16C450.595 230.34 450.089 231.305 449.369 231.305H444.096C443.376 231.305 442.763 230.34 442.732 229.16L441.077 180.361C441.077 179.18 441.629 178.215 442.349 178.215Z" fill="#F0F0F0"/>
<path d="M408.723 231.305H387.083V187.333H408.723V231.305Z" fill="#FAFAFA"/>
<path d="M384.983 187.318H388.738C389.5 187.318 390.117 187.936 390.117 188.698V229.91C390.117 230.672 389.5 231.29 388.738 231.29H384.983C384.221 231.29 383.603 230.672 383.603 229.91V188.698C383.603 187.936 384.221 187.318 384.983 187.318Z" fill="#F0F0F0"/>
<path d="M416.019 231.305H394.378V187.333H416.019V231.305Z" fill="#FAFAFA"/>
<path d="M392.263 187.318H396.018C396.78 187.318 397.397 187.936 397.397 188.698V229.91C397.397 230.672 396.78 231.29 396.018 231.29H392.263C391.501 231.29 390.884 230.672 390.884 229.91V188.698C390.884 187.936 391.501 187.318 392.263 187.318Z" fill="#E6E6E6"/>
<path d="M421.567 187.318H402.885L404.371 231.305H421.567V187.318Z" fill="#FAFAFA"/>
<path d="M400.462 187.318H404.83C405.428 187.318 405.934 188.115 405.965 189.096L407.329 229.527C407.329 230.508 406.915 231.305 406.317 231.305H401.949C401.367 231.305 400.846 230.508 400.815 229.527L399.451 189.096C399.42 188.115 399.88 187.318 400.462 187.318Z" fill="#F0F0F0"/>
<path d="M586.08 231.289H553.741V178.199H586.08V231.289Z" fill="#FAFAFA"/>
<path d="M550.37 178.215H556.393C557.417 178.215 558.248 179.045 558.248 180.069V229.451C558.248 230.475 557.417 231.305 556.393 231.305H550.37C549.346 231.305 548.515 230.475 548.515 229.451V180.069C548.515 179.045 549.346 178.215 550.37 178.215Z" fill="#F0F0F0"/>
<path d="M596.947 231.289H564.608V178.199H596.947V231.289Z" fill="#FAFAFA"/>
<path d="M561.267 178.215H567.29C568.314 178.215 569.145 179.045 569.145 180.069V229.451C569.145 230.475 568.314 231.305 567.29 231.305H561.267C560.243 231.305 559.412 230.475 559.412 229.451V180.069C559.412 179.045 560.243 178.215 561.267 178.215Z" fill="#E6E6E6"/>
<path d="M605.238 178.215H577.329L579.551 231.305H605.238V178.215Z" fill="#FAFAFA"/>
<path d="M573.727 178.215H580.24C580.74 178.297 581.191 178.563 581.505 178.96C581.819 179.356 581.975 179.855 581.942 180.361L583.934 229.16C583.934 230.34 583.306 231.305 582.401 231.305H575.888C575.388 231.223 574.938 230.957 574.623 230.561C574.309 230.164 574.153 229.665 574.187 229.16L572.148 180.361C572.148 179.18 572.838 178.215 573.727 178.215Z" fill="#F0F0F0"/>
<path d="M631.415 231.305H608.87V174.245H631.415V231.305Z" fill="#FAFAFA"/>
<path d="M606.847 174.23H610.418C611.307 174.23 612.027 174.951 612.027 175.84V229.681C612.027 230.57 611.307 231.291 610.418 231.291H606.847C605.958 231.291 605.238 230.57 605.238 229.681V175.84C605.238 174.951 605.958 174.23 606.847 174.23Z" fill="#F0F0F0"/>
<path d="M650.19 231.305H625.346V168.421H650.19V231.305Z" fill="#FAFAFA"/>
<path d="M623.124 168.404H627.047C628.029 168.404 628.825 169.2 628.825 170.182V229.51C628.825 230.492 628.029 231.288 627.047 231.288H623.124C622.142 231.288 621.346 230.492 621.346 229.51V170.182C621.346 169.2 622.142 168.404 623.124 168.404Z" fill="#F5F5F5"/>
<path d="M656.551 168.404H635.109L636.81 231.304H656.551V168.404Z" fill="#FAFAFA"/>
<path d="M632.335 168.404H637.347C638.036 168.404 638.619 169.538 638.649 170.948L640.182 228.759C640.182 230.154 639.692 231.304 639.002 231.304H634.052C633.362 231.304 632.78 230.154 632.749 228.759L631.216 170.948C631.14 169.538 631.661 168.404 632.335 168.404Z" fill="#F0F0F0"/>
<path d="M631.262 323.875H588.609V260.991H631.262V323.875Z" fill="#FAFAFA"/>
<path d="M584.072 260.979H592.256C593.543 260.979 594.586 262.022 594.586 263.308V321.533C594.586 322.82 593.543 323.863 592.256 323.863H584.072C582.785 323.863 581.742 322.82 581.742 321.533V263.308C581.742 262.022 582.785 260.979 584.072 260.979Z" fill="#F0F0F0"/>
<path d="M645.638 323.875H602.985V260.991H645.638V323.875Z" fill="#FAFAFA"/>
<path d="M598.418 260.979H606.602C607.889 260.979 608.932 262.022 608.932 263.308V321.533C608.932 322.82 607.889 323.863 606.602 323.863H598.418C597.131 323.863 596.088 322.82 596.088 321.533V263.308C596.088 262.022 597.131 260.979 598.418 260.979Z" fill="#E6E6E6"/>
<path d="M656.551 260.979H619.737L622.664 323.878H656.551V260.979Z" fill="#FAFAFA"/>
<path d="M614.986 260.979H623.584C624.209 261.04 624.788 261.337 625.204 261.81C625.619 262.282 625.84 262.894 625.821 263.523L628.519 321.334C628.559 321.633 628.539 321.938 628.459 322.23C628.38 322.522 628.242 322.794 628.055 323.032C627.867 323.269 627.634 323.467 627.369 323.612C627.104 323.757 626.812 323.848 626.511 323.878H617.913C617.29 323.809 616.715 323.51 616.301 323.039C615.887 322.569 615.664 321.96 615.675 321.334L612.978 263.523C612.935 263.223 612.954 262.917 613.032 262.624C613.111 262.332 613.249 262.058 613.436 261.82C613.624 261.582 613.858 261.385 614.125 261.24C614.391 261.096 614.684 261.007 614.986 260.979Z" fill="#F0F0F0"/>
<path d="M434.012 323.863H401.673V270.773H434.012V323.863Z" fill="#FAFAFA"/>
<path d="M398.317 270.787H404.34C405.364 270.787 406.194 271.617 406.194 272.642V322.023C406.194 323.047 405.364 323.878 404.34 323.878H398.317C397.292 323.878 396.462 323.047 396.462 322.023V272.642C396.462 271.617 397.292 270.787 398.317 270.787Z" fill="#F0F0F0"/>
<path d="M444.909 323.863H412.57V270.773H444.909V323.863Z" fill="#FAFAFA"/>
<path d="M409.198 270.787H415.222C416.246 270.787 417.076 271.617 417.076 272.642V322.023C417.076 323.047 416.246 323.878 415.222 323.878H409.198C408.174 323.878 407.344 323.047 407.344 322.023V272.642C407.344 271.617 408.174 270.787 409.198 270.787Z" fill="#E6E6E6"/>
<path d="M453.185 270.787H425.276L427.498 323.878H453.185V270.787Z" fill="#FAFAFA"/>
<path d="M421.674 270.787H428.188C429.077 270.787 429.828 271.753 429.889 272.933L431.928 321.732C431.928 322.912 431.299 323.878 430.395 323.878H423.866C422.977 323.878 422.226 322.912 422.18 321.732L420.126 272.933C420.096 271.753 420.785 270.787 421.674 270.787Z" fill="#F0F0F0"/>
<path d="M475.715 323.863H443.376V270.773H475.715V323.863Z" fill="#FAFAFA"/>
<path d="M440.02 270.787H446.043C447.067 270.787 447.897 271.617 447.897 272.642V322.023C447.897 323.047 447.067 323.878 446.043 323.878H440.02C438.996 323.878 438.165 323.047 438.165 322.023V272.642C438.165 271.617 438.996 270.787 440.02 270.787Z" fill="#F0F0F0"/>
<path d="M486.597 323.863H454.258V270.773H486.597V323.863Z" fill="#FAFAFA"/>
<path d="M450.902 270.787H456.925C457.949 270.787 458.779 271.617 458.779 272.642V322.023C458.779 323.047 457.949 323.878 456.925 323.878H450.902C449.877 323.878 449.047 323.047 449.047 322.023V272.642C449.047 271.617 449.877 270.787 450.902 270.787Z" fill="#E6E6E6"/>
<path d="M494.873 270.787H466.979L469.186 323.878H494.873V270.787Z" fill="#FAFAFA"/>
<path d="M463.362 270.787H469.891C470.78 270.787 471.531 271.753 471.577 272.933L473.584 321.732C473.584 322.912 472.941 323.878 472.052 323.878H465.538C464.649 323.878 463.898 322.912 463.837 321.732L461.799 272.933C461.799 271.753 462.473 270.787 463.362 270.787Z" fill="#F0F0F0"/>
<path d="M536.637 323.875H514.092V266.815H536.637V323.875Z" fill="#FAFAFA"/>
<path d="M512.054 266.801H515.625C516.513 266.801 517.234 267.521 517.234 268.41V322.252C517.234 323.14 516.513 323.861 515.625 323.861H512.054C511.165 323.861 510.444 323.14 510.444 322.252V268.41C510.444 267.521 511.165 266.801 512.054 266.801Z" fill="#F0F0F0"/>
<path d="M555.412 323.875H530.568V260.991H555.412V323.875Z" fill="#FAFAFA"/>
<path d="M528.33 260.979H532.253C533.235 260.979 534.031 261.774 534.031 262.756V322.085C534.031 323.067 533.235 323.863 532.253 323.863H528.33C527.348 323.863 526.552 323.067 526.552 322.085V262.756C526.552 261.774 527.348 260.979 528.33 260.979Z" fill="#F5F5F5"/>
<path d="M561.772 260.979H540.331L542.032 323.878H561.772V260.979Z" fill="#FAFAFA"/>
<path d="M537.557 260.979H542.553C543.228 260.979 543.825 262.113 543.856 263.523L545.389 321.334C545.389 322.728 544.914 323.878 544.224 323.878H539.212C538.538 323.878 537.955 322.728 537.909 321.334L536.377 263.523C536.423 262.082 536.883 260.979 537.557 260.979Z" fill="#F0F0F0"/>
<path d="M640.366 501.785H613.039V438.901H640.366V501.785Z" fill="#FAFAFA"/>
<path d="M610.48 438.887H615.001C616.025 438.887 616.855 439.717 616.855 440.741V499.916C616.855 500.94 616.025 501.771 615.001 501.771H610.48C609.455 501.771 608.625 500.94 608.625 499.916V440.741C608.625 439.717 609.455 438.887 610.48 438.887Z" fill="#F0F0F0"/>
<path d="M649.547 501.785H622.22V438.901H649.547V501.785Z" fill="#FAFAFA"/>
<path d="M619.676 438.887H624.197C625.221 438.887 626.051 439.717 626.051 440.741V499.916C626.051 500.94 625.221 501.771 624.197 501.771H619.676C618.651 501.771 617.821 500.94 617.821 499.916V440.741C617.821 439.717 618.651 438.887 619.676 438.887Z" fill="#E6E6E6"/>
<path d="M656.551 438.9H632.979L634.849 501.784H656.551V438.9Z" fill="#FAFAFA"/>
<path d="M629.913 438.887H635.431C636.182 438.887 636.825 440.036 636.871 441.431L638.588 499.242C638.588 500.652 638.051 501.786 637.3 501.786H631.798C631.047 501.786 630.404 500.652 630.358 499.242L628.641 441.4C628.595 440.036 629.178 438.887 629.913 438.887Z" fill="#F0F0F0"/>
<path d="M411.728 501.785H383.236V448.695H411.728V501.785Z" fill="#FAFAFA"/>
<path d="M380.385 448.693H385.473C386.438 448.693 387.22 449.476 387.22 450.441V500.037C387.22 501.002 386.438 501.784 385.473 501.784H380.385C379.42 501.784 378.637 501.002 378.637 500.037V450.441C378.637 449.476 379.42 448.693 380.385 448.693Z" fill="#F0F0F0"/>
<path d="M421.322 501.785H392.83V448.695H421.322V501.785Z" fill="#FAFAFA"/>
<path d="M389.979 448.693H395.067C396.032 448.693 396.814 449.476 396.814 450.441V500.037C396.814 501.002 396.032 501.784 395.067 501.784H389.979C389.014 501.784 388.232 501.002 388.232 500.037V450.441C388.232 449.476 389.014 448.693 389.979 448.693Z" fill="#E6E6E6"/>
<path d="M428.617 448.693H404.033L405.995 501.784H428.617V448.693Z" fill="#FAFAFA"/>
<path d="M400.846 448.693H406.593C407.375 448.693 408.126 449.659 408.126 450.839L409.889 499.638C409.889 500.818 409.337 501.784 408.555 501.784H402.808C402.026 501.784 401.352 500.818 401.275 499.638L399.482 450.839C399.467 449.659 400.018 448.693 400.846 448.693Z" fill="#F0F0F0"/>
<path d="M448.48 501.785H419.988V448.695H448.48V501.785Z" fill="#FAFAFA"/>
<path d="M417.138 448.693H422.226C423.191 448.693 423.973 449.476 423.973 450.441V500.037C423.973 501.002 423.191 501.784 422.226 501.784H417.138C416.173 501.784 415.39 501.002 415.39 500.037V450.441C415.39 449.476 416.173 448.693 417.138 448.693Z" fill="#F0F0F0"/>
<path d="M458.074 501.785H429.583V448.695H458.074V501.785Z" fill="#FAFAFA"/>
<path d="M426.732 448.693H431.82C432.785 448.693 433.567 449.476 433.567 450.441V500.037C433.567 501.002 432.785 501.784 431.82 501.784H426.732C425.767 501.784 424.985 501.002 424.985 500.037V450.441C424.985 449.476 425.767 448.693 426.732 448.693Z" fill="#E6E6E6"/>
<path d="M465.37 448.693H440.786L442.733 501.784H465.37V448.693Z" fill="#FAFAFA"/>
<path d="M437.599 448.693H443.346C444.128 448.693 444.802 449.659 444.879 450.839L446.641 499.638C446.641 500.818 446.089 501.784 445.308 501.784H439.56C438.779 501.784 438.028 500.818 438.028 499.638L436.235 450.839C436.219 449.659 436.802 448.693 437.599 448.693Z" fill="#F0F0F0"/>
<path d="M477.738 501.785H457.875V444.725H477.738V501.785Z" fill="#FAFAFA"/>
<path d="M459.132 444.725H456.174C455.767 444.725 455.378 444.886 455.09 445.173C454.803 445.461 454.641 445.851 454.641 446.257V500.298C454.641 500.704 454.803 501.094 455.09 501.382C455.378 501.669 455.767 501.831 456.174 501.831H459.132C459.538 501.831 459.928 501.669 460.216 501.382C460.503 501.094 460.665 500.704 460.665 500.298V446.227C460.657 445.825 460.492 445.443 460.205 445.163C459.918 444.882 459.533 444.725 459.132 444.725Z" fill="#F0F0F0"/>
<path d="M494.275 501.785H472.389V438.901H494.275V501.785Z" fill="#FAFAFA"/>
<path d="M470.534 438.887H473.784C474.706 438.887 475.454 439.635 475.454 440.557V500.1C475.454 501.023 474.706 501.771 473.784 501.771H470.534C469.612 501.771 468.864 501.023 468.864 500.1V440.557C468.864 439.635 469.612 438.887 470.534 438.887Z" fill="#F5F5F5"/>
<path d="M499.885 438.9H480.987L482.489 501.784H499.885V438.9Z" fill="#FAFAFA"/>
<path d="M478.55 438.887H482.964C483.562 438.887 484.083 440.036 484.113 441.431L485.493 499.242C485.493 500.652 485.064 501.786 484.466 501.786H480.052C479.454 501.786 478.933 500.652 478.902 499.242L477.523 441.431C477.492 440.036 477.952 438.887 478.55 438.887Z" fill="#F0F0F0"/>
<path d="M517.709 416.447H475.056V353.563H517.709V416.447Z" fill="#FAFAFA"/>
<path d="M470.504 353.549H478.688C479.975 353.549 481.018 354.592 481.018 355.878V414.103C481.018 415.39 479.975 416.433 478.688 416.433H470.504C469.217 416.433 468.174 415.39 468.174 414.103V355.878C468.174 354.592 469.217 353.549 470.504 353.549Z" fill="#F0F0F0"/>
<path d="M532.055 416.447H489.401V353.563H532.055V416.447Z" fill="#FAFAFA"/>
<path d="M484.865 353.549H493.049C494.335 353.549 495.378 354.592 495.378 355.878V414.103C495.378 415.39 494.335 416.433 493.049 416.433H484.865C483.578 416.433 482.535 415.39 482.535 414.103V355.878C482.535 354.592 483.578 353.549 484.865 353.549Z" fill="#E6E6E6"/>
<path d="M542.982 353.549H506.183L509.111 416.448H542.982V353.549Z" fill="#FAFAFA"/>
<path d="M501.417 353.549H510.015C510.64 353.614 511.217 353.912 511.631 354.384C512.046 354.855 512.268 355.465 512.253 356.093L514.966 413.904C515.009 414.204 514.99 414.51 514.911 414.802C514.832 415.095 514.695 415.368 514.507 415.606C514.319 415.844 514.085 416.042 513.819 416.186C513.553 416.331 513.26 416.42 512.958 416.448H504.36C503.737 416.38 503.162 416.08 502.748 415.61C502.334 415.139 502.111 414.531 502.122 413.904L499.44 356.093C499.397 355.795 499.415 355.492 499.492 355.201C499.569 354.911 499.704 354.638 499.888 354.401C500.073 354.163 500.303 353.965 500.566 353.819C500.829 353.673 501.118 353.581 501.417 353.549Z" fill="#F0F0F0"/>
<path d="M452.327 416.432H426.195V363.341H452.327V416.432Z" fill="#FAFAFA"/>
<path d="M423.651 363.357H428.172C429.095 363.357 429.843 364.105 429.843 365.028V414.777C429.843 415.7 429.095 416.448 428.172 416.448H423.651C422.728 416.448 421.98 415.7 421.98 414.777V365.028C421.98 364.105 422.728 363.357 423.651 363.357Z" fill="#F0F0F0"/>
<path d="M461.124 416.432H434.993V363.341H461.124V416.432Z" fill="#FAFAFA"/>
<path d="M432.448 363.357H436.97C437.892 363.357 438.64 364.105 438.64 365.028V414.777C438.64 415.7 437.892 416.448 436.97 416.448H432.448C431.526 416.448 430.778 415.7 430.778 414.777V365.028C430.778 364.105 431.526 363.357 432.448 363.357Z" fill="#E6E6E6"/>
<path d="M467.822 363.357H445.261L447.055 416.448H467.822V363.357Z" fill="#FAFAFA"/>
<path d="M442.349 363.357H447.621C448.342 363.357 448.955 364.323 448.985 365.503L450.595 414.302C450.595 415.482 450.089 416.448 449.369 416.448H444.096C443.376 416.448 442.763 415.482 442.732 414.302L441.077 365.503C441.077 364.323 441.629 363.357 442.349 363.357Z" fill="#F0F0F0"/>
<path d="M408.723 416.447H387.083V372.476H408.723V416.447Z" fill="#FAFAFA"/>
<path d="M384.983 372.461H388.738C389.5 372.461 390.117 373.079 390.117 373.84V415.053C390.117 415.815 389.5 416.432 388.738 416.432H384.983C384.221 416.432 383.603 415.815 383.603 415.053V373.84C383.603 373.079 384.221 372.461 384.983 372.461Z" fill="#F0F0F0"/>
<path d="M416.019 416.447H394.378V372.476H416.019V416.447Z" fill="#FAFAFA"/>
<path d="M392.263 372.461H396.018C396.78 372.461 397.397 373.079 397.397 373.84V415.053C397.397 415.815 396.78 416.432 396.018 416.432H392.263C391.501 416.432 390.884 415.815 390.884 415.053V373.84C390.884 373.079 391.501 372.461 392.263 372.461Z" fill="#E6E6E6"/>
<path d="M421.567 372.461H402.885L404.371 416.448H421.567V372.461Z" fill="#FAFAFA"/>
<path d="M400.462 372.43H404.83C405.428 372.43 405.934 373.227 405.965 374.208L407.329 414.638C407.329 415.619 406.915 416.416 406.317 416.416H401.949C401.367 416.416 400.846 415.619 400.815 414.638L399.451 374.208C399.42 373.257 399.88 372.43 400.462 372.43Z" fill="#F0F0F0"/>
<path d="M586.08 416.432H553.741V363.341H586.08V416.432Z" fill="#FAFAFA"/>
<path d="M550.37 363.357H556.393C557.417 363.357 558.248 364.188 558.248 365.212V414.593C558.248 415.618 557.417 416.448 556.393 416.448H550.37C549.346 416.448 548.515 415.618 548.515 414.593V365.212C548.515 364.188 549.346 363.357 550.37 363.357Z" fill="#F0F0F0"/>
<path d="M596.947 416.432H564.608V363.341H596.947V416.432Z" fill="#FAFAFA"/>
<path d="M561.267 363.357H567.29C568.314 363.357 569.145 364.188 569.145 365.212V414.593C569.145 415.618 568.314 416.448 567.29 416.448H561.267C560.243 416.448 559.412 415.618 559.412 414.593V365.212C559.412 364.188 560.243 363.357 561.267 363.357Z" fill="#E6E6E6"/>
<path d="M605.238 363.357H577.329L579.551 416.448H605.238V363.357Z" fill="#FAFAFA"/>
<path d="M573.727 363.357H580.24C580.74 363.44 581.191 363.705 581.505 364.102C581.819 364.499 581.975 364.998 581.942 365.503L583.934 414.302C583.934 415.482 583.306 416.448 582.401 416.448H575.888C575.388 416.365 574.938 416.1 574.623 415.703C574.309 415.307 574.153 414.807 574.187 414.302L572.148 365.503C572.148 364.323 572.838 363.357 573.727 363.357Z" fill="#F0F0F0"/>
<path d="M631.415 416.447H608.87V359.387H631.415V416.447Z" fill="#FAFAFA"/>
<path d="M606.847 359.373H610.418C611.307 359.373 612.027 360.094 612.027 360.982V414.824C612.027 415.713 611.307 416.433 610.418 416.433H606.847C605.958 416.433 605.238 415.713 605.238 414.824V360.982C605.238 360.094 605.958 359.373 606.847 359.373Z" fill="#F0F0F0"/>
<path d="M650.19 416.447H625.346V353.563H650.19V416.447Z" fill="#FAFAFA"/>
<path d="M623.124 353.549H627.047C628.029 353.549 628.825 354.345 628.825 355.327V414.655C628.825 415.637 628.029 416.433 627.047 416.433H623.124C622.142 416.433 621.346 415.637 621.346 414.655V355.327C621.346 354.345 622.142 353.549 623.124 353.549Z" fill="#F5F5F5"/>
<path d="M656.551 353.549H635.109L636.81 416.448H656.551V353.549Z" fill="#FAFAFA"/>
<path d="M632.335 353.549H637.347C638.036 353.549 638.619 354.698 638.649 356.093L640.182 413.904C640.182 415.299 639.692 416.448 639.002 416.448H634.052C633.362 416.448 632.78 415.299 632.749 413.904L631.216 356.093C631.14 354.698 631.661 353.549 632.335 353.549Z" fill="#F0F0F0"/>
<path d="M529.771 501.785H498.152V433.859H529.771V501.785Z" fill="#FAFAFA"/>
<path d="M495.133 433.859H500.482C501.633 433.859 502.566 434.793 502.566 435.944V499.701C502.566 500.853 501.633 501.786 500.482 501.786H495.133C493.982 501.786 493.049 500.853 493.049 499.701V435.944C493.049 434.793 493.982 433.859 495.133 433.859Z" fill="#F0F0F0"/>
<path d="M540.407 501.785H508.789V433.859H540.407V501.785Z" fill="#FAFAFA"/>
<path d="M505.785 433.859H511.134C512.285 433.859 513.218 434.793 513.218 435.944V499.701C513.218 500.853 512.285 501.786 511.134 501.786H505.785C504.634 501.786 503.701 500.853 503.701 499.701V435.944C503.701 434.793 504.634 433.859 505.785 433.859Z" fill="#E6E6E6"/>
<path d="M548.515 433.859H521.234L523.395 501.786H548.515V433.859Z" fill="#FAFAFA"/>
<path d="M517.694 433.859H524.069C524.943 433.859 525.694 435.085 525.74 436.603L527.732 499.042C527.732 500.575 527.119 501.786 526.2 501.786H519.824C518.95 501.786 518.291 500.56 518.169 499.042L516.176 436.603C516.161 435.085 516.835 433.859 517.694 433.859Z" fill="#F0F0F0"/>
<path d="M576.915 501.785H549.588V442.656H576.915V501.785Z" fill="#FAFAFA"/>
<path d="M546.983 442.654H551.596C552.595 442.654 553.404 443.464 553.404 444.463V499.975C553.404 500.974 552.595 501.783 551.596 501.783H546.983C545.984 501.783 545.174 500.974 545.174 499.975V444.463C545.174 443.464 545.984 442.654 546.983 442.654Z" fill="#F0F0F0"/>
<path d="M586.111 501.785H558.784V442.656H586.111V501.785Z" fill="#FAFAFA"/>
<path d="M556.178 442.654H560.791C561.79 442.654 562.6 443.464 562.6 444.463V499.975C562.6 500.974 561.79 501.783 560.791 501.783H556.178C555.179 501.783 554.369 500.974 554.369 499.975V444.463C554.369 443.464 555.179 442.654 556.178 442.654Z" fill="#E6E6E6"/>
<path d="M593.099 442.654H569.527L571.397 501.783H593.099V442.654Z" fill="#FAFAFA"/>
<path d="M566.477 442.654H571.979C572.73 442.654 573.374 443.727 573.42 445.045L575.137 499.392C575.137 500.711 574.616 501.783 573.865 501.783H568.347C567.596 501.783 566.952 500.711 566.922 499.392L565.19 445.045C565.144 443.727 565.726 442.654 566.477 442.654Z" fill="#F0F0F0"/>
<path d="M383.159 571C219.041 571 85.9964 563.232 85.9964 553.65C85.9964 544.068 219.041 536.301 383.159 536.301C547.278 536.301 680.322 544.068 680.322 553.65C680.322 563.232 547.278 571 383.159 571Z" fill="#F5F5F5"/>
<path d="M413.613 549.636C413.458 550.109 413.42 550.612 413.504 551.102C413.587 551.592 413.788 552.055 414.089 552.45C414.391 552.845 414.784 553.161 415.235 553.37C415.686 553.58 416.181 553.676 416.678 553.652H630.174C636.841 553.652 636.841 510.232 630.174 510.232H416.617C416.122 510.208 415.629 510.305 415.179 510.513C414.73 510.722 414.338 511.036 414.036 511.429C413.735 511.823 413.534 512.283 413.449 512.771C413.365 513.259 413.4 513.761 413.551 514.232C416.218 522.508 416.218 541.375 413.613 549.636Z" fill="#01BAEF"/>
<path opacity="0.8" d="M413.919 515.307H543.473C548.577 515.307 548.577 548.58 543.473 548.58H413.919C416.111 540.227 416.111 523.644 413.919 515.307Z" fill="white"/>
<path opacity="0.2" d="M549.925 549.636C549.771 550.109 549.733 550.612 549.816 551.102C549.899 551.592 550.1 552.055 550.402 552.45C550.704 552.845 551.097 553.161 551.548 553.37C551.999 553.58 552.494 553.676 552.991 553.652H630.174C636.841 553.652 636.841 510.232 630.174 510.232H552.929C552.434 510.208 551.941 510.305 551.492 510.513C551.042 510.722 550.65 511.036 550.349 511.429C550.048 511.823 549.846 512.283 549.762 512.771C549.677 513.259 549.712 513.761 549.864 514.232C552.531 522.508 552.531 541.375 549.925 549.636Z" fill="black"/>
<path d="M597.253 510.23H614.894C621.561 510.23 621.561 553.65 614.894 553.65H597.253C603.859 553.65 603.859 510.23 597.253 510.23Z" fill="#01BAEF"/>
<path d="M583.352 510.23H590.28C596.947 510.23 596.947 553.65 590.28 553.65H583.352C590.065 553.65 590.065 510.23 583.352 510.23Z" fill="#01BAEF"/>
<path d="M642.619 506.63C643.355 508.408 641.546 510.232 639.094 510.232H447.086C439.254 510.232 439.254 471.195 447.086 471.195H639.109C641.562 471.195 643.37 473.004 642.634 474.797C639.569 482.23 639.569 499.197 642.619 506.63Z" fill="#263238"/>
<path opacity="0.2" d="M642.619 506.63C643.355 508.408 641.546 510.232 639.094 510.232H544.944C537.113 510.232 537.113 471.195 544.944 471.195H639.109C641.562 471.195 643.37 473.004 642.634 474.797C639.569 482.23 639.569 499.197 642.619 506.63Z" fill="black"/>
<path opacity="0.8" d="M642.282 475.748H548.791C542.798 475.748 542.798 505.665 548.791 505.665H642.282C639.707 498.109 639.707 483.258 642.282 475.748Z" fill="white"/>
<path opacity="0.2" d="M517.74 479.9C518.323 478.168 516.637 476.482 514.307 476.482H460.557C454.856 476.482 454.856 504.928 460.557 504.928H514.307C516.637 504.928 518.323 503.258 517.74 501.526C515.901 494.435 515.901 486.991 517.74 479.9Z" fill="white"/>
<path d="M129.156 489.205C128.986 489.724 128.937 490.274 129.014 490.814C129.09 491.354 129.289 491.87 129.595 492.321C129.901 492.772 130.307 493.147 130.781 493.418C131.254 493.688 131.784 493.846 132.328 493.88H357.932C364.982 493.88 364.982 443.303 357.932 443.303H132.328C131.793 443.34 131.272 443.497 130.806 443.762C130.339 444.028 129.939 444.395 129.634 444.837C129.329 445.279 129.128 445.784 129.045 446.314C128.962 446.845 129 447.387 129.156 447.901C131.899 457.633 131.899 479.596 129.156 489.205Z" fill="#01BAEF"/>
<path opacity="0.5" d="M129.156 489.205C128.986 489.724 128.937 490.274 129.014 490.814C129.09 491.354 129.289 491.87 129.595 492.321C129.901 492.772 130.307 493.147 130.781 493.418C131.254 493.688 131.784 493.846 132.328 493.88H357.932C364.982 493.88 364.982 443.303 357.932 443.303H132.328C131.793 443.34 131.272 443.497 130.806 443.762C130.339 444.028 129.939 444.395 129.634 444.837C129.329 445.279 129.128 445.784 129.045 446.314C128.962 446.845 129 447.387 129.156 447.901C131.899 457.633 131.899 479.596 129.156 489.205Z" fill="white"/>
<path opacity="0.8" d="M129.462 449.248H266.342C271.736 449.248 271.736 487.962 266.342 487.962H129.462C131.807 478.261 131.807 458.965 129.462 449.248Z" fill="white"/>
<path opacity="0.6" d="M273.162 489.205C272.992 489.724 272.944 490.274 273.02 490.814C273.096 491.354 273.295 491.87 273.601 492.321C273.908 492.772 274.313 493.147 274.787 493.418C275.261 493.688 275.79 493.846 276.335 493.88H357.932C364.982 493.88 364.982 443.303 357.932 443.303H276.335C275.799 443.34 275.279 443.497 274.812 443.762C274.346 444.028 273.945 444.395 273.64 444.837C273.336 445.279 273.134 445.784 273.051 446.314C272.969 446.845 273.006 447.387 273.162 447.901C275.875 457.633 275.875 479.596 273.162 489.205Z" fill="#01BAEF"/>
<path opacity="0.5" d="M306.267 447.087C306.107 446.691 306.043 446.263 306.078 445.838C306.114 445.412 306.249 445.001 306.473 444.637C306.697 444.273 307.002 443.967 307.366 443.743C307.73 443.519 308.141 443.384 308.566 443.348H339.679C346.729 443.348 346.729 493.925 339.679 493.925H308.566C308.14 493.886 307.729 493.749 307.366 493.523C307.002 493.297 306.697 492.99 306.473 492.625C306.25 492.26 306.115 491.848 306.079 491.422C306.043 490.995 306.108 490.567 306.267 490.17C309.409 480.775 309.409 456.452 306.267 447.087Z" fill="white"/>
<path d="M145.34 548.09C145.159 548.762 145.14 549.468 145.285 550.149C145.431 550.83 145.737 551.466 146.177 552.005C146.617 552.545 147.18 552.971 147.818 553.25C148.456 553.528 149.151 553.651 149.846 553.608H384.247C394.256 553.608 394.271 493.835 384.247 493.835H149.754C149.059 493.791 148.364 493.914 147.726 494.192C147.088 494.471 146.525 494.898 146.085 495.437C145.645 495.976 145.339 496.613 145.194 497.293C145.048 497.974 145.067 498.68 145.248 499.352C149.248 510.74 149.233 536.718 145.34 548.09Z" fill="#01BAEF"/>
<path opacity="0.2" d="M145.34 548.09C145.159 548.762 145.14 549.468 145.285 550.149C145.431 550.83 145.737 551.466 146.177 552.005C146.617 552.545 147.18 552.971 147.818 553.25C148.456 553.528 149.151 553.651 149.846 553.608H384.247C394.256 553.608 394.271 493.835 384.247 493.835H149.754C149.059 493.791 148.364 493.914 147.726 494.192C147.088 494.471 146.525 494.898 146.085 495.437C145.645 495.976 145.339 496.613 145.194 497.293C145.048 497.974 145.067 498.68 145.248 499.352C149.248 510.74 149.233 536.718 145.34 548.09Z" fill="white"/>
<path opacity="0.8" d="M145.8 500.822H287.523C295.186 500.822 295.186 546.617 287.523 546.617H145.785C149.065 535.138 149.065 512.317 145.8 500.822Z" fill="white"/>
<path opacity="0.6" d="M297.209 548.119C297.025 548.79 297.003 549.496 297.146 550.177C297.29 550.858 297.594 551.495 298.033 552.035C298.472 552.575 299.034 553.002 299.672 553.28C300.31 553.559 301.005 553.681 301.7 553.637H384.247C394.256 553.637 394.271 493.864 384.247 493.864H301.7C301.005 493.821 300.31 493.943 299.671 494.222C299.033 494.5 298.471 494.927 298.03 495.466C297.59 496.005 297.284 496.642 297.139 497.323C296.993 498.004 297.012 498.709 297.194 499.382C301.102 510.769 301.102 536.732 297.209 548.119Z" fill="#01BAEF"/>
<path opacity="0.5" d="M346.652 495.948C346.524 495.729 346.459 495.479 346.464 495.226C346.469 494.972 346.544 494.725 346.68 494.511C346.816 494.298 347.008 494.125 347.236 494.014C347.464 493.902 347.718 493.856 347.97 493.879H361.994C371.986 493.879 371.986 553.652 361.994 553.652H347.909C347.656 553.675 347.402 553.628 347.175 553.517C346.947 553.405 346.755 553.233 346.619 553.019C346.482 552.805 346.408 552.558 346.403 552.305C346.398 552.051 346.463 551.802 346.591 551.583C352.675 542.341 352.675 505.174 346.652 495.948Z" fill="white"/>
<path opacity="0.5" d="M324.766 495.948C324.64 495.728 324.576 495.478 324.581 495.224C324.587 494.97 324.661 494.723 324.797 494.509C324.932 494.294 325.124 494.121 325.351 494.007C325.577 493.894 325.831 493.844 326.084 493.864H340.107C350.1 493.864 350.1 553.636 340.107 553.636H326.084C325.833 553.657 325.581 553.608 325.355 553.495C325.13 553.382 324.94 553.21 324.806 552.996C324.672 552.783 324.598 552.537 324.594 552.285C324.59 552.033 324.654 551.785 324.781 551.567C330.789 542.341 330.789 505.159 324.766 495.948Z" fill="white"/>
<path d="M147.639 411.545C147.911 407.288 148.911 403.11 150.597 399.192L149.218 398.518C147.466 402.602 146.429 406.956 146.152 411.392L147.639 411.545Z" fill="#01BAEF"/>
<path d="M157.249 392.557H195.32V394.089H157.249V392.557Z" fill="#01BAEF"/>
<path d="M405.367 439.163C406.149 441.248 404.233 443.347 401.643 443.347H157.249C148.988 443.347 148.988 397.92 157.249 397.92H401.643C404.233 397.92 406.149 400.035 405.367 402.119C402.149 410.748 402.149 430.504 405.367 439.163Z" fill="#01BAEF"/>
<path opacity="0.2" d="M405.367 439.163C406.149 441.248 404.233 443.347 401.643 443.347H260.641C252.364 443.347 252.364 397.92 260.641 397.92H401.643C404.233 397.92 406.149 400.035 405.367 402.119C402.149 410.748 402.149 430.504 405.367 439.163Z" fill="black"/>
<path opacity="0.8" d="M405 403.24H264.733C258.388 403.24 258.388 438.046 264.733 438.046H405C402.287 429.31 402.287 411.976 405 403.24Z" fill="white"/>
<path opacity="0.2" d="M231.904 408.052C232.517 406.044 230.739 404.098 228.287 404.098H171.487C165.464 404.098 165.464 437.187 171.487 437.187H228.287C230.739 437.187 232.517 435.241 231.904 433.218C229.896 426.857 229.896 414.428 231.904 408.052Z" fill="white"/>
<path d="M428.219 65.902C435.131 73.3046 452.005 65.902 454.58 86.2861C457.37 108.264 446.794 118.824 460.45 124.602C481.907 133.568 497.233 169.401 467.439 182.842C437.645 196.283 374.193 182.198 381.336 154.81C388.478 127.422 387.068 112.724 378.638 99.8192C367.526 82.761 369.902 60.8443 378.96 52.9053C393.06 40.4909 412.54 49.043 428.219 65.902Z" fill="#263238"/>
<path d="M391.344 154.075C391.461 154.079 391.575 154.039 391.664 153.962C391.752 153.885 391.808 153.777 391.819 153.661C391.83 153.599 391.828 153.536 391.814 153.475C391.799 153.414 391.773 153.357 391.735 153.307C391.698 153.257 391.651 153.214 391.597 153.183C391.543 153.152 391.483 153.132 391.421 153.124C385.505 152.312 381.98 150.856 380.324 148.526C378.271 145.63 379.16 141.323 380.324 135.867C382.133 126.993 384.631 114.839 376.661 99.4821C366.99 80.8606 370.531 60.4459 379.589 53.7636C379.69 53.69 379.758 53.5795 379.778 53.4561C379.798 53.3328 379.768 53.2065 379.696 53.1046C379.62 53.0026 379.506 52.9343 379.381 52.9143C379.255 52.8943 379.126 52.924 379.022 52.9973C369.581 59.9095 365.933 80.8759 375.818 99.9266C383.62 114.977 381.167 126.947 379.39 135.683C378.225 141.354 377.305 145.844 379.604 149.078C381.413 151.638 385.137 153.216 391.329 154.075H391.344Z" fill="#263238"/>
<path d="M468.619 127.53C469.587 127.526 470.555 127.464 471.516 127.346C471.578 127.338 471.639 127.318 471.694 127.287C471.749 127.256 471.797 127.214 471.835 127.164C471.874 127.114 471.902 127.057 471.918 126.996C471.934 126.935 471.938 126.872 471.93 126.809C471.922 126.747 471.902 126.686 471.871 126.631C471.84 126.577 471.798 126.528 471.748 126.49C471.698 126.451 471.641 126.423 471.58 126.407C471.519 126.391 471.456 126.387 471.393 126.395C467.041 126.932 463.883 126.288 461.753 124.418C457.768 120.909 457.707 113.567 457.661 105.061C457.661 95.4362 457.523 84.5392 451.285 77.1059C451.245 77.0576 451.195 77.0177 451.14 76.9884C451.084 76.9592 451.023 76.9413 450.961 76.9356C450.898 76.9299 450.835 76.9366 450.775 76.9553C450.715 76.974 450.659 77.0043 450.611 77.0446C450.562 77.0848 450.522 77.1342 450.493 77.1899C450.464 77.2455 450.446 77.3064 450.44 77.369C450.435 77.4317 450.441 77.4948 450.46 77.5548C450.479 77.6149 450.509 77.6706 450.549 77.7189C456.573 84.8917 456.68 95.6048 456.68 105.076C456.68 113.797 456.787 121.338 461.094 125.139C463.217 126.844 465.901 127.697 468.619 127.53Z" fill="#263238"/>
<path d="M318.191 397.886C328.414 397.764 332.43 397.12 337.135 397.197C341.84 397.273 342.959 398.101 347.863 397.886C351.174 397.748 351.189 393.809 349.917 391.112C348.921 388.997 347.695 386.867 346.56 384.23L333.594 385.181C331.847 390.116 323.172 392.231 315.571 393.978C312.551 394.698 314.099 397.932 318.191 397.886Z" fill="#01BAEF"/>
<path d="M385.796 209.601C385.796 209.601 351.495 239.104 316.827 270.4C302.175 283.658 332.904 384.735 332.904 384.735C333.548 386.896 344.981 383.815 346.698 382.114C346.698 382.114 348.445 303.659 341.012 287.857C417.889 268.423 429.905 230.675 429.905 230.675L424.387 207.256L385.796 209.601Z" fill="#263238"/>
<path opacity="0.2" d="M424.832 239.979C420.528 245.994 415.429 251.397 409.674 256.041C402.011 247.075 404.156 232.592 404.156 232.592L424.832 239.979Z" fill="black"/>
<path d="M330.237 380.367C330.452 381.9 330.82 384.613 331.019 386.62C331.05 386.945 331.203 387.247 331.448 387.463C331.693 387.679 332.011 387.794 332.337 387.785C337.466 387.383 342.546 386.5 347.51 385.149C347.749 385.083 347.961 384.941 348.113 384.745C348.265 384.549 348.349 384.309 348.353 384.061L348.46 378.467C348.461 378.285 348.424 378.105 348.351 377.938C348.278 377.772 348.171 377.622 348.037 377.499C347.902 377.377 347.744 377.283 347.571 377.226C347.399 377.168 347.216 377.147 347.035 377.164L331.218 379.08C331.068 379.097 330.923 379.144 330.791 379.218C330.659 379.293 330.544 379.393 330.452 379.514C330.361 379.634 330.294 379.772 330.257 379.918C330.221 380.065 330.214 380.218 330.237 380.367Z" fill="#263238"/>
<path opacity="0.3" d="M330.237 380.367C330.452 381.9 330.82 384.613 331.019 386.62C331.05 386.945 331.203 387.247 331.448 387.463C331.693 387.679 332.011 387.794 332.337 387.785C337.466 387.383 342.546 386.5 347.51 385.149C347.749 385.083 347.961 384.941 348.113 384.745C348.265 384.549 348.349 384.309 348.353 384.061L348.46 378.467C348.461 378.285 348.424 378.105 348.351 377.938C348.278 377.772 348.171 377.622 348.037 377.499C347.902 377.377 347.744 377.283 347.571 377.226C347.399 377.168 347.216 377.147 347.035 377.164L331.218 379.08C331.068 379.097 330.923 379.144 330.791 379.218C330.659 379.293 330.544 379.393 330.452 379.514C330.361 379.634 330.294 379.772 330.257 379.918C330.221 380.065 330.214 380.218 330.237 380.367Z" fill="white"/>
<path d="M468.267 471.192C478.658 471.192 482.06 467.283 487.869 466.211C492.773 465.291 494.076 465.72 498.03 465.03C501.341 464.448 501.601 462.18 499.563 458.823C498.233 456.503 497.105 454.072 496.191 451.559L480.436 452.601C478.796 456.816 475.01 465.383 469.232 466.394C463.791 467.452 464.129 471.192 468.267 471.192Z" fill="#01BAEF"/>
<path d="M388.171 209.51C388.171 209.51 424.418 273.957 439.008 313.821C454.335 355.693 478.734 424.171 480.497 452.601C483.102 453.843 491.654 453.367 496.252 451.559C496.252 451.559 500.513 353.47 471.01 314.174C463.975 230.016 452.296 216.56 439.882 206.307L388.171 209.51Z" fill="#263238"/>
<path d="M478.597 446.793C478.785 448.734 478.836 450.685 478.75 452.632C478.729 452.972 478.843 453.305 479.067 453.561C479.291 453.816 479.606 453.973 479.945 453.996C485.815 454.533 494 452.648 496.59 452.004C496.831 451.944 497.045 451.806 497.2 451.612C497.355 451.419 497.442 451.179 497.448 450.931L497.647 445.444C497.65 445.264 497.615 445.085 497.545 444.919C497.475 444.753 497.371 444.603 497.24 444.479C497.108 444.355 496.953 444.26 496.783 444.199C496.613 444.138 496.433 444.114 496.253 444.126L479.639 445.552C479.488 445.563 479.342 445.605 479.207 445.674C479.073 445.743 478.954 445.838 478.857 445.953C478.76 446.069 478.687 446.203 478.642 446.347C478.597 446.491 478.582 446.643 478.597 446.793Z" fill="#263238"/>
<path opacity="0.3" d="M478.597 446.793C478.785 448.734 478.836 450.685 478.75 452.632C478.729 452.972 478.843 453.305 479.067 453.561C479.291 453.816 479.606 453.973 479.945 453.996C485.815 454.533 494 452.648 496.59 452.004C496.831 451.944 497.045 451.806 497.2 451.612C497.355 451.419 497.442 451.179 497.448 450.931L497.647 445.444C497.65 445.264 497.615 445.085 497.545 444.919C497.475 444.753 497.371 444.603 497.24 444.479C497.108 444.355 496.953 444.26 496.783 444.199C496.613 444.138 496.433 444.114 496.253 444.126L479.639 445.552C479.488 445.563 479.342 445.605 479.207 445.674C479.073 445.743 478.954 445.838 478.857 445.953C478.76 446.069 478.687 446.203 478.642 446.347C478.597 446.491 478.582 446.643 478.597 446.793Z" fill="white"/>
<path d="M378.561 146.29C377.029 149.187 375.373 152.421 373.687 155.486C372.002 158.551 370.3 161.616 368.584 164.605C365.12 170.628 361.503 176.529 357.625 182.092L359.71 180.238C358.172 181.319 356.476 182.157 354.683 182.721C352.513 183.448 350.289 184.002 348.031 184.376C345.671 184.805 343.219 185.096 340.72 185.326C338.222 185.556 335.601 185.694 333.211 185.847H332.889C331.893 185.905 330.949 186.307 330.217 186.984C329.486 187.662 329.014 188.574 328.881 189.562C328.749 190.55 328.965 191.554 329.492 192.4C330.019 193.247 330.825 193.883 331.77 194.2C334.508 195.111 337.31 195.818 340.153 196.315C343.01 196.823 345.898 197.136 348.797 197.25C351.873 197.368 354.953 197.184 357.993 196.698C361.424 196.181 364.741 195.083 367.802 193.449C368.438 193.102 369.005 192.639 369.473 192.085L369.887 191.595C372.323 188.683 374.699 185.709 376.875 182.659C379.052 179.61 381.182 176.529 383.159 173.464C385.136 170.398 387.052 167.134 388.861 163.9C390.669 160.666 392.386 157.463 394.026 153.923C394.887 151.911 394.947 149.646 394.193 147.592C393.44 145.537 391.931 143.848 389.973 142.869C388.016 141.89 385.759 141.696 383.663 142.327C381.568 142.957 379.792 144.364 378.699 146.259L378.561 146.29Z" fill="#FFB573"/>
<path d="M387.022 133.92C377.014 137.215 375.389 141.706 369.902 158.289C373.55 168.236 388.294 173.278 388.294 173.278C388.294 173.278 405.705 144.924 387.022 133.92Z" fill="#01BAEF"/>
<path d="M373.32 155.5C373.887 160.987 375.297 167.531 378.255 180.39C380.554 191.302 380.584 212.575 384.263 213.694C391.328 217.188 409.015 215.84 439.882 206.307C438.901 190.367 437.047 179.547 442.349 142.978C442.683 141.061 442.585 139.094 442.063 137.219C441.541 135.345 440.607 133.61 439.329 132.142C438.052 130.674 436.464 129.509 434.68 128.733C432.895 127.956 430.96 127.587 429.016 127.652C426.778 127.652 424.418 127.836 422.011 128.05C413.522 128.561 405.081 129.683 396.754 131.407C394.041 132.02 391.236 132.74 388.569 133.476C383.873 134.817 379.786 137.745 377.006 141.761C374.225 145.776 372.923 150.632 373.32 155.5Z" fill="#01BAEF"/>
<path d="M481.371 218.888L478.305 216.083C477.735 215.562 477.298 214.911 477.031 214.186C476.764 213.46 476.676 212.681 476.773 211.915L477.616 204.604C477.777 203.167 478.278 201.789 479.078 200.585C479.877 199.38 480.952 198.383 482.214 197.676L483.746 196.803C489.218 201.109 491.961 209.784 491.961 209.784L493.019 212.175C493.251 212.658 493.385 213.183 493.413 213.719C493.441 214.254 493.362 214.79 493.181 215.295C493 215.8 492.72 216.264 492.358 216.66C491.996 217.055 491.559 217.375 491.072 217.601L486.367 219.746C485.54 220.099 484.629 220.206 483.742 220.053C482.856 219.901 482.033 219.496 481.371 218.888Z" fill="#FFB573"/>
<path d="M320.49 182.076L324.414 180.543C325.14 180.269 325.921 180.173 326.692 180.264C327.463 180.354 328.2 180.629 328.843 181.064L334.973 185.172C336.177 185.981 337.168 187.068 337.864 188.34C338.56 189.612 338.941 191.033 338.974 192.482V194.306C332.644 197.188 323.647 195.624 323.647 195.624L321.042 195.471C320.506 195.453 319.978 195.33 319.49 195.107C319.002 194.884 318.563 194.567 318.198 194.174C317.834 193.781 317.55 193.319 317.365 192.816C317.18 192.312 317.096 191.777 317.118 191.241L317.363 186.076C317.434 185.176 317.769 184.317 318.325 183.605C318.881 182.894 319.634 182.362 320.49 182.076Z" fill="#FFB573"/>
<path d="M433.216 147.911L435.177 148.815L437.323 149.796C438.748 150.486 440.158 151.206 441.568 151.942C444.404 153.475 447.163 155.007 449.875 156.616C452.588 158.226 455.209 160.019 457.753 161.843C460.297 163.667 462.658 165.659 464.956 167.697L463.945 166.41C464.692 167.509 465.348 168.668 465.907 169.874C466.581 171.268 467.209 172.786 467.823 174.334C469.049 177.399 470.244 180.679 471.348 183.974C472.451 187.269 473.57 190.61 474.658 193.951L477.969 204.021C478.289 205.01 478.959 205.849 479.852 206.382C480.745 206.914 481.801 207.105 482.824 206.918C483.846 206.73 484.766 206.178 485.413 205.363C486.059 204.549 486.387 203.527 486.337 202.488C486.168 198.795 485.831 195.208 485.417 191.591C485.003 187.974 484.482 184.373 483.885 180.755C483.287 177.138 482.505 173.506 481.509 169.828C481.018 167.989 480.482 166.149 479.808 164.218C479.095 162.093 478.182 160.04 477.08 158.088C476.886 157.768 476.666 157.466 476.421 157.184L476.053 156.8C473.528 154.017 470.825 151.401 467.96 148.969C465.137 146.569 462.18 144.333 459.102 142.271C456.065 140.212 452.918 138.319 449.676 136.6C448.051 135.742 446.412 134.93 444.741 134.133C443.898 133.75 443.07 133.351 442.197 132.983C441.323 132.615 440.526 132.294 439.438 131.88C437.351 131.045 435.019 131.065 432.946 131.933C430.873 132.802 429.225 134.451 428.356 136.524C427.487 138.597 427.468 140.929 428.303 143.016C429.137 145.103 430.759 146.779 432.817 147.681L433.216 147.911Z" fill="#FFB573"/>
<path d="M418.41 131.636C425.92 126.256 430.487 125.674 448.664 133.567C450.825 145 443.744 161.783 443.744 161.783C443.744 161.783 419.559 149.185 418.41 131.636Z" fill="#01BAEF"/>
<path d="M416.448 99.7891C415.33 108.203 414.609 123.453 420.617 128.173C420.617 128.173 412.77 128.036 397.766 140.312C392.141 134.181 395.359 131.53 395.359 131.53C404.295 128.143 403.666 121.384 401.72 115.207L416.448 99.7891Z" fill="#FFB573"/>
<path d="M400.938 137.829C406.409 137.829 409.183 145.784 409.183 145.784C409.183 145.784 422.333 135.3 424.126 127.928C422.381 127.224 420.672 126.431 419.007 125.553C419.007 125.553 403.666 134.304 400.938 137.829Z" fill="white"/>
<path d="M395.696 137.628C395.696 137.628 391.558 139.161 390.194 145.291C387.389 133.613 392.861 131.773 392.861 131.773C394.232 130.745 395.936 130.265 397.643 130.425C396.524 131.206 395.716 132.355 395.36 133.673C395.004 134.99 395.123 136.39 395.696 137.628Z" fill="white"/>
<path opacity="0.2" d="M410.44 106.07L401.735 115.266C402.209 116.704 402.553 118.181 402.762 119.68C406.195 118.715 410.731 114.255 410.885 110.484C411.01 108.998 410.859 107.502 410.44 106.07Z" fill="black"/>
<path d="M425.889 87.5425C422.824 100.631 421.705 106.225 413.843 112.203C402.026 121.184 386.684 115.36 385.857 101.811C385.121 89.5502 390.363 70.239 404.248 66.5607C407.191 65.6762 410.316 65.5932 413.301 66.3204C416.287 67.0477 419.023 68.5587 421.229 70.6975C423.435 72.8362 425.03 75.5251 425.849 78.4865C426.669 81.4478 426.682 84.5741 425.889 87.5425Z" fill="#FFB573"/>
<path d="M423.33 96.9533C418.518 94.593 413.414 82.991 420.265 77.5041C414.609 78.5617 408.126 77.0443 402.134 72.4158C394.317 66.2852 382.807 81.5043 386.593 72.569C392.049 59.6949 408.494 56.4764 423.376 67.1742C438.258 77.872 437.2 90.884 423.33 96.9533Z" fill="#263238"/>
<path d="M427.406 94.3333C427.458 94.3281 427.508 94.3062 427.547 94.271C427.585 94.2357 427.612 94.1889 427.622 94.1374C427.632 94.086 427.626 94.0325 427.604 93.985C427.581 93.9375 427.544 93.8985 427.498 93.8735C423.667 92.2183 407.405 88.7545 406.716 88.6166C406.684 88.6075 406.652 88.6051 406.619 88.6097C406.587 88.6142 406.556 88.6256 406.529 88.6429C406.501 88.6603 406.478 88.6834 406.46 88.7105C406.442 88.7377 406.43 88.7684 406.424 88.8005C406.415 88.8612 406.429 88.9232 406.463 88.9742C406.497 89.0253 406.549 89.0618 406.608 89.0764C406.777 89.0764 423.467 92.6781 427.314 94.318L427.406 94.3333Z" fill="white"/>
<path opacity="0.2" d="M407.682 88.892C409.325 88.1696 411.186 88.1255 412.862 88.7694C411.159 89.1463 409.4 89.1879 407.682 88.892Z" fill="black"/>
<path opacity="0.2" d="M407.82 90.0545C408.617 89.8862 409.441 89.8937 410.235 90.0763C411.029 90.2589 411.774 90.6124 412.417 91.112C410.828 91.0866 409.261 90.7263 407.82 90.0545Z" fill="black"/>
<path d="M404.831 88.7087C404.616 89.8275 403.865 90.6551 403.145 90.5632C402.425 90.4712 402.026 89.5057 402.241 88.3868C402.455 87.268 403.222 86.4557 403.927 86.5323C404.632 86.609 405.046 87.6052 404.831 88.7087Z" fill="#263238"/>
<path d="M391.374 87.2535C391.16 88.357 390.393 89.1846 389.688 89.108C388.983 89.0314 388.569 88.0352 388.784 86.9317C388.999 85.8282 389.75 84.9852 390.47 85.0772C391.19 85.1691 391.589 86.1347 391.374 87.2535Z" fill="#263238"/>
<path d="M390.822 85.1816L388.339 84.0781C388.339 84.0781 389.29 86.3311 390.822 85.1816Z" fill="#263238"/>
<path d="M393.888 89.3828C392.562 91.8832 390.924 94.2057 389.014 96.295C389.537 96.7338 390.15 97.0508 390.81 97.2231C391.47 97.3954 392.16 97.4187 392.831 97.2912L393.888 89.3828Z" fill="#ED893E"/>
<path d="M398.716 102.241C398.099 102.293 397.478 102.293 396.861 102.241C396.819 102.235 396.779 102.221 396.742 102.2C396.706 102.178 396.675 102.149 396.65 102.114C396.626 102.08 396.609 102.04 396.6 101.999C396.592 101.957 396.592 101.915 396.601 101.873C396.616 101.785 396.664 101.706 396.735 101.652C396.806 101.598 396.895 101.573 396.984 101.582C398.371 101.75 399.778 101.607 401.104 101.165C402.429 100.722 403.639 99.9904 404.647 99.0224C404.677 98.9918 404.713 98.9675 404.752 98.9509C404.792 98.9343 404.834 98.9258 404.877 98.9258C404.92 98.9258 404.962 98.9343 405.002 98.9509C405.041 98.9675 405.077 98.9918 405.107 99.0224C405.165 99.0848 405.197 99.167 405.197 99.2523C405.197 99.3376 405.165 99.4198 405.107 99.4822C403.383 101.149 401.111 102.129 398.716 102.241Z" fill="#263238"/>
<path d="M429.001 99.2689C428.262 100.323 427.313 101.212 426.212 101.879C425.112 102.547 423.885 102.978 422.609 103.146C419.422 103.407 418.732 99.698 420.356 96.4029C421.812 93.4449 425.23 89.7206 428.02 91.008C430.809 92.2954 431.07 96.5561 429.001 99.2689Z" fill="#FFB573"/>
<path d="M409.137 80.261C409.052 80.261 408.967 80.2417 408.891 80.2046C408.814 80.1674 408.746 80.1133 408.693 80.0464C408.2 79.4151 407.559 78.9154 406.826 78.5919C406.093 78.2683 405.292 78.1309 404.493 78.1919C404.411 78.2048 404.326 78.2006 404.245 78.1794C404.163 78.1583 404.087 78.1207 404.021 78.0689C403.955 78.0172 403.9 77.9525 403.86 77.8787C403.82 77.805 403.796 77.7238 403.788 77.6402C403.782 77.4642 403.838 77.2916 403.948 77.1537C404.058 77.0159 404.213 76.9221 404.386 76.8892C405.395 76.7998 406.409 76.9616 407.34 77.3601C408.271 77.7586 409.088 78.3813 409.72 79.1728C409.794 79.2774 409.837 79.4005 409.845 79.5284C409.853 79.6564 409.826 79.784 409.765 79.897C409.705 80.01 409.614 80.1039 409.503 80.1682C409.392 80.2325 409.265 80.2646 409.137 80.261Z" fill="#263238"/>
<path d="M388.891 79.6957C388.809 79.7048 388.726 79.6973 388.647 79.6736C388.568 79.6499 388.495 79.6105 388.432 79.5577C388.37 79.4978 388.322 79.4263 388.289 79.3473C388.256 79.2684 388.238 79.1836 388.238 79.0979C388.238 79.0123 388.256 78.9275 388.289 78.8486C388.322 78.7696 388.37 78.6981 388.432 78.6382C389.094 77.8065 389.939 77.1387 390.901 76.6868C391.863 76.2349 392.917 76.0111 393.98 76.0327C394.064 76.0395 394.147 76.0644 394.221 76.1055C394.295 76.1467 394.36 76.2033 394.411 76.2715C394.462 76.3396 394.497 76.4179 394.516 76.5009C394.534 76.5839 394.534 76.6699 394.516 76.753C394.49 76.9263 394.4 77.0835 394.264 77.194C394.128 77.3045 393.955 77.3604 393.78 77.3507C392.938 77.3417 392.104 77.5263 391.344 77.8904C390.584 78.2544 389.918 78.7882 389.397 79.4504C389.336 79.5261 389.259 79.5873 389.172 79.6297C389.084 79.6721 388.989 79.6946 388.891 79.6957Z" fill="#263238"/>
<path d="M400.677 95.65C403.911 95.65 406.716 92.2169 407.022 87.8182C407.208 85.7465 406.73 83.6694 405.658 81.8869C405.235 81.1313 404.637 80.488 403.915 80.0108C403.192 79.5335 402.366 79.2361 401.505 79.1435C398.118 78.9136 395.144 82.4233 394.823 86.9753C394.501 91.5272 396.999 95.4048 400.355 95.6347L400.677 95.65ZM401.183 79.6952H401.459C402.247 79.7857 403.003 80.0621 403.664 80.5017C404.325 80.9414 404.872 81.5317 405.26 82.2241C406.277 83.9195 406.728 85.8951 406.547 87.8642C406.256 92.1402 403.482 95.4354 400.417 95.2362C397.351 95.0369 395.037 91.3586 395.328 87.0825C395.62 82.8065 398.194 79.6952 401.183 79.6952Z" fill="white"/>
<path d="M386.347 94.8222C389.581 94.8222 392.401 91.4044 392.708 87.0057C392.886 84.9345 392.409 82.8597 391.344 81.0744C390.917 80.3185 390.316 79.6753 389.591 79.1982C388.866 78.721 388.038 78.4237 387.175 78.331C383.818 78.1011 380.814 81.6108 380.508 86.1474C380.33 88.2186 380.807 90.2935 381.872 92.0787C382.296 92.8363 382.897 93.4808 383.622 93.9582C384.348 94.4356 385.177 94.7319 386.041 94.8222H386.347ZM386.853 78.8061H387.144C387.933 78.8965 388.688 79.1729 389.349 79.6126C390.01 80.0523 390.557 80.6426 390.945 81.335C391.949 83.0359 392.399 85.007 392.232 86.9751C391.941 91.1132 389.336 94.347 386.347 94.347H386.071C385.282 94.2603 384.524 93.9853 383.863 93.5453C383.202 93.1053 382.655 92.513 382.27 91.8182C381.261 90.1251 380.81 88.157 380.983 86.1934C381.274 82.04 383.88 78.8061 386.853 78.8061Z" fill="white"/>
<path d="M392.355 87.6339C392.396 87.6317 392.435 87.6193 392.47 87.5979C392.505 87.5765 392.534 87.5467 392.554 87.5113C393.137 86.5917 394.838 87.5879 394.853 87.5879C394.879 87.6046 394.908 87.6158 394.939 87.621C394.969 87.6261 395 87.6251 395.031 87.6179C395.061 87.6108 395.089 87.5977 395.114 87.5793C395.139 87.561 395.159 87.5379 395.175 87.5113C395.214 87.4666 395.235 87.4095 395.235 87.3504C395.235 87.2912 395.214 87.234 395.175 87.1894C395.083 87.1894 393.06 85.9327 392.232 87.1894C392.213 87.2146 392.2 87.2438 392.194 87.2747C392.187 87.3057 392.188 87.3376 392.195 87.3684C392.202 87.3991 392.216 87.4279 392.236 87.4526C392.256 87.4773 392.281 87.4973 392.309 87.5113C392.308 87.5337 392.312 87.5562 392.32 87.5772C392.328 87.5983 392.34 87.6175 392.355 87.6339Z" fill="white"/>
<path d="M404.233 86.639L401.766 85.5508C401.766 85.5508 402.701 87.8038 404.233 86.639Z" fill="#263238"/>
</svg>
