<svg width="241" height="61" viewBox="0 0 241 61" fill="none" xmlns="http://www.w3.org/2000/svg">
<path d="M2.5892 14.4562C2.5892 13.6595 3.23321 13.0137 4.02764 13.0137H33.5157C34.3101 13.0137 34.9542 13.6595 34.9542 14.4562V17.3413C34.9542 18.138 34.3101 18.7838 33.5157 18.7838H4.02764C3.23321 18.7838 2.5892 18.138 2.5892 17.3413V14.4562Z" fill="#ffffff"/>
<path d="M0 21.0919C0 20.2952 0.644013 19.6494 1.43844 19.6494H27.3304C28.1248 19.6494 28.7689 20.2952 28.7689 21.0919V23.977C28.7689 24.7737 28.1248 25.4195 27.3304 25.4195H1.43844C0.644013 25.4195 0 24.7737 0 23.977V21.0919Z" fill="#ffffff"/>
<path d="M2.5892 27.7276C2.5892 26.9309 3.23321 26.285 4.02764 26.285H29.9196C30.714 26.285 31.358 26.9309 31.358 27.7276V30.6127C31.358 31.4094 30.714 32.0552 29.9196 32.0552H4.02764C3.23321 32.0552 2.5892 31.4094 2.5892 30.6127V27.7276Z" fill="#ffffff"/>
<path d="M15.5352 34.3633C15.5352 33.5666 16.1792 32.9207 16.9736 32.9207H42.8656C43.66 32.9207 44.304 33.5666 44.304 34.3633V37.2484C44.304 38.0451 43.66 38.6909 42.8656 38.6909H16.9736C16.1792 38.6909 15.5352 38.0451 15.5352 37.2484V34.3633Z" fill="#ffffff"/>
<path d="M14.9598 48.0674C14.9598 47.2707 15.6038 46.6249 16.3982 46.6249H42.2902C43.0846 46.6249 43.7287 47.2707 43.7287 48.0674V50.9525C43.7287 51.7492 43.0846 52.395 42.2902 52.395H16.3982C15.6038 52.395 14.9598 51.7492 14.9598 50.9525V48.0674Z" fill="#ffffff"/>
<path d="M12.946 41.4317C12.946 40.635 13.59 39.9892 14.3844 39.9892H46.8932C47.6877 39.9892 48.3317 40.635 48.3317 41.4317V44.3168C48.3317 45.1135 47.6877 45.7593 46.8932 45.7593H14.3844C13.59 45.7593 12.946 45.1135 12.946 44.3168V41.4317Z" fill="#ffffff"/>
<path d="M71.656 47.4583C68.8454 47.4583 66.2486 46.8778 63.8657 45.7169C61.4827 44.556 59.4511 42.891 57.7709 40.7219L61.0245 37.6058C62.552 39.4999 64.2323 40.951 66.0653 41.9592C67.8983 42.9368 69.8688 43.4256 71.9768 43.4256C73.4738 43.4256 74.7874 43.1965 75.9178 42.7382C77.0482 42.28 77.9341 41.6384 78.5757 40.8135C79.2172 39.9581 79.538 38.9805 79.538 37.8807C79.538 36.7198 79.095 35.7727 78.2091 35.0395C77.3231 34.2758 75.872 33.6495 73.8557 33.1607L68.8148 31.8317C66.3097 31.1596 64.4309 30.1667 63.1783 28.8531C61.9563 27.5394 61.3453 25.8897 61.3453 23.9039C61.3453 21.9792 61.8188 20.3142 62.7659 18.9089C63.7129 17.5036 65.0571 16.4191 66.7985 15.6553C68.5704 14.8915 70.6479 14.5097 73.0308 14.5097C75.4137 14.5097 77.7508 14.9679 80.0421 15.8844C82.3334 16.8009 84.365 18.0993 86.1369 19.7796L83.1124 23.2165C81.5238 21.689 79.8435 20.5281 78.0716 19.7338C76.3302 18.9395 74.5125 18.5423 72.6184 18.5423C70.5715 18.5423 68.937 18.9853 67.715 19.8713C66.493 20.7267 65.882 21.8876 65.882 23.354C65.882 24.4844 66.2792 25.4009 67.0735 26.1035C67.8983 26.8062 69.1814 27.3866 70.9228 27.8449L75.8262 29.0364C78.6979 29.739 80.8059 30.7625 82.1501 32.1067C83.5249 33.4204 84.2122 35.1312 84.2122 37.2391C84.2122 39.286 83.6929 41.0885 82.6542 42.6466C81.6155 44.1741 80.149 45.3656 78.2549 46.221C76.3913 47.0458 74.1917 47.4583 71.656 47.4583ZM93.0537 47.3666C90.7013 47.3666 88.9905 46.8014 87.9212 45.6711C86.8825 44.5407 86.577 42.9368 87.0047 40.8594L89.8459 27.5241H84.9884L85.8133 23.6748H90.625L91.9081 17.7174L96.6281 16.6176L95.1159 23.6748H101.806L100.982 27.5241H94.291L91.6331 39.9887C91.3582 41.2413 91.4651 42.1425 91.9539 42.6924C92.4733 43.2423 93.4356 43.5173 94.8409 43.5173C95.2992 43.5173 95.7269 43.4867 96.124 43.4256C96.5517 43.334 97.0405 43.2118 97.5904 43.059L96.8114 46.9542C96.2921 47.0764 95.681 47.168 94.9784 47.2291C94.3063 47.3208 93.6647 47.3666 93.0537 47.3666ZM106.245 47.275C103.862 47.275 101.937 46.6945 100.471 45.5336C99.0351 44.3421 98.3172 42.7535 98.3172 40.7677C98.3172 39.2402 98.6991 37.9113 99.4628 36.7809C100.257 35.62 101.372 34.734 102.808 34.123C104.275 33.4815 105.985 33.1607 107.941 33.1607C109.193 33.1607 110.415 33.3134 111.607 33.6189C112.829 33.8939 113.944 34.291 114.952 34.8104L115.41 32.7024C115.807 30.8083 115.563 29.403 114.677 28.4865C113.822 27.5394 112.325 27.0659 110.186 27.0659C109.27 27.0659 108.261 27.2033 107.162 27.4783C106.092 27.7227 104.824 28.1504 103.358 28.7614L102.212 25.2328C103.893 24.5302 105.466 24.0261 106.932 23.7206C108.399 23.4151 109.774 23.2623 111.057 23.2623C113.287 23.2623 115.12 23.629 116.556 24.3622C117.992 25.0954 119 26.1646 119.58 27.57C120.161 28.9447 120.237 30.5944 119.809 32.5191L116.785 47H112.34L112.706 45.3045C111.698 45.9766 110.66 46.4806 109.59 46.8167C108.552 47.1222 107.436 47.275 106.245 47.275ZM107.666 43.9297C108.704 43.9297 109.697 43.7769 110.644 43.4714C111.622 43.1354 112.554 42.6466 113.44 42.005L114.265 38.0182C112.584 36.8878 110.537 36.3226 108.124 36.3226C106.474 36.3226 105.13 36.7045 104.091 37.4683C103.083 38.2015 102.579 39.1791 102.579 40.4011C102.579 41.5009 103.022 42.3716 103.908 43.0132C104.824 43.6242 106.077 43.9297 107.666 43.9297ZM131.562 47.4583C129.515 47.4583 127.682 47 126.063 46.0835C124.444 45.1364 123.161 43.8533 122.213 42.2341C121.297 40.615 120.839 38.7667 120.839 36.6892C120.839 34.8562 121.175 33.1301 121.847 31.511C122.55 29.8918 123.497 28.4712 124.688 27.2492C125.88 25.9966 127.239 25.019 128.767 24.3163C130.325 23.6137 132.005 23.2623 133.807 23.2623C135.61 23.2623 137.336 23.6748 138.986 24.4996C140.635 25.3245 141.964 26.4396 142.972 27.8449L139.81 30.7319C139.016 29.6016 138.1 28.7614 137.061 28.2115C136.022 27.6311 134.861 27.3408 133.578 27.3408C132.478 27.3408 131.424 27.5852 130.416 28.074C129.439 28.5323 128.553 29.1891 127.758 30.0445C126.995 30.8999 126.399 31.8776 125.971 32.9774C125.543 34.0466 125.33 35.2075 125.33 36.4601C125.33 37.7738 125.62 38.9652 126.2 40.0345C126.811 41.1038 127.621 41.9439 128.629 42.5549C129.637 43.1354 130.783 43.4256 132.066 43.4256C133.135 43.4256 134.159 43.227 135.136 42.8299C136.144 42.4022 137.153 41.7912 138.161 40.9968L140.406 44.113C137.718 46.3432 134.77 47.4583 131.562 47.4583ZM140.626 47L147.454 14.9221L152.128 13.9139L147.912 33.8022L160.789 23.6748H166.563L151.853 35.1312L162.026 47H156.527L147.408 36.1393L145.117 47H140.626ZM159.216 47L178.875 14.9221H184.466L190.652 47H185.749L184.053 37.6058H170.031L164.394 47H159.216ZM172.414 33.6189H183.366L180.8 19.5963L172.414 33.6189ZM194.523 47L200.435 19.1839H189.345L190.307 14.9221H217.07L216.153 19.1839H205.109L199.198 47H194.523ZM226.299 47.4583C223.489 47.4583 220.892 46.8778 218.509 45.7169C216.126 44.556 214.095 42.891 212.414 40.7219L215.668 37.6058C217.195 39.4999 218.876 40.951 220.709 41.9592C222.542 42.9368 224.512 43.4256 226.62 43.4256C228.117 43.4256 229.431 43.1965 230.561 42.7382C231.692 42.28 232.578 41.6384 233.219 40.8135C233.861 39.9581 234.181 38.9805 234.181 37.8807C234.181 36.7198 233.738 35.7727 232.853 35.0395C231.967 34.2758 230.515 33.6495 228.499 33.1607L223.458 31.8317C220.953 31.1596 219.074 30.1667 217.822 28.8531C216.6 27.5394 215.989 25.8897 215.989 23.9039C215.989 21.9792 216.462 20.3142 217.409 18.9089C218.356 17.5036 219.701 16.4191 221.442 15.6553C223.214 14.8915 225.291 14.5097 227.674 14.5097C230.057 14.5097 232.394 14.9679 234.686 15.8844C236.977 16.8009 239.008 18.0993 240.78 19.7796L237.756 23.2165C236.167 21.689 234.487 20.5281 232.715 19.7338C230.974 18.9395 229.156 18.5423 227.262 18.5423C225.215 18.5423 223.58 18.9853 222.358 19.8713C221.136 20.7267 220.525 21.8876 220.525 23.354C220.525 24.4844 220.923 25.4009 221.717 26.1035C222.542 26.8062 223.825 27.3866 225.566 27.8449L230.47 29.0364C233.341 29.739 235.449 30.7625 236.794 32.1067C238.168 33.4204 238.856 35.1312 238.856 37.2391C238.856 39.286 238.336 41.0885 237.298 42.6466C236.259 44.1741 234.792 45.3656 232.898 46.221C231.035 47.0458 228.835 47.4583 226.299 47.4583Z" fill="#ffffff"/>
</svg>
