<svg width="36" height="36" viewBox="0 0 36 36" fill="none" xmlns="http://www.w3.org/2000/svg">
<path d="M21.8107 2.81836C19.9657 2.81836 18.4657 4.31836 18.4657 6.16336V13.1234C18.4657 14.9684 19.9657 16.4683 21.8107 16.4683C23.6557 16.4683 25.1558 14.9684 25.1558 13.1234V6.16336C25.1558 4.33336 23.6557 2.81836 21.8107 2.81836Z" fill="#01BAEF"/>
<path opacity="0.4" d="M30.2704 10.6641C28.6654 10.6641 27.3604 11.9691 27.3604 13.5741V15.9291C27.3604 16.2441 27.6154 16.4991 27.9304 16.4991H30.2854C31.8904 16.4991 33.1953 15.1941 33.1953 13.589C33.1953 11.984 31.8754 10.6641 30.2704 10.6641Z" fill="#01BAEF"/>
<path d="M12.7513 10.4824H5.79129C3.94629 10.4824 2.44629 11.9824 2.44629 13.8274C2.44629 15.6725 3.94629 17.1725 5.79129 17.1725H12.7513C14.5963 17.1725 16.0963 15.6725 16.0963 13.8274C16.0963 11.9824 14.5963 10.4824 12.7513 10.4824Z" fill="#01BAEF"/>
<path opacity="0.4" d="M13.1844 2.43164C11.5794 2.43164 10.2744 3.73664 10.2744 5.34164C10.2744 6.94664 11.5794 8.25164 13.1844 8.25164H15.5394C15.8544 8.25164 16.1094 7.99664 16.1094 7.68164V5.32664C16.0944 3.75164 14.7894 2.43164 13.1844 2.43164Z" fill="#01BAEF"/>
<path d="M14.1438 19.5469C12.2988 19.5469 10.7988 21.047 10.7988 22.892V29.852C10.7988 31.697 12.2988 33.1969 14.1438 33.1969C15.9888 33.1969 17.4888 31.697 17.4888 29.852V22.892C17.4888 21.047 15.9888 19.5469 14.1438 19.5469Z" fill="#01BAEF"/>
<path opacity="0.4" d="M8.0394 19.5469H5.6844C4.0794 19.5469 2.77441 20.852 2.77441 22.457C2.77441 24.062 4.0794 25.367 5.6844 25.367C7.2894 25.367 8.5944 24.062 8.5944 22.457V20.102C8.5944 19.802 8.3394 19.5469 8.0394 19.5469Z" fill="#01BAEF"/>
<path d="M30.1654 18.8555H23.2054C21.3604 18.8555 19.8604 20.3555 19.8604 22.2005C19.8604 24.0455 21.3604 25.5455 23.2054 25.5455H30.1654C32.0104 25.5455 33.5104 24.0455 33.5104 22.2005C33.5104 20.3555 32.0104 18.8555 30.1654 18.8555Z" fill="#01BAEF"/>
<path opacity="0.4" d="M22.7707 27.7031H20.4157C20.1007 27.7031 19.8457 27.958 19.8457 28.273V30.628C19.8457 32.233 21.1507 33.538 22.7557 33.538C24.3607 33.538 25.6657 32.233 25.6657 30.628C25.6807 29.008 24.3757 27.7031 22.7707 27.7031Z" fill="#01BAEF"/>
</svg>
