<svg width="42" height="34" viewBox="0 0 42 34" fill="none" xmlns="http://www.w3.org/2000/svg">
<path d="M2.25 1.24542C2.25 0.557594 2.80964 0 3.5 0H29.125C29.8154 0 30.375 0.557594 30.375 1.24542V3.73626C30.375 4.42409 29.8154 4.98169 29.125 4.98169H3.5C2.80964 4.98169 2.25 4.42409 2.25 3.73626V1.24542Z" fill="white"/>
<path d="M0 6.97436C0 6.28653 0.559644 5.72894 1.25 5.72894H23.75C24.4404 5.72894 25 6.28653 25 6.97436V9.4652C25 10.153 24.4404 10.7106 23.75 10.7106H1.25C0.559644 10.7106 0 10.153 0 9.4652V6.97436Z" fill="white"/>
<path d="M2.25 12.7033C2.25 12.0155 2.80964 11.4579 3.5 11.4579H26C26.6904 11.4579 27.25 12.0155 27.25 12.7033V15.1941C27.25 15.882 26.6904 16.4396 26 16.4396H3.5C2.80964 16.4396 2.25 15.882 2.25 15.1941V12.7033Z" fill="white"/>
<path d="M13.5 18.4322C13.5 17.7444 14.0596 17.1868 14.75 17.1868H37.25C37.9404 17.1868 38.5 17.7444 38.5 18.4322V20.9231C38.5 21.6109 37.9404 22.1685 37.25 22.1685H14.75C14.0596 22.1685 13.5 21.6109 13.5 20.9231V18.4322Z" fill="white"/>
<path d="M13 30.2637C13 29.5759 13.5596 29.0183 14.25 29.0183H36.75C37.4404 29.0183 38 29.5759 38 30.2637V32.7546C38 33.4424 37.4404 34 36.75 34H14.25C13.5596 34 13 33.4424 13 32.7546V30.2637Z" fill="white"/>
<path d="M11.25 24.5348C11.25 23.847 11.8096 23.2894 12.5 23.2894H40.75C41.4404 23.2894 42 23.847 42 24.5348V27.0256C42 27.7135 41.4404 28.2711 40.75 28.2711H12.5C11.8096 28.2711 11.25 27.7135 11.25 27.0256V24.5348Z" fill="white"/>
</svg>
