<svg width="782" height="749" viewBox="0 0 782 749" fill="none" xmlns="http://www.w3.org/2000/svg">
<path d="M668.921 613.293V706.859H767.699V613.293H668.921ZM676.437 699.788V620.364H760.259V699.788H676.437Z" fill="#EBEBEB"/>
<path d="M714.239 449.771H425.247V723.518H714.239V449.771Z" fill="#455A64"/>
<path d="M480.936 723.519H641.715C642.392 717.705 617.766 593.955 588.857 554.16C585.575 549.651 557.443 546.353 547.122 557.577C492.46 617.068 479.633 722.095 480.936 723.519Z" fill="#263238"/>
<path d="M592.665 564.435C597.224 575.635 614.434 614.884 623.804 643.075C630.066 662.059 632.471 677.839 633.824 682.016C633.824 682.016 586.227 667.588 575.655 667.564C559.196 667.564 532.792 700.074 539.255 704.156C549.451 710.586 597.976 732.394 636.755 739.252C657.823 742.978 697.505 717.611 694.373 697.44C689.989 669.131 635.979 594.524 615.437 573.357C604.79 562.371 587.078 550.79 592.665 564.435Z" fill="#EB9481"/>
<path d="M697.305 703.421C696.302 723.805 669.372 740.985 653.765 741.887C626.835 743.429 546.044 721.147 546.044 721.147L577.434 663.816C577.434 663.816 632.547 681.495 633.824 681.993C633.348 680.474 619.796 632.161 613.783 616.285C613.458 615.407 613.082 614.506 612.731 613.557C610.978 609.119 608.598 603.282 605.942 596.946C604.489 593.434 602.936 589.827 601.408 586.172C594.769 570.558 588.306 555.68 588.306 555.68C597.55 557.127 606.694 561.731 621.7 576.657C636.705 591.583 698.933 669.796 697.305 703.421Z" fill="#263238"/>
<path d="M567.037 708.732C569.292 704.674 571.572 700.64 573.801 696.582C576.031 692.524 578.26 688.656 580.515 684.717C582.946 680.68 585.162 676.53 587.154 672.283C584.398 675.885 581.888 679.65 579.638 683.554C577.233 687.509 574.879 691.512 572.574 695.562C570.269 699.612 568.056 703.567 565.935 707.427C563.605 711.528 561.579 715.778 559.873 720.146C559.873 720.335 560.048 720.502 560.173 720.336C562.684 716.59 564.976 712.716 567.037 708.732Z" fill="#37474F"/>
<path d="M650.634 690.462L633.849 682.014C633.373 680.495 619.82 632.182 613.808 616.307C613.482 615.429 613.107 614.527 612.756 613.578C611.002 609.14 608.622 603.303 605.967 596.967L650.634 690.462Z" fill="#37474F"/>
<path d="M664.513 697.464C659.808 694.181 654.889 691.185 649.782 688.494C647.277 687.142 644.772 685.884 642.016 684.769C639.261 683.654 636.205 682.704 633.399 681.494C633.173 681.494 633.023 681.731 633.248 681.803C635.754 682.942 638.259 684.508 640.889 685.813C643.52 687.118 646.15 688.494 648.805 689.8C654.041 692.339 659.177 695.044 664.387 697.654C664.513 697.725 664.738 697.535 664.513 697.464Z" fill="#37474F"/>
<path d="M652.212 685.1C647.979 685.1 622.552 678.716 618.844 682.038C596.298 702.185 589.133 698.127 584.323 700.761C547.122 721.026 497.42 744.851 479.684 744.993C452.804 745.207 442.107 723.827 446.566 703.632C455.409 663.695 512.251 585.838 537.978 565.146C551.631 554.183 550.504 570.722 544.892 588.662C541.586 599.198 535.799 614.765 529.862 630.213C524.626 643.905 510.773 678.882 510.522 679.713C510.522 679.713 510.522 679.713 510.798 679.713C512 679.499 543.815 665.309 575.806 657.502C587.079 654.749 610.552 650.834 618.969 654.393C623.98 656.505 623.98 659.353 623.98 659.353C627.024 659.333 629.969 660.381 632.247 662.295C633.974 663.692 635.243 665.529 635.904 667.587C638.401 667.923 640.732 668.965 642.593 670.577C644.196 672.212 645.229 674.275 645.549 676.486C651.686 678.17 652.212 685.1 652.212 685.1Z" fill="#EB9481"/>
<path d="M614.635 658.785C611.27 658.88 607.918 659.237 604.614 659.852C604.389 659.852 604.389 660.208 604.614 660.185C607.871 659.852 611.203 659.781 614.485 659.686C617.766 659.591 621.073 659.52 624.355 659.568C621.147 659.024 617.893 658.762 614.635 658.785Z" fill="#263238"/>
<path d="M636.004 667.564C630.273 665.828 624.207 665.318 618.243 666.069C618.204 666.082 618.171 666.107 618.148 666.138C618.124 666.17 618.112 666.208 618.112 666.247C618.112 666.285 618.124 666.323 618.148 666.355C618.171 666.387 618.204 666.411 618.243 666.425C624.195 666.121 630.165 666.544 636.004 667.682C636.004 667.682 636.079 667.587 636.004 667.564Z" fill="#263238"/>
<path d="M645.699 676.485C640.382 674.346 634.638 673.325 628.865 673.495C628.639 673.495 628.564 673.803 628.865 673.827C634.538 674.327 640.154 675.296 645.649 676.722C645.749 676.746 645.824 676.532 645.699 676.485Z" fill="#263238"/>
<path d="M574.378 658.027C571.571 658.457 568.794 659.043 566.061 659.783C563.13 660.471 560.224 661.207 557.393 662.156C551.695 663.953 546.108 666.053 540.659 668.444C540.632 668.434 540.603 668.43 540.575 668.433C540.546 668.436 540.519 668.446 540.495 668.461C540.472 668.476 540.452 668.497 540.439 668.521C540.425 668.545 540.418 668.571 540.418 668.598C540.418 668.626 540.425 668.652 540.439 668.676C540.452 668.7 540.472 668.721 540.495 668.736C540.519 668.751 540.546 668.761 540.575 668.764C540.603 668.766 540.632 668.763 540.659 668.753C546.22 666.902 551.857 665.169 557.493 663.508L565.76 660.946C568.591 660.068 571.547 659.403 574.328 658.406C574.553 658.288 574.553 658.003 574.378 658.027Z" fill="#263238"/>
<path d="M552.007 663.745C554.751 662.726 557.637 662.087 560.574 661.847L594.043 715.381C594.043 715.381 501.829 746.823 482.915 748.603C477.788 749.002 472.628 748.404 467.754 746.846C462.879 745.288 458.392 742.803 454.568 739.543C450.744 736.283 447.664 732.317 445.517 727.889C443.37 723.46 442.2 718.663 442.081 713.791C441.555 682.159 496.042 606.177 523.448 576.776C535.974 563.321 550.629 553.544 554.361 555.751C558.77 558.361 550.779 575.281 546.545 587.905C538.754 611.231 510.822 679.81 510.822 679.81C510.822 679.81 545.092 665.905 552.007 663.745Z" fill="#263238"/>
<path d="M560.374 661.794C555.163 662.079 532.817 669.483 521.694 673.968C510.705 678.385 500.179 683.772 490.255 690.057C484.668 693.64 479.333 697.531 474.097 701.565C474.077 701.578 474.06 701.594 474.047 701.613C474.034 701.631 474.025 701.652 474.02 701.674C474.015 701.696 474.015 701.719 474.02 701.741C474.024 701.763 474.034 701.784 474.047 701.803C474.06 701.821 474.077 701.837 474.096 701.85C474.116 701.862 474.138 701.871 474.162 701.876C474.185 701.88 474.209 701.88 474.232 701.876C474.255 701.871 474.277 701.863 474.297 701.85C493.897 689.012 514.893 678.201 536.926 669.601C543.213 667.229 554.036 663.811 560.173 662.293C561.827 661.866 560.524 661.771 560.374 661.794Z" fill="#37474F"/>
<path d="M538.254 614.976C536.851 617.112 535.423 619.247 534.22 621.502L534.07 621.834C535.849 616.684 537.552 611.535 539.08 606.338C539.08 606.03 538.629 605.864 538.504 606.172C530.588 625.156 523.223 644.401 516.083 663.693C514.104 669.103 512.351 674.538 510.547 679.995C510.547 680.185 510.797 680.28 510.873 679.995C513.052 675.249 515.256 670.693 517.236 665.924C519.215 661.154 521.094 656.432 522.947 651.686C526.288 643.317 529.427 634.893 532.367 626.414C533.293 624.942 534.245 623.447 535.147 621.952C536.425 619.746 537.502 617.444 538.579 615.142C538.78 614.905 538.404 614.739 538.254 614.976Z" fill="#37474F"/>
<path d="M571.697 703.703C569.192 699.764 566.837 695.801 564.382 691.838C561.927 687.876 559.647 684.079 557.293 680.187C554.962 676.111 552.412 672.151 549.652 668.322C549.652 668.322 549.477 668.322 549.502 668.322C551.281 672.4 553.339 676.364 555.664 680.187C557.944 684.221 560.299 688.232 562.679 692.218C565.059 696.205 567.413 700.001 569.843 703.846C572.302 707.893 575.047 711.778 578.06 715.473C578.186 715.616 578.461 715.473 578.386 715.307C576.385 711.325 574.152 707.451 571.697 703.703Z" fill="#37474F"/>
<path d="M595.471 715.498C592.69 710.302 588.381 705.223 585.175 700.288C585.175 700.098 584.774 700.288 584.874 700.477C587.78 705.105 590.435 710.088 593.216 714.715C580.565 719.675 567.113 724.089 554.186 728.431C541.26 732.774 527.607 737.092 514.104 740.794C506.588 742.859 499.073 745.089 491.382 746.988C490.906 746.988 491.032 747.462 491.507 747.367C505.199 744.794 518.71 741.426 531.965 737.282C545.468 733.224 558.821 728.692 572.048 723.994C579.413 721.336 595.696 715.902 595.471 715.498Z" fill="#37474F"/>
<path d="M573.526 658.049C557.787 662.083 542.291 666.923 527.106 672.548L526.429 672.786C518.513 675.728 513.628 677.911 512.451 678.101L512.2 677.959C511.434 677.421 510.59 676.989 509.695 676.677C507.465 675.918 486.046 673.379 486.598 667.185C487.149 660.992 495.842 661.372 497.119 661.443C495.741 661.158 484.117 658.571 487.9 653.09C490.581 649.174 502.079 649.744 503.257 649.791C502.079 649.435 491.382 646.137 495.065 640.513C497.695 636.503 510.547 637.025 512.025 637.262C510.822 636.835 501.303 635.316 505.762 630.475C508.843 627.106 533.043 630.475 543.815 635.625C559.848 643.076 573.526 658.049 573.526 658.049Z" fill="#EB9481"/>
<path d="M527.106 672.547L526.429 672.784C517.717 667.271 507.917 663.486 497.62 661.655C496.919 661.655 496.869 661.204 497.62 661.227C508.434 662.076 518.719 666.024 527.106 672.547Z" fill="#263238"/>
<path d="M503.833 650.098C519.064 652.945 525.953 656.149 539.08 664.027C539.256 664.146 539.456 663.885 539.281 663.766C527.056 655.105 519.465 650.81 503.958 649.718C503.257 649.671 503.132 649.955 503.833 650.098Z" fill="#263238"/>
<path d="M512.551 637.427C527.181 641.129 534.896 644.309 546.671 653.35C546.946 653.563 547.297 653.35 547.021 652.994C537.972 643.949 525.791 638.289 512.701 637.047C511.749 636.952 511.624 637.214 512.551 637.427Z" fill="#263238"/>
<path d="M585.801 581.877C577.133 584.82 560.299 573.595 553.009 563.795C552.533 563.107 552.783 555.442 552.633 546.116C552.633 540.445 552.232 534.252 551.531 528.414L590.561 533.16C589.261 540.568 588.916 548.098 589.533 555.585C589.644 556.389 589.828 557.183 590.085 557.958C590.085 557.958 590.085 558.195 590.085 558.337C591.487 562.585 594.168 579.03 585.801 581.877Z" fill="#EB9481"/>
<path d="M590.185 558.195C590.272 558.459 590.339 558.729 590.385 559.002C567.037 558.053 558.144 548.323 552.382 538.998C552.207 535.438 551.956 531.879 551.531 528.414L590.561 533.16C589.247 540.567 588.902 548.098 589.533 555.585C589.631 556.391 589.816 557.187 590.085 557.958C590.085 557.958 590.135 558.052 590.185 558.195Z" fill="#263238"/>
<path d="M535.548 489.636C533.419 502.901 546.22 538.591 557.017 545.448C572.699 555.391 595.496 553.351 603.688 536.123C611.629 519.512 594.093 473.191 582.294 467.306C564.908 458.479 538.679 470.012 535.548 489.636Z" fill="#EB9481"/>
<path d="M571.622 505.682C571.622 505.682 571.471 505.871 571.622 505.966C572.549 508.339 573.175 511.234 571.171 512.753C571.171 512.753 571.171 512.919 571.171 512.872C573.801 511.662 572.924 507.817 571.622 505.682Z" fill="#263238"/>
<path d="M568.466 503.901C564.282 504.897 566.687 512.752 570.595 511.826C574.503 510.901 572.048 503.046 568.466 503.901Z" fill="#263238"/>
<path d="M587.279 501.217C587.279 501.217 587.529 501.217 587.554 501.383C588.231 503.756 589.433 506.556 591.988 506.722C591.988 506.722 591.988 506.841 591.988 506.864C589.057 507.268 587.504 503.661 587.279 501.217Z" fill="#263238"/>
<path d="M588.807 498.041C592.865 496.617 595.596 504.377 591.838 505.706C588.081 507.034 585.425 499.251 588.807 498.041Z" fill="#263238"/>
<path d="M564.081 501.192C565.091 500.593 566.062 499.935 566.987 499.223C568.064 498.464 569.041 497.965 569.492 496.708C569.587 496.334 569.55 495.942 569.387 495.591C569.224 495.239 568.945 494.948 568.59 494.762C567.832 494.506 567.017 494.443 566.225 494.581C565.434 494.718 564.694 495.051 564.081 495.545C562.674 496.38 561.646 497.683 561.2 499.199C561.109 499.551 561.131 499.92 561.262 500.26C561.393 500.601 561.627 500.896 561.936 501.11C562.245 501.323 562.613 501.445 562.995 501.46C563.377 501.475 563.755 501.382 564.081 501.192Z" fill="#263238"/>
<path d="M590.811 493.195C589.627 493.254 588.439 493.254 587.254 493.195C586.005 493.388 584.723 493.197 583.597 492.649C583.287 492.403 583.071 492.069 582.98 491.696C582.89 491.324 582.93 490.933 583.096 490.584C583.526 489.939 584.133 489.415 584.852 489.068C585.57 488.722 586.374 488.565 587.179 488.615C588.832 488.465 590.485 488.905 591.814 489.849C592.138 490.071 592.383 490.383 592.515 490.742C592.646 491.1 592.658 491.489 592.548 491.854C592.439 492.219 592.214 492.544 591.903 492.783C591.592 493.023 591.211 493.167 590.811 493.195Z" fill="#263238"/>
<path d="M578.06 520.25C579.01 521.029 580.117 521.616 581.315 521.975C582.512 522.335 583.775 522.458 585.025 522.338C586.125 522.237 587.204 521.989 588.231 521.603L588.807 521.365L589.358 521.128C589.485 521.061 589.586 520.96 589.649 520.836C589.712 520.713 589.733 520.575 589.709 520.44C589.719 520.361 589.719 520.281 589.709 520.203V519.989C589.183 518.114 588.131 515.243 588.131 515.243C588.958 515.409 593.141 515.955 592.766 514.982C589.939 506.583 586.212 498.481 581.643 490.801C581.643 490.54 581.092 490.801 581.192 490.991C583.697 498.775 587.755 506.06 590.486 513.843C588.99 513.642 587.472 513.642 585.977 513.843C585.726 513.985 588.131 519.206 588.306 520.084C586.735 520.691 585.05 520.989 583.353 520.961C581.657 520.932 579.984 520.577 578.436 519.918C577.985 519.87 577.835 520.108 578.06 520.25Z" fill="#263238"/>
<path opacity="0.2" d="M539.657 514.792C541.861 513.06 544.667 504.28 545.97 500.554C547.272 496.829 543.314 481.57 542.011 476.967C538.623 480.526 536.388 484.933 535.573 489.662C534.621 495.286 536.45 505.087 539.657 514.792Z" fill="#263238"/>
<path d="M576.557 481.449C575.665 483.345 574.276 484.994 572.523 486.24C570.769 487.486 568.709 488.287 566.537 488.567C564.311 488.842 562.047 488.574 559.961 487.789C557.874 487.005 556.033 485.729 554.612 484.083C554.612 483.964 554.387 484.083 554.462 484.201C555.786 486.058 557.619 487.538 559.764 488.483C561.909 489.428 564.285 489.802 566.637 489.564C568.94 489.216 571.106 488.3 572.917 486.909C574.729 485.518 576.122 483.701 576.958 481.638C576.908 481.401 576.633 481.282 576.557 481.449Z" fill="#263238"/>
<path d="M554.913 455.963C551.643 456.857 548.665 458.517 546.252 460.79C543.84 463.063 542.071 465.876 541.109 468.967C540.434 472.005 540.876 475.17 542.362 477.937C542.362 477.937 542.663 477.937 542.612 477.937C541.681 475.385 541.489 472.643 542.058 469.997C542.626 467.35 543.934 464.897 545.844 462.893C547.907 460.618 550.499 458.828 553.415 457.663C556.332 456.497 559.494 455.989 562.654 456.177C565.718 456.311 568.636 457.462 570.895 459.428C571.121 459.642 571.597 459.428 571.396 459.119C568.165 455.299 561.376 454.041 554.913 455.963Z" fill="#263238"/>
<path d="M601.133 459.452C598.944 456.407 595.687 454.196 591.939 453.211C586.753 451.835 581.918 453.567 577.058 455.395C577.058 455.395 577.058 455.632 577.058 455.584C581.017 453.741 585.455 453.024 589.834 453.52C593.501 454.2 596.814 456.041 599.229 458.74C601.12 460.943 602.301 463.617 602.629 466.439C602.957 469.262 602.418 472.115 601.077 474.655C599.737 477.195 597.651 479.314 595.07 480.76C592.49 482.205 589.523 482.914 586.528 482.802C586.378 482.802 586.327 483.063 586.528 483.063C589.536 483.26 592.542 482.654 595.205 481.315C597.868 479.975 600.082 477.956 601.595 475.485C603.108 473.014 603.859 470.191 603.764 467.337C603.669 464.482 602.732 461.709 601.058 459.334L601.133 459.452Z" fill="#263238"/>
<path d="M535.448 497.233C535.448 497.233 524.976 486.864 528.584 478.25C530.638 473.385 541.535 471.131 541.535 471.131C542.351 468.749 543.657 466.543 545.377 464.641C547.096 462.74 549.197 461.179 551.556 460.049C559.948 455.683 572.123 457.676 572.123 457.676C572.123 457.676 579.288 450.771 588.582 452.93C601.533 455.991 604.94 472.46 595.245 480.623C588.456 486.365 575.78 482.616 575.78 482.616C574.778 483.043 566.035 491.87 555.414 484.989C555.414 484.989 550.579 492.108 543.615 489.925C543.22 491.794 542.222 493.501 540.759 494.81C539.296 496.119 537.44 496.966 535.448 497.233Z" fill="#263238"/>
<path d="M548.474 518.373C548.474 518.373 537.652 507.932 532.517 511.776C527.381 515.62 536.976 531.733 544.04 533.014C544.932 533.243 545.865 533.298 546.78 533.175C547.695 533.052 548.574 532.754 549.364 532.299C550.154 531.844 550.837 531.241 551.374 530.528C551.91 529.814 552.287 529.005 552.483 528.149L548.474 518.373Z" fill="#EB9481"/>
<path d="M535.372 516.404V516.57C540.383 517.638 543.539 521.316 546.019 525.303C545.662 524.911 545.219 524.597 544.722 524.381C544.225 524.166 543.685 524.054 543.138 524.054C542.592 524.054 542.051 524.166 541.554 524.381C541.057 524.597 540.615 524.911 540.257 525.303C540.257 525.303 540.257 525.564 540.408 525.516C541.186 525.141 542.067 525.001 542.932 525.115C543.796 525.23 544.603 525.593 545.243 526.157C546.304 527.111 547.245 528.178 548.048 529.337C548.349 529.693 549.05 529.337 548.825 528.933C547.873 523.025 541.986 515.882 535.372 516.404Z" fill="#263238"/>
<path d="M590.06 557.409L581.768 579.17L552.709 553.186L545.193 562.132C545.193 562.132 574.278 604.015 574.353 602.069L582.895 583.346L596.799 595.662L594.294 563.603L590.06 557.409Z" fill="#EBEBEB"/>
<path d="M596.523 579.738C595.946 574.47 595.521 569.131 594.669 563.887C594.669 563.697 594.343 563.626 594.293 563.887C593.391 569.036 595.721 589.23 595.896 594.071C595.32 593.549 583.045 583.274 582.92 583.44C581.041 586.43 574.753 600.051 574.352 601.309C569.743 594.641 552.157 570.46 546.796 564.243C546.763 564.216 546.723 564.2 546.681 564.197C546.638 564.194 546.596 564.203 546.559 564.225C546.523 564.246 546.495 564.277 546.479 564.315C546.463 564.352 546.459 564.393 546.47 564.433C550.578 571.552 573.851 604.038 574.177 603.919C577.517 597.484 580.494 590.886 583.095 584.152C585.199 586.406 597.65 598.034 597.675 597.251C597.607 591.399 597.223 585.553 596.523 579.738Z" fill="#263238"/>
<path d="M405.306 313.109H109.75V602.161H405.306V313.109Z" fill="#01BAEF"/>
<path d="M37.6772 399.416V548.059H194.599V399.416H37.6772ZM49.5266 536.835V410.64H182.75V536.835H49.5266Z" fill="#A6A6A6"/>
<path d="M304.7 394.41C312.465 392.677 332.607 397.661 339.496 407.414C346.385 417.167 346.059 433.137 342.627 434.75C339.195 436.364 324.315 435.367 314.044 430.194C303.773 425.021 300.867 395.383 304.7 394.41Z" fill="#263238"/>
<path d="M304.675 394.454C304.424 394.454 304.374 394.003 304.675 393.979C311.514 393.718 318.854 395.806 325.392 397.491C330.812 398.568 335.933 400.71 340.423 403.78C342.493 405.347 344.18 407.321 345.365 409.566C346.55 411.812 347.206 414.274 347.287 416.784C347.811 422.856 346.672 428.953 343.98 434.486C343.98 434.628 343.604 434.486 343.655 434.486C346.636 423.665 349.166 410.471 337.742 403.305C327.997 397.112 315.697 396.566 304.675 394.454Z" fill="#263238"/>
<path d="M341.575 431.95C348.414 432.686 366.351 444.74 369.507 456.985C372.664 469.229 362.443 487.549 359.136 488.901C355.829 490.254 340.548 478.698 335.488 470.131C332.106 464.389 334.586 457.626 335.989 450.886C337.893 440.967 340.398 431.855 341.575 431.95Z" fill="#263238"/>
<path d="M331.254 468.635C329.024 456.153 336.264 443.648 340.623 432.281C340.623 432.163 340.874 432.281 340.849 432.281C338.544 443.173 331.805 453.021 331.78 464.364C331.623 467.691 332.316 471.005 333.798 474.024C335.281 477.044 337.51 479.68 340.298 481.71C345.433 485.222 351.846 486.765 357.833 488.663C358.234 488.782 357.984 489.328 357.583 489.209C345.709 485.792 333.534 481.544 331.254 468.635Z" fill="#263238"/>
<path d="M342.953 433.086C342.89 433.051 342.843 432.996 342.819 432.931C342.796 432.866 342.798 432.795 342.826 432.732C342.853 432.668 342.904 432.616 342.969 432.585C343.034 432.554 343.108 432.547 343.178 432.564C352.948 436.787 364.723 442.957 370.058 452.188C375.845 462.202 370.384 472.833 365.524 482.016C365.524 482.016 365.274 482.016 365.324 482.016C370.109 472.714 375.144 461.182 368.606 451.452C362.969 442.981 352.172 437.215 342.953 433.086Z" fill="#263238"/>
<path d="M358.21 488.594C355.126 490.97 352.587 493.917 350.748 497.254C348.909 500.592 347.808 504.25 347.513 508.005C346.511 523.002 340.323 520.653 323.739 526.205C309.71 530.951 308.282 546.447 316.75 553.234C316.75 553.234 311.313 544.264 320.507 538.735C331.48 532.114 359.212 541.108 370.76 524.331C385.691 502.642 358.21 488.594 358.21 488.594Z" fill="#263238"/>
<path d="M361.04 490.133C361.04 490.133 360.84 490.133 361.04 490.275C367.303 495.021 373.866 499.767 376.346 507.408C379.002 515.595 375.344 524.399 368.956 530.117C361.791 536.501 353.174 534.602 344.331 533.843C337.986 532.895 331.49 533.575 325.517 535.813C325.342 535.813 325.517 536.192 325.667 536.121C335.362 532.989 344.732 534.911 354.627 535.48C358.312 535.766 362.008 535.062 365.291 533.451C368.574 531.839 371.311 529.385 373.19 526.368C382.985 512.368 374.467 498.296 361.04 490.133Z" fill="#263238"/>
<path d="M310.561 387.55C311.027 387.075 311.665 386.782 312.348 386.731C313.03 386.679 313.709 386.873 314.248 387.273C314.787 387.674 315.148 388.251 315.258 388.891C315.369 389.532 315.221 390.188 314.845 390.73C312.716 393.388 308.432 390.208 310.561 387.55Z" fill="#01BAEF"/>
<path d="M308.533 391.939C308.999 391.463 309.636 391.171 310.319 391.119C311.002 391.068 311.68 391.262 312.219 391.662C312.758 392.062 313.119 392.64 313.23 393.28C313.34 393.92 313.193 394.577 312.817 395.119C310.687 397.753 306.504 394.597 308.533 391.939Z" fill="#01BAEF"/>
<path d="M305.702 395.976C306.167 395.5 306.805 395.208 307.488 395.157C308.171 395.105 308.849 395.299 309.388 395.699C309.927 396.099 310.288 396.677 310.399 397.317C310.509 397.958 310.362 398.614 309.986 399.156C309.52 399.632 308.882 399.924 308.199 399.976C307.516 400.027 306.838 399.833 306.299 399.433C305.76 399.033 305.399 398.455 305.289 397.815C305.178 397.175 305.325 396.518 305.702 395.976Z" fill="#01BAEF"/>
<path d="M302.42 399.513C302.886 399.038 303.523 398.745 304.206 398.694C304.889 398.642 305.567 398.836 306.106 399.236C306.645 399.636 307.006 400.214 307.117 400.854C307.227 401.495 307.08 402.151 306.704 402.693C304.574 405.351 300.29 402.171 302.42 399.513Z" fill="#01BAEF"/>
<path d="M298.462 402.499C300.592 399.842 304.875 403.022 302.746 405.679C302.28 406.155 301.643 406.448 300.96 406.499C300.277 406.55 299.599 406.357 299.06 405.956C298.52 405.556 298.16 404.979 298.049 404.338C297.938 403.698 298.086 403.042 298.462 402.499Z" fill="#01BAEF"/>
<path d="M294.153 404.875C294.619 404.399 295.257 404.106 295.939 404.055C296.622 404.004 297.301 404.197 297.84 404.598C298.379 404.998 298.74 405.575 298.85 406.216C298.961 406.856 298.813 407.512 298.437 408.054C296.308 410.57 292.049 407.39 294.153 404.875Z" fill="#01BAEF"/>
<path d="M290.07 452.573C278.32 466.289 215.417 509.524 162.308 508.67C144.271 508.409 94.168 435.488 84.899 407.771C78.2604 387.862 122.877 377.801 135.503 380.672C151.235 384.279 181.898 446.807 187.96 447.115C205.997 448.302 236.961 438.027 274.964 434.372C294.529 432.593 299.138 442.037 290.07 452.573Z" fill="#AD6359"/>
<path d="M86.6776 412.349C83.3207 405.419 67.5634 366.906 66.2858 357.011C65.0082 347.115 63.5302 318.308 71.4464 316.67C79.3627 315.033 80.4899 323.386 80.4899 323.386C80.4899 323.386 81.8928 311.117 90.0345 310.097C98.1762 309.077 99.5039 322.199 99.5039 322.199C99.5039 322.199 102.009 309.717 110.101 309.243C118.192 308.768 117.29 322.175 117.29 322.175C117.29 322.175 118.919 310.667 125.833 312.968C134.175 315.745 128.614 336.698 130.843 347.471C131.369 349.844 145.072 396.687 145.072 396.687L86.6776 412.349Z" fill="#AD6359"/>
<path d="M117.341 320.965C113.308 336.318 114.335 343.722 119.495 358.529C119.495 358.814 119.17 359.027 119.044 358.719C112.581 344.671 109.876 335.582 116.539 320.751C116.89 320.016 117.541 320.229 117.341 320.965Z" fill="#263238"/>
<path d="M99.8295 320.918C97.1239 337.22 98.1761 345.241 102.335 361.14C102.335 361.354 102.009 361.472 101.934 361.259C96.4225 346 93.9424 336.864 98.9277 320.918C99.1782 320.182 99.9547 320.159 99.8295 320.918Z" fill="#263238"/>
<path d="M80.7402 324.193C79.3122 340.187 80.0638 349.014 86.2264 363.94C86.245 364.009 86.2376 364.082 86.2057 364.147C86.1738 364.211 86.1192 364.263 86.0513 364.294C85.9834 364.325 85.9063 364.333 85.8332 364.316C85.76 364.299 85.6954 364.258 85.6502 364.201C77.8091 349.56 76.7821 338.525 80.2141 324.216C80.4646 323.149 80.8404 323.101 80.7402 324.193Z" fill="#263238"/>
<path d="M156.195 403.85C156.195 403.85 158.525 384.13 157.523 375.255C156.521 366.38 139.987 334.583 132.472 337.573C122.852 341.441 128.589 361.587 132.772 371.103C132.772 371.103 110.502 380.049 111.328 395.354C112.155 410.66 156.195 403.85 156.195 403.85Z" fill="#AD6359"/>
<path d="M130.267 339.475C124.179 348.967 130.517 361.14 133.849 370.656C133.906 370.796 133.926 370.946 133.908 371.094C133.89 371.243 133.834 371.385 133.746 371.508C133.657 371.632 133.538 371.733 133.399 371.804C133.26 371.875 133.105 371.912 132.947 371.914C123.879 376.256 112.405 384.87 110.902 394.932C110.886 394.979 110.854 395.02 110.811 395.05C110.768 395.079 110.717 395.095 110.664 395.095C110.612 395.095 110.56 395.079 110.517 395.05C110.475 395.02 110.443 394.979 110.426 394.932C110.426 383.921 121.023 374.595 131.269 370.443C127.712 360.737 121.925 348.279 130.192 339.428C130.217 339.357 130.317 339.404 130.267 339.475Z" fill="#263238"/>
<path d="M214.891 442.367L236.786 490.301C236.786 490.301 269.903 475.375 290.045 456.083C310.186 436.79 287.79 430.312 268.3 433.112C248.81 435.912 214.891 442.367 214.891 442.367Z" fill="#EBEBEB"/>
<path d="M290.045 456.178C270.004 475.471 236.786 490.397 236.786 490.397L230.122 475.803L296.834 439.164C299.289 443.008 297.936 448.608 290.045 456.178Z" fill="#C7C7C7"/>
<path d="M245.052 483.656C237.867 470.295 231.55 456.529 226.139 442.438C226.139 442.271 226.364 442.153 226.439 442.438C227.917 446.139 238.339 466.547 245.378 483.632C245.478 483.751 245.153 483.846 245.052 483.656Z" fill="#263238"/>
<path d="M239.867 537.19L230.874 602.162H374.443C374.443 602.162 355.454 480.31 324.791 442.841C309.46 424.118 288.918 424.616 274.388 438.925C271.206 442.034 239.141 485.436 233.479 503.352C228.544 519.227 239.867 537.19 239.867 537.19Z" fill="#EBEBEB"/>
<path d="M281.653 445.477L272.584 468.518C269.595 476.207 266.722 483.919 263.966 491.655C261.461 499.438 258.33 507.221 259.557 515.147C260.635 523.135 263.404 530.835 267.699 537.785L267.899 538.117V538.45C266.647 548.772 265.169 559.095 263.841 569.298C262.513 579.502 260.985 589.92 259.432 600.147C260.367 589.769 261.361 579.415 262.413 569.085C263.515 558.739 264.517 548.392 265.72 538.07L265.87 538.711C261.303 531.532 258.328 523.546 257.127 515.242C256.607 511.032 256.921 506.766 258.054 502.665C259.156 498.631 260.559 494.716 261.887 490.8C264.668 482.993 267.95 475.4 271.231 467.806C274.513 460.213 277.995 452.928 281.653 445.477Z" fill="#263238"/>
<path d="M261.611 475.495C261.504 476.007 261.608 476.538 261.902 476.979C262.195 477.42 262.656 477.738 263.189 477.868C263.453 477.904 263.722 477.89 263.98 477.825C264.238 477.761 264.48 477.648 264.69 477.493C264.901 477.337 265.076 477.144 265.206 476.923C265.335 476.702 265.416 476.458 265.444 476.207C265.557 475.695 265.456 475.161 265.161 474.718C264.867 474.275 264.402 473.958 263.866 473.834C263.601 473.794 263.331 473.806 263.071 473.869C262.812 473.932 262.569 474.045 262.358 474.2C262.146 474.356 261.971 474.552 261.842 474.774C261.714 474.997 261.635 475.242 261.611 475.495Z" fill="#263238"/>
<path d="M252.918 497.917C252.805 498.429 252.906 498.963 253.201 499.406C253.495 499.849 253.96 500.166 254.497 500.29C254.757 500.327 255.023 500.313 255.278 500.25C255.533 500.186 255.772 500.075 255.98 499.922C256.188 499.769 256.362 499.578 256.49 499.36C256.618 499.141 256.699 498.901 256.726 498.653C256.839 498.141 256.738 497.607 256.444 497.164C256.149 496.721 255.685 496.404 255.148 496.28C254.887 496.243 254.621 496.257 254.366 496.32C254.111 496.383 253.873 496.495 253.664 496.648C253.456 496.801 253.283 496.992 253.154 497.21C253.026 497.428 252.946 497.669 252.918 497.917Z" fill="#263238"/>
<path d="M251.816 520.794C251.703 521.306 251.804 521.84 252.099 522.283C252.393 522.726 252.858 523.043 253.394 523.167C253.657 523.204 253.924 523.19 254.18 523.127C254.437 523.064 254.677 522.953 254.888 522.8C255.098 522.648 255.274 522.456 255.404 522.238C255.535 522.02 255.618 521.779 255.649 521.53C255.756 521.018 255.652 520.487 255.359 520.046C255.065 519.604 254.604 519.286 254.071 519.157C253.809 519.12 253.542 519.134 253.285 519.197C253.029 519.26 252.788 519.371 252.578 519.524C252.368 519.676 252.192 519.867 252.061 520.086C251.93 520.304 251.847 520.545 251.816 520.794Z" fill="#263238"/>
<path d="M258.53 539.755C258.416 540.267 258.518 540.801 258.812 541.244C259.107 541.687 259.571 542.004 260.108 542.128C260.37 542.165 260.637 542.151 260.894 542.088C261.15 542.025 261.391 541.914 261.601 541.761C261.811 541.609 261.987 541.417 262.118 541.199C262.249 540.981 262.332 540.74 262.363 540.491C262.469 539.979 262.365 539.448 262.072 539.007C261.778 538.565 261.318 538.247 260.784 538.118C260.522 538.081 260.255 538.095 259.999 538.158C259.742 538.221 259.502 538.332 259.291 538.485C259.081 538.637 258.905 538.828 258.774 539.047C258.644 539.265 258.56 539.506 258.53 539.755Z" fill="#263238"/>
<path d="M255.924 560.421C255.817 560.933 255.921 561.464 256.215 561.905C256.508 562.346 256.969 562.664 257.503 562.794C257.765 562.83 258.033 562.816 258.289 562.751C258.546 562.686 258.786 562.573 258.994 562.417C259.203 562.262 259.376 562.068 259.503 561.847C259.63 561.626 259.708 561.383 259.732 561.133C259.839 560.621 259.735 560.09 259.441 559.649C259.148 559.208 258.687 558.889 258.154 558.76C257.891 558.723 257.624 558.738 257.367 558.803C257.111 558.867 256.871 558.981 256.662 559.136C256.453 559.292 256.28 559.486 256.154 559.707C256.027 559.928 255.949 560.171 255.924 560.421Z" fill="#263238"/>
<path d="M253.545 580.831C253.438 581.342 253.542 581.873 253.835 582.315C254.129 582.756 254.59 583.074 255.123 583.204C255.387 583.24 255.656 583.226 255.914 583.161C256.172 583.097 256.414 582.984 256.624 582.829C256.835 582.673 257.01 582.48 257.14 582.259C257.269 582.038 257.35 581.794 257.378 581.543C257.49 581.027 257.385 580.49 257.086 580.047C256.786 579.604 256.316 579.289 255.774 579.17C255.511 579.13 255.242 579.142 254.984 579.205C254.726 579.268 254.485 579.381 254.275 579.537C254.066 579.694 253.893 579.889 253.767 580.112C253.641 580.334 253.565 580.579 253.545 580.831Z" fill="#263238"/>
<path d="M282.304 673.327C289.544 678.073 301.719 657.476 305.852 653.086C309.986 648.696 311.789 648.838 311.539 652.184L320.958 616.779C316.073 620.362 305.727 628.075 300.216 633.153C292.826 639.94 275.064 668.676 282.304 673.327Z" fill="#AD6359"/>
<path d="M336.565 448.108C367.228 471.529 405.882 512.724 413.773 539.349C419.835 559.899 389.323 631.302 380.229 647.96C376.271 655.221 323.763 633.129 321.459 624.657C319.154 616.186 355.754 554.702 356.105 548.176C356.455 541.651 332.531 498.558 316.223 469.417C296.307 434.108 310.361 428.199 336.565 448.108Z" fill="#AD6359"/>
<path d="M287.464 693.663C292.299 698.647 302.094 692.595 302.094 692.595C302.094 692.595 293.376 702.799 300.19 706.833C307.004 710.867 316.298 702.087 316.298 702.087C316.298 702.087 308.783 711.864 315.923 715.328C323.062 718.793 332.181 711.223 332.181 711.223C332.181 711.223 331.68 714.973 337.868 715.305C346.736 715.779 359.387 702.159 364.222 693.568C369.057 684.978 380.029 650.119 381.632 644.756L323.638 614.904C323.638 614.904 322.611 615.616 320.958 616.85L311.514 652.184C311.363 654.391 304.725 667.988 302.32 671.903C296.909 680.707 282.028 688.063 287.464 693.663Z" fill="#AD6359"/>
<path d="M302.395 692.002C315.397 682.676 319.38 676.482 324.941 662.244C324.941 661.96 325.518 662.055 325.417 662.363C321.234 676.767 317.426 685.239 302.746 692.642C302.12 693.093 301.769 692.547 302.395 692.002Z" fill="#263238"/>
<path d="M315.647 702.303C328.173 691.482 332.632 684.79 339.722 670.292C339.722 670.078 340.198 670.292 340.097 670.434C334.436 685.218 330.428 693.57 316.324 702.801C315.697 703.228 315.071 702.778 315.647 702.303Z" fill="#263238"/>
<path d="M332.231 710.989C343.629 699.693 348.765 692.527 353.725 677.625C353.745 677.549 353.796 677.484 353.866 677.444C353.937 677.404 354.021 677.392 354.101 677.411C354.181 677.43 354.249 677.478 354.292 677.545C354.334 677.612 354.346 677.692 354.326 677.767C350.819 693.429 344.481 702.399 332.632 711.273C331.805 711.843 331.555 711.653 332.231 710.989Z" fill="#263238"/>
<path d="M330.678 512.204L374.944 480.809C374.944 480.809 351.947 453.757 327.472 439.662C302.996 425.566 301.493 447.777 309.009 465.1C316.524 482.423 330.678 512.204 330.678 512.204Z" fill="#EBEBEB"/>
<path d="M366.101 474.852C354.036 484.562 341.362 493.572 328.148 501.833C327.998 501.833 327.822 501.69 327.972 501.572C331.455 499.341 349.993 484.961 365.925 474.567C366.101 474.449 366.276 474.71 366.101 474.852Z" fill="#263238"/>
<path d="M322.887 494.453C320.207 488.734 316.524 480.405 313.468 474.828C313.468 474.828 313.292 474.828 313.317 474.828C314.52 478.079 315.823 481.33 317.301 484.534C317.201 484.362 317.092 484.196 316.975 484.035C315.873 482.54 314.72 481.069 313.493 479.645C314.42 481.259 315.422 482.849 316.499 484.391C317.175 485.364 317.902 486.29 318.628 487.215C319.405 488.9 321.133 493.076 321.96 494.761C323.263 497.585 329.626 513.484 329.901 513.294C331.454 512.329 332.943 511.275 334.361 510.138C334.586 509.972 334.361 509.592 334.035 509.758C333.233 510.399 331.229 511.657 330.903 511.894C329.475 509.023 328.398 505.985 326.97 503.043C325.542 500.1 324.265 497.419 322.887 494.453Z" fill="#263238"/>
<path d="M304.274 433.893C303.522 436.266 290.32 451.548 278.571 450.504C274.738 450.124 275.941 430.238 275.941 430.238L275.665 428.767L271.958 407.933L298.362 393.695L302.169 391.844C302.169 391.844 302.771 397.61 303.472 404.776C303.472 405.109 303.472 405.441 303.472 405.797C303.472 406.153 303.472 406.58 303.597 406.96C303.723 408.051 303.823 409.143 303.923 410.234C304.023 411.326 304.073 411.872 304.123 412.75C304.174 413.628 304.123 414.482 304.299 415.36C304.731 421.531 304.722 427.723 304.274 433.893Z" fill="#AD6359"/>
<path d="M303.472 404.709C300.937 410.36 297.138 415.423 292.338 419.548C287.537 423.674 281.849 426.764 275.665 428.605L271.958 407.77L298.362 393.533L302.169 391.682C302.169 391.682 302.771 397.543 303.472 404.709Z" fill="#263238"/>
<path d="M244.426 371.202C236.459 407.484 258.53 416.098 266.772 417.712C274.287 419.159 300.015 423.265 311.864 387.931C323.713 352.597 308.432 337.648 291.447 333.353C274.462 329.057 252.367 334.895 244.426 371.202Z" fill="#AD6359"/>
<path d="M257.352 362.633C258.254 362.681 259.157 362.681 260.058 362.633C261.011 362.715 261.968 362.508 262.788 362.04C263.012 361.84 263.16 361.577 263.21 361.289C263.259 361.002 263.208 360.707 263.064 360.45C262.696 359.981 262.203 359.613 261.635 359.383C261.067 359.154 260.445 359.072 259.832 359.145C258.572 359.117 257.346 359.541 256.4 360.332C256.226 360.525 256.11 360.759 256.065 361.009C256.021 361.26 256.049 361.517 256.147 361.753C256.244 361.99 256.408 362.197 256.621 362.352C256.833 362.507 257.086 362.604 257.352 362.633Z" fill="#263238"/>
<path d="M283.681 368.211C282.805 367.95 282.028 367.594 281.176 367.261C280.244 367.038 279.41 366.539 278.796 365.838C278.651 365.579 278.601 365.282 278.656 364.993C278.71 364.705 278.866 364.442 279.097 364.248C279.605 363.923 280.196 363.732 280.807 363.694C281.419 363.657 282.031 363.774 282.579 364.034C283.779 364.399 284.79 365.178 285.41 366.217C285.533 366.462 285.58 366.734 285.546 367.003C285.511 367.272 285.397 367.526 285.215 367.735C285.034 367.944 284.793 368.1 284.521 368.184C284.25 368.269 283.958 368.278 283.681 368.211Z" fill="#263238"/>
<path d="M276.918 376.068C276.918 376.068 277.093 376.211 277.068 376.306C276.467 378.679 276.241 381.692 278.446 382.95C278.446 382.95 278.446 383.116 278.446 383.092C275.59 382.167 275.941 378.299 276.918 376.068Z" fill="#263238"/>
<path d="M279.773 374.024C284.032 374.475 282.729 382.543 278.796 382.092C274.863 381.641 276.191 373.502 279.773 374.024Z" fill="#263238"/>
<path d="M281.452 374.572C282.104 375.118 282.705 376.044 283.607 376.257C284.508 376.471 285.536 375.759 286.337 375.047C286.337 375.047 286.488 375.047 286.463 375.166C286.237 376.708 285.36 378.203 283.582 378.179C281.803 378.156 281.076 376.637 280.876 375.023C280.776 374.715 281.102 374.335 281.452 374.572Z" fill="#263238"/>
<path d="M260.81 372.579C260.81 372.46 260.584 372.579 260.584 372.769C260.284 375.142 259.482 378.108 256.977 378.606V378.748C259.958 378.772 260.96 374.999 260.81 372.579Z" fill="#263238"/>
<path d="M258.906 369.636C254.722 368.758 253.144 376.755 257.027 377.585C260.91 378.416 262.363 370.371 258.906 369.636Z" fill="#263238"/>
<path d="M257.002 369.848C256.25 370.156 255.424 370.821 254.622 370.726C253.82 370.631 253.169 369.634 252.743 368.709C252.743 368.709 252.618 368.709 252.593 368.709C252.242 370.251 252.468 371.936 253.971 372.506C255.474 373.075 256.626 371.889 257.302 370.418C257.428 370.204 257.302 369.729 257.002 369.848Z" fill="#263238"/>
<path d="M261.411 384.345C261.411 384.345 260.208 387.976 259.908 389.732C259.908 389.898 260.308 390.04 260.935 390.182C262.476 390.708 264.142 390.82 265.746 390.506C267.351 390.192 268.833 389.464 270.028 388.403C270.179 388.26 270.028 388.047 269.803 388.118C267.177 389.281 264.223 389.605 261.386 389.043C261.386 388.545 263.64 382.897 263.34 382.826C261.882 382.722 260.416 382.802 258.981 383.064C261.235 375.423 264.743 368.185 266.872 360.544C266.895 360.484 266.892 360.418 266.864 360.36C266.836 360.302 266.785 360.258 266.722 360.236C266.658 360.213 266.589 360.216 266.528 360.243C266.467 360.27 266.419 360.318 266.396 360.378C262.371 368.02 259.165 376.026 256.826 384.274C256.676 385.247 260.709 384.511 261.411 384.345Z" fill="#263238"/>
<path d="M273.586 338.029C272.437 341.079 272.271 344.383 273.11 347.521C276.417 356.088 287.063 354.877 290.295 358.437C293.527 361.996 291.523 367.929 294.228 371.275C298.011 375.855 303.873 374.739 304.249 377.634C304.624 380.529 305.727 389.736 309.434 391.231C313.142 392.726 336.64 334.28 286.638 331.717C286.638 331.717 280.074 328.466 268.951 332.548C256.701 337.08 249.762 354.854 249.762 354.854C249.762 354.854 250.038 354.616 251.891 353.359C254.396 351.555 255.599 349.799 257.503 348.613C260.484 346.833 261.912 347.735 265.018 346.003C268.365 343.863 271.269 341.161 273.586 338.029Z" fill="#263238"/>
<path d="M274.613 335.486C273.58 337.765 272.848 340.156 272.434 342.605C271.855 344.963 271.976 347.427 272.784 349.724C273.875 351.865 275.755 353.553 278.07 354.47C280.35 355.514 283.08 355.989 285.41 357.175C286.672 357.792 287.736 358.718 288.492 359.857C289.126 361.03 289.502 362.314 289.594 363.63C289.632 366.024 290.36 368.362 291.698 370.393C292.453 371.346 293.418 372.132 294.525 372.697C295.632 373.263 296.856 373.594 298.111 373.668C300.726 373.497 303.349 373.861 305.802 374.735C303.296 374.057 300.667 373.887 298.086 374.237C296.718 374.21 295.371 373.903 294.139 373.338C292.907 372.773 291.818 371.962 290.947 370.962C289.41 368.865 288.54 366.395 288.442 363.843C288.333 362.678 287.993 361.543 287.439 360.497C286.769 359.549 285.844 358.787 284.759 358.291C282.58 357.175 279.949 356.63 277.544 355.514C276.312 354.954 275.173 354.226 274.162 353.355C273.118 352.486 272.317 351.385 271.832 350.151C271.094 347.685 271.094 345.072 271.832 342.605C272.451 340.134 273.385 337.744 274.613 335.486Z" fill="#263238"/>
<path d="M273.436 337.553C272.712 339.767 271.684 341.881 270.379 343.841C269.067 345.905 267.141 347.555 264.843 348.587C263.692 349.011 262.501 349.329 261.286 349.536C260.202 349.768 259.205 350.277 258.405 351.007C257.662 351.946 256.822 352.812 255.9 353.594C254.918 354.322 253.767 354.818 252.543 355.042C253.647 354.617 254.646 353.979 255.474 353.167C256.268 352.319 256.981 351.406 257.603 350.438C258.447 349.471 259.598 348.788 260.885 348.492C262.04 348.263 263.172 347.937 264.267 347.519C266.359 346.56 268.153 345.105 269.477 343.295C270.936 341.471 272.259 339.552 273.436 337.553Z" fill="#263238"/>
<path d="M301.618 386.082C301.618 386.082 311.914 375.854 316.924 379.485C321.935 383.115 312.941 398.801 306.152 400.153C305.292 400.381 304.392 400.441 303.506 400.331C302.62 400.221 301.767 399.943 300.997 399.513C300.228 399.083 299.558 398.51 299.027 397.829C298.497 397.148 298.117 396.373 297.91 395.55L301.618 386.082Z" fill="#AD6359"/>
<path d="M314.219 383.923C314.219 383.923 314.219 384.065 314.219 384.089C309.409 385.18 306.403 388.835 304.199 392.655C304.529 392.266 304.944 391.95 305.416 391.728C305.888 391.506 306.405 391.384 306.932 391.37C307.459 391.357 307.982 391.452 308.466 391.649C308.95 391.847 309.383 392.141 309.735 392.513C309.86 392.513 309.735 392.75 309.585 392.703C308.831 392.348 307.978 392.226 307.147 392.354C306.316 392.482 305.548 392.853 304.95 393.415C303.937 394.344 303.038 395.379 302.27 396.499C301.994 396.855 301.318 396.499 301.543 396.12C302.27 390.638 307.956 383.519 314.219 383.923Z" fill="#263238"/>
<path d="M275.64 431.807L281.176 448.703L304.424 429.719L309.935 436.838C309.935 436.838 286.136 468.113 286.111 466.618L280.199 451.977L269.101 460.995L272.032 436.434L275.64 431.807Z" fill="#EBEBEB"/>
<path d="M269.828 448.677C270.454 444.643 270.955 440.561 271.782 436.551C271.782 436.409 272.058 436.361 272.083 436.551C272.609 440.538 270.104 455.986 269.803 459.711C270.279 459.331 280.074 451.809 280.149 451.952C281.502 454.325 285.861 464.979 286.136 465.952C289.894 460.969 304.249 442.958 308.683 438.307C308.808 438.188 309.033 438.307 308.933 438.473C305.526 443.765 286.387 468.064 286.237 467.969C283.905 462.907 281.848 457.735 280.074 452.474C278.371 454.158 268.4 462.725 268.425 462.108C268.641 457.61 269.109 453.127 269.828 448.677Z" fill="#263238"/>
<path d="M749.386 123.365H425.247V430.404H749.386V123.365Z" fill="#DBDBDB"/>
<path d="M563.455 45.5586V252.411H781.827V45.5586H563.455ZM769.953 241.139H575.304V56.7828H769.953V241.139Z" fill="#263238"/>
<path d="M532.442 305.799L549.978 306.961C555.558 297.812 558.016 287.253 557.017 276.73C556.817 274.357 562.153 288.357 558.846 307.578C577.359 308.789 602.561 310.45 624.556 311.707C625.382 303.568 626.535 296.069 626.535 296.069C626.979 301.446 627.926 306.774 629.365 311.992C632.372 312.182 635.328 312.324 638.159 312.467C638.585 300.877 639.689 289.319 641.465 277.845C642.471 289.997 645.577 301.909 650.659 313.107C664.663 313.772 673.857 313.962 673.205 313.297C653.164 289.401 669.297 276.825 664.237 256.346C658.2 231.786 636.305 226.968 637.833 208.886C639.06 194.079 642.292 167.288 622.802 160.668C617.729 155.496 611.166 151.847 603.926 150.173C596.686 148.498 589.087 148.872 582.068 151.247C550.278 161.213 560.449 207.463 557.869 216.67C554.186 229.816 547.272 234.206 541.56 249.156C535.849 264.105 542.638 274.76 542.963 285.177C543.289 295.595 528.935 305.609 532.442 305.799Z" fill="#263238"/>
<path d="M674.132 309.957C671.437 305.828 669.363 301.363 667.97 296.692C666.936 292.067 667.187 287.268 668.696 282.762C670.062 277.98 671.158 273.133 671.978 268.24C672.8 263.131 672.527 257.917 671.176 252.91C669.708 247.896 667.042 243.268 663.385 239.384C659.841 235.693 655.978 232.288 651.836 229.204C647.829 226.252 644.25 222.813 641.19 218.977C638.26 214.989 636.528 210.322 636.179 205.475C635.736 210.502 636.906 215.539 639.536 219.926C642.308 224.203 645.745 228.059 649.732 231.364C653.529 234.583 657.102 238.031 660.429 241.686C663.572 245.257 665.87 249.424 667.168 253.907C668.327 258.449 668.599 263.154 667.97 267.789C667.443 272.535 666.291 277.281 665.464 282.027C664.976 284.518 664.691 287.04 664.613 289.573C664.596 292.163 665.071 294.735 666.016 297.166C667.904 301.85 670.651 306.18 674.132 309.957Z" fill="#263238"/>
<path d="M563.505 167.578C561.083 173.199 559.401 179.081 558.495 185.091C557.418 191.047 556.641 196.956 555.99 203.054L554.863 212C554.546 214.889 553.934 217.742 553.034 220.519C550.916 225.989 547.777 231.053 543.765 235.469C541.754 237.911 539.921 240.479 538.279 243.157C536.629 245.909 535.318 248.831 534.371 251.866C533.528 254.881 532.916 257.951 532.542 261.05C532.133 264.202 532.133 267.389 532.542 270.541C532.968 273.65 533.744 276.616 534.371 279.511C535.007 282.393 535.359 285.324 535.423 288.268C535.371 291.216 534.581 294.111 533.118 296.715C531.655 299.318 529.56 301.555 527.006 303.241C529.896 301.756 532.357 299.619 534.17 297.02C535.983 294.422 537.093 291.44 537.402 288.339C537.603 285.25 537.477 282.149 537.026 279.084C536.6 276.047 535.949 273.104 535.749 270.209C535.39 264.399 536.162 258.575 538.028 253.029C538.957 250.298 540.182 247.665 541.686 245.174C543.275 242.653 545.041 240.235 546.971 237.937C548.976 235.511 550.841 232.984 552.558 230.367C554.311 227.663 555.7 224.761 556.691 221.729C557.57 218.711 558.14 215.62 558.395 212.499C558.721 209.461 558.921 206.447 559.121 203.434C559.547 197.406 559.873 191.403 560.474 185.423C560.825 179.391 561.841 173.41 563.505 167.578Z" fill="#263238"/>
<path d="M716.444 421.982C716.444 421.626 716.444 421.27 716.243 420.914C716.343 421.353 716.418 421.797 716.469 422.243C716.473 422.155 716.464 422.067 716.444 421.982Z" fill="#01BAEF"/>
<path d="M653.715 432.498C653.921 432.628 654.139 432.739 654.366 432.83V432.664L653.69 432.522L653.715 432.498Z" fill="#01BAEF"/>
<path d="M564.082 266.389C524.701 308.343 477.028 394.885 487.725 411.425C499.624 429.839 556.416 370.088 554.462 367.383C552.808 365.01 571.271 313.326 584.699 275.477C598.126 237.628 573.826 256.019 564.082 266.389Z" fill="#D3766A"/>
<path d="M564.082 266.389C524.701 308.343 477.028 394.885 487.725 411.425C499.624 429.839 556.416 370.088 554.462 367.383C552.808 365.01 571.271 313.326 584.699 275.477C598.126 237.628 573.826 256.019 564.082 266.389Z" fill="#455A64"/>
<path d="M569.393 318.902C565.535 329.936 562.028 340.259 559.372 348.564C553.285 348.825 535.473 347.9 516.985 331.052C522.547 321.726 528.559 312.353 534.772 303.383C543.995 312.293 556.271 317.796 569.393 318.902Z" fill="#EBEBEB"/>
<path d="M526.104 430.55L535.974 367.073C535.974 367.073 520.141 340.971 529.335 321.987C533.97 312.495 565.81 265.89 582.945 254.096C599.028 243.038 621.073 253.123 628.564 262.734C650.108 290.403 660.604 340.188 672.629 430.479L526.104 430.55Z" fill="#455A64"/>
<path d="M554.938 283.425C551.681 287.649 548.524 291.944 545.418 296.287C546.27 294.602 547.122 292.917 547.923 291.232C547.923 291.114 547.923 290.995 547.748 291.232C546.595 293.344 545.518 295.48 544.491 297.639C540.333 303.445 536.308 309.346 532.416 315.342C530.727 317.85 529.293 320.503 528.133 323.267C527.081 325.977 526.383 328.798 526.053 331.668C525.69 334.542 525.64 337.445 525.903 340.329C526.107 343.292 526.55 346.235 527.231 349.133C528.001 352.432 529.091 355.658 530.487 358.767C531.189 360.286 531.915 361.781 532.717 363.276C533.519 364.771 534.896 367.357 534.896 367.452C534.596 368.971 534.295 370.039 534.095 371.32C533.894 372.602 533.669 373.93 533.468 375.236C533.043 377.846 529.485 403.189 529.084 405.8C528.283 410.973 527.581 416.146 526.905 421.342C526.529 424.332 526.304 427.322 525.878 430.289C525.878 430.407 526.053 430.455 526.078 430.289C526.529 427.702 527.206 425.163 527.682 422.576C528.158 419.99 528.684 417.403 529.21 414.817C530.237 409.596 534.22 381.595 535.072 376.351C535.322 374.903 535.548 373.456 535.798 371.985C536.135 370.422 536.328 368.834 536.375 367.239C533.678 361.997 531.4 356.572 529.56 351.008C528.683 348.18 528.038 345.292 527.632 342.37C527.344 339.521 527.344 336.652 527.632 333.803C527.878 330.944 528.458 328.118 529.36 325.379C530.368 322.593 531.66 319.907 533.218 317.359C536.425 311.972 539.832 306.68 543.239 301.436C547.147 295.488 551.121 289.563 555.163 283.663C555.163 283.663 555.013 283.33 554.938 283.425Z" fill="#263238"/>
<path d="M487.725 411.426C497.745 423.647 523.373 424.809 587.554 433.447C596.423 434.657 622.2 377.563 612.781 375.831C600.932 373.624 554.412 367.549 550.954 367.526C521.77 367.194 480.886 403.144 487.725 411.426Z" fill="#D3766A"/>
<path d="M599.93 373.691C599.93 373.691 627.06 376.231 640.889 381.736C655.141 387.796 667.624 397.047 677.263 408.693C687.685 421.198 703.718 458.288 693.246 464.529C683.777 470.177 669.397 431.473 669.397 431.473C669.397 431.473 690.916 468.634 678.19 473.451C665.464 478.268 651.461 432.446 651.461 432.446C651.461 432.446 672.679 471.102 658.725 474.092C648.179 476.465 633.048 435.555 633.048 435.555C633.048 435.555 651.035 468.895 640.288 471.648C628.413 474.709 611.955 437.88 611.955 437.88C583.396 440.562 568.616 430.761 558.996 422.622C556.541 420.653 599.93 373.691 599.93 373.691Z" fill="#D3766A"/>
<path d="M662.683 418.184C665.389 422.455 668.145 426.774 670.424 431.259C672.704 435.744 674.833 440.323 676.662 444.998C679.201 451.053 680.983 457.369 681.973 463.816C679.318 452.497 671.401 436.313 669.097 431.805C666.792 427.296 664.788 422.74 662.508 418.255L662.683 418.184Z" fill="#263238"/>
<path d="M645.423 425.71C648.605 431.31 652.012 436.768 654.943 442.487C657.874 448.206 659.953 453.877 662.458 459.762C662.659 460.213 662.458 460.166 662.108 459.762C659.377 453.972 656.371 448.823 653.565 443.151C650.759 437.48 648.179 431.547 645.148 425.9C645.223 425.662 645.373 425.615 645.423 425.71Z" fill="#263238"/>
<path d="M629.365 429.623C634.509 438.101 638.707 447.064 641.891 456.366C642.066 456.817 641.665 456.722 641.465 456.248C637.482 447.301 634.451 440.23 629.115 429.813C628.989 429.647 629.265 429.457 629.365 429.623Z" fill="#263238"/>
<path d="M620.422 374.142L567.589 433.04C567.589 433.04 495.441 428.294 487.124 410.259C478.807 392.224 533.744 366.003 550.879 367.546C568.015 369.088 620.422 374.142 620.422 374.142Z" fill="#455A64"/>
<path d="M523.073 375.237C527.231 372.532 539.005 366.173 550.879 367.43V367.62C541.134 367.905 527.406 373.102 523.173 375.38C523.072 375.451 522.972 375.285 523.073 375.237Z" fill="#263238"/>
<path d="M556.416 422.862C577.183 402.027 595.671 377.135 599.228 373.03C599.379 372.84 599.028 372.603 598.878 372.792C595.621 377.016 571.321 403.285 556.04 422.625C555.864 422.838 556.215 423.052 556.416 422.862Z" fill="#263238"/>
<path d="M501.682 294.341L478.263 402.988L566.355 420.026L589.774 311.378L501.682 294.341Z" fill="#01BAEF"/>
<path d="M568.156 301.331L526.414 293.215L523.815 305.209L565.557 313.326L568.156 301.331Z" fill="#EBEBEB"/>
<path d="M558.645 299.538L553.509 298.518L554.687 293.012L542.211 290.568L541.009 296.097L535.873 295.1L538.053 285.039L560.9 289.477L558.645 299.538Z" fill="#EBEBEB"/>
<path d="M639.11 275.974C681.547 327.112 697.555 419.112 674.007 426.231C652.488 432.78 563.981 411.803 537.602 403.308C529.861 400.816 553.785 343.794 562.077 346.357C572.098 349.56 626.81 361.852 627.887 361.876C630.167 361.876 617.992 305.352 612.856 279.7C605.491 244.01 623.177 256.753 639.11 275.974Z" fill="#D3766A"/>
<path d="M491.307 324.953C490.048 326.408 489.291 328.195 489.139 330.07C488.986 331.946 489.446 333.821 490.455 335.442C487.222 336.364 484.431 338.329 482.564 340.994C479.508 345.74 486.197 352.503 486.197 352.503C483.048 354.121 480.49 356.603 478.857 359.622C476.351 364.534 482.163 372.175 482.163 372.175C480.137 375.164 479.319 378.746 479.859 382.261C481.713 391.61 495.967 396.925 504.91 400.39C513.853 403.855 542.988 405.634 548.474 406.512L572.424 351.768C572.424 351.768 536.575 325.357 525.327 322.699C515.983 320.468 496.343 319.448 491.307 324.953Z" fill="#D3766A"/>
<path d="M491.232 334.729C501.904 334.729 511.949 337.861 522.17 340.376C522.396 340.376 522.17 340.756 522.17 340.708C512.15 338.098 501.478 337.434 491.257 335.203C491.191 335.206 491.125 335.184 491.076 335.142C491.027 335.1 490.997 335.041 490.994 334.978C490.991 334.915 491.014 334.853 491.058 334.806C491.103 334.76 491.165 334.732 491.232 334.729Z" fill="#263238"/>
<path d="M486.698 351.861C489.116 352.093 491.492 352.628 493.762 353.45C496.267 354.186 498.772 354.945 501.077 355.823C506.087 357.437 510.772 359.169 515.557 361.02C515.757 361.02 515.557 361.424 515.557 361.352C510.697 359.77 505.812 358.26 500.902 356.82C498.397 356.108 495.892 355.42 493.512 354.756C491.13 354.268 488.812 353.536 486.598 352.572C486.548 352.566 486.501 352.551 486.458 352.527C486.414 352.504 486.377 352.472 486.347 352.435C486.316 352.397 486.294 352.354 486.281 352.309C486.268 352.263 486.265 352.216 486.272 352.169C486.278 352.122 486.295 352.077 486.32 352.036C486.345 351.996 486.378 351.96 486.417 351.931C486.457 351.903 486.502 351.882 486.55 351.869C486.598 351.857 486.648 351.854 486.698 351.861Z" fill="#263238"/>
<path d="M482.364 372.199C484.551 372.453 486.677 373.055 488.652 373.979C490.832 374.762 493.061 375.521 495.266 376.352C499.675 377.847 504.109 379.366 508.568 380.718C508.606 380.732 508.639 380.756 508.663 380.788C508.686 380.82 508.699 380.857 508.699 380.896C508.699 380.935 508.686 380.973 508.663 381.005C508.639 381.036 508.606 381.061 508.568 381.074C504.034 379.698 499.449 378.393 494.915 376.993L488.251 374.881C486.152 374.438 484.156 373.634 482.364 372.508C482.343 372.508 482.322 372.504 482.302 372.496C482.282 372.488 482.264 372.477 482.249 372.463C482.234 372.448 482.222 372.431 482.214 372.412C482.206 372.394 482.201 372.374 482.201 372.353C482.201 372.333 482.206 372.313 482.214 372.294C482.222 372.276 482.234 372.259 482.249 372.244C482.264 372.23 482.282 372.219 482.302 372.211C482.322 372.203 482.343 372.199 482.364 372.199Z" fill="#263238"/>
<path d="M627.161 359.572C627.837 359.169 615.136 304.59 610.878 276.091C606.619 247.591 620.046 250.344 639.361 274.691C660.078 300.794 696.979 371.413 684.178 423.714C680.044 440.657 551.957 416.927 551.957 416.927L569.217 347.185C569.217 347.185 626.034 360.165 627.161 359.572Z" fill="#455A64"/>
<path d="M679.292 354.402C658.4 360.192 635.728 357.25 626.484 355.612C625.156 348.755 621.925 333.9 618.618 317.858C640.563 320.231 655.444 317.194 663.585 314.607C669.918 327.46 675.17 340.766 679.292 354.402Z" fill="#EBEBEB"/>
<path d="M568.641 409.761C576.432 385.461 580.716 358.837 581.818 354.233C581.818 354.02 581.492 353.972 581.467 354.233C580.64 358.789 572.223 388.736 568.24 409.737C568.19 409.927 568.566 409.974 568.641 409.761Z" fill="#263238"/>
<path d="M651.16 367.643C648.655 367.24 583.296 349.798 569.017 347.686C568.791 347.686 569.017 346.951 569.217 346.998C597.275 351.642 624.951 358.16 652.037 366.504C655.294 367.738 655.77 368.403 651.16 367.643Z" fill="#263238"/>
<path d="M626.459 360.121C626.459 360.121 622.151 339.096 621.449 337.791C620.748 336.486 618.944 333.449 618.243 332.048C616.815 329.225 615.587 326.33 614.284 323.458C614.284 323.221 614.56 323.055 614.66 323.292C616.088 326.045 617.741 328.703 619.42 331.337C620.247 332.618 621.073 333.923 621.925 335.181C621.925 335.181 617.892 314.773 617.316 311.166C617.316 310.905 617.566 310.81 617.666 311.166C618.894 314.797 627.462 355.873 628.639 360.429C627.905 360.377 627.177 360.274 626.459 360.121Z" fill="#263238"/>
<path d="M578.261 421.246C573.977 420.131 556.867 417.521 552.708 416.951C553.483 414.04 553.985 411.071 554.211 408.076C554.194 408.047 554.169 408.022 554.138 408.005C554.107 407.988 554.072 407.979 554.036 407.979C554 407.979 553.965 407.988 553.934 408.005C553.903 408.022 553.878 408.047 553.861 408.076C552.552 411.384 551.505 414.778 550.729 418.233C550.729 418.565 573.776 421.318 578.286 421.531C578.336 421.484 578.386 421.294 578.261 421.246Z" fill="#263238"/>
<path d="M572.524 259.243C572.524 259.243 574.227 275.285 588.281 277.776C602.335 280.268 628.564 262.803 628.564 262.803C624.958 258.659 620.445 255.308 615.336 252.98C610.228 250.653 604.646 249.405 598.978 249.324C580.665 249.301 572.524 259.243 572.524 259.243Z" fill="#D3766A"/>
<path d="M612.832 254.758C612.08 257.131 598.828 272.366 587.079 271.203C583.246 270.8 584.574 250.914 584.574 250.914L584.323 249.443L580.691 228.608L607.145 214.37L610.953 212.52C610.953 212.52 611.554 218.286 612.205 225.476C612.205 225.808 612.205 226.14 612.205 226.496C612.205 226.852 612.205 227.279 612.331 227.659C612.331 228.727 612.556 229.819 612.631 230.91C612.706 232.002 612.782 232.571 612.832 233.425L612.982 236.036C613.383 242.273 613.333 248.528 612.832 254.758Z" fill="#D3766A"/>
<path d="M612.13 225.571C609.586 231.226 605.774 236.289 600.96 240.411C596.146 244.533 590.444 247.615 584.248 249.443L580.615 228.608L607.07 214.37L610.878 212.52C610.878 212.52 611.504 218.381 612.13 225.571Z" fill="#263238"/>
<path d="M555.213 189.717C544.917 225.454 566.386 235.349 574.528 237.438C582.043 239.336 607.32 244.913 621.474 210.362C635.628 175.812 621.324 159.96 604.64 154.763C587.956 149.566 565.51 153.956 555.213 189.717Z" fill="#D3766A"/>
<path d="M568.816 182.716C569.743 182.716 570.595 182.716 571.522 182.716C572.465 182.864 573.433 182.714 574.278 182.289C574.524 182.111 574.697 181.858 574.77 181.573C574.843 181.288 574.811 180.988 574.678 180.723C574.349 180.234 573.887 179.837 573.34 179.574C572.794 179.312 572.184 179.192 571.572 179.228C570.31 179.11 569.048 179.449 568.04 180.177C567.803 180.352 567.627 180.591 567.535 180.861C567.442 181.132 567.437 181.423 567.521 181.696C567.605 181.969 567.773 182.212 568.004 182.394C568.234 182.576 568.518 182.688 568.816 182.716Z" fill="#263238"/>
<path d="M595.721 186.275C594.863 185.97 594.027 185.613 593.216 185.207C592.291 184.959 591.479 184.424 590.912 183.689C590.781 183.425 590.747 183.128 590.815 182.844C590.883 182.561 591.049 182.307 591.287 182.123C591.816 181.819 592.423 181.658 593.041 181.658C593.659 181.658 594.266 181.819 594.795 182.123C595.982 182.559 596.949 183.407 597.5 184.495C597.58 184.734 597.591 184.988 597.532 185.232C597.473 185.476 597.346 185.701 597.165 185.882C596.983 186.064 596.754 186.196 596.5 186.265C596.246 186.334 595.977 186.338 595.721 186.275Z" fill="#263238"/>
<path d="M587.079 197.711C587.079 197.711 587.229 197.877 587.079 197.972C586.352 200.345 585.976 203.311 588.106 204.664C588.106 204.664 588.106 204.83 588.106 204.782C585.425 203.738 586.002 199.894 587.079 197.711Z" fill="#263238"/>
<path d="M590.06 195.697C594.319 196.362 592.565 204.358 588.657 203.718C584.749 203.077 586.528 195.128 590.06 195.697Z" fill="#263238"/>
<path d="M591.638 196.434C592.264 197.027 592.815 197.976 593.692 198.237C594.569 198.498 595.646 197.834 596.498 197.17C596.498 197.17 596.648 197.17 596.498 197.288C596.172 198.831 595.22 200.278 593.441 200.16C591.663 200.041 590.936 198.475 590.936 196.861C591.036 196.576 591.387 196.197 591.638 196.434Z" fill="#263238"/>
<path d="M571.547 192.828C571.547 192.828 571.321 192.828 571.296 193.018C570.82 195.51 569.843 198.262 567.288 198.594V198.737C570.244 198.95 571.522 195.272 571.547 192.828Z" fill="#263238"/>
<path d="M569.818 189.788C565.685 188.626 563.556 196.528 567.313 197.595C571.071 198.663 573.275 190.761 569.818 189.788Z" fill="#263238"/>
<path d="M567.94 189.885C567.163 190.146 566.311 190.739 565.435 190.597C564.558 190.454 564.057 189.41 563.706 188.461C563.706 188.461 563.581 188.461 563.556 188.461C563.105 189.956 563.205 191.664 564.658 192.329C566.111 192.993 567.338 191.878 568.14 190.478C568.366 190.264 568.24 189.79 567.94 189.885Z" fill="#263238"/>
<path d="M580.415 216.417C579.689 216.891 578.937 217.603 577.91 217.532C576.941 217.365 576.02 217.01 575.204 216.488C575.204 216.488 575.029 216.488 575.054 216.488C575.348 217.034 575.792 217.496 576.338 217.826C576.884 218.156 577.513 218.341 578.16 218.363C578.73 218.317 579.272 218.112 579.718 217.774C580.164 217.436 580.494 216.98 580.665 216.464C580.716 216.417 580.54 216.346 580.415 216.417Z" fill="#263238"/>
<path d="M571.597 205.238C571.597 205.238 570.219 208.821 569.818 210.553C569.818 210.719 570.194 210.885 570.82 211.051C572.328 211.656 573.984 211.852 575.603 211.617C577.222 211.382 578.74 210.727 579.989 209.723C580.164 209.58 579.989 209.367 579.763 209.438C577.08 210.464 574.118 210.639 571.321 209.936C571.321 209.438 573.826 203.909 573.626 203.814C572.171 203.625 570.696 203.625 569.242 203.814C571.922 196.292 575.83 189.244 578.361 181.721C578.361 181.437 578.035 181.271 577.91 181.508C573.47 188.944 569.828 196.782 567.037 204.905C566.712 205.902 570.795 205.38 571.597 205.238Z" fill="#263238"/>
<path d="M571.547 210.502C572.244 212.085 573.356 213.474 574.778 214.536C575.579 215.092 576.541 215.399 577.534 215.414C579.688 215.414 580.239 213.658 580.29 212.068C580.311 211.223 580.227 210.379 580.039 209.553C577.385 210.71 574.412 211.042 571.547 210.502Z" fill="#263238"/>
<path d="M574.778 214.539C575.578 215.096 576.541 215.403 577.534 215.417C579.688 215.417 580.239 213.661 580.289 212.071C579.212 211.851 578.088 211.974 577.092 212.42C576.095 212.866 575.282 213.611 574.778 214.539Z" fill="#FF9CBD"/>
<path d="M619.37 209.767C615.336 208.415 607.896 194.841 613.257 176.023C613.257 176.023 609.675 193.251 610.276 196.075C610.877 198.899 606.117 188.434 610.276 173.2C604.22 175.251 597.884 176.466 591.462 176.807C583.346 176.807 578.736 175.43 578.361 174.766C577.985 174.101 590.06 173.817 594.043 171.349C594.043 171.349 571.346 174.742 561.902 172.891C560.825 172.678 565.835 151.534 582.795 146.575C599.754 141.615 619.47 157.301 623.879 164.515C623.879 164.515 630.718 167.41 635.453 179.535C640.187 191.661 623.704 211.215 619.37 209.767Z" fill="#263238"/>
<path d="M613.533 210.552C613.533 210.552 624.105 200.609 629.015 204.382C633.925 208.155 624.43 223.579 617.616 224.718C616.756 224.925 615.859 224.966 614.981 224.838C614.104 224.71 613.262 224.416 612.507 223.973C611.752 223.53 611.099 222.947 610.586 222.26C610.074 221.573 609.713 220.795 609.525 219.972L613.533 210.552Z" fill="#D3766A"/>
<path d="M626.184 208.745C626.184 208.745 626.184 208.887 626.184 208.911C621.374 209.86 618.243 213.396 615.813 217.193C616.154 216.809 616.579 216.5 617.06 216.288C617.54 216.076 618.063 215.966 618.593 215.966C619.123 215.966 619.647 216.076 620.127 216.288C620.608 216.5 621.033 216.809 621.374 217.193C621.374 217.193 621.374 217.43 621.199 217.383C620.456 217.008 619.608 216.862 618.773 216.964C617.938 217.066 617.158 217.411 616.539 217.952C615.515 218.866 614.592 219.876 613.783 220.966C613.483 221.322 612.806 220.966 613.057 220.586C614.034 215.033 619.921 208.223 626.184 208.745Z" fill="#263238"/>
<path d="M716.243 420.914C716.343 421.353 716.418 421.797 716.469 422.243C716.481 422.156 716.481 422.068 716.469 421.982C716.394 421.626 716.318 421.27 716.243 420.914Z" fill="#01BAEF"/>
<path d="M716.243 420.914C716.343 421.353 716.418 421.797 716.469 422.243C716.481 422.156 716.481 422.068 716.469 421.982C716.394 421.626 716.318 421.27 716.243 420.914Z" fill="#01BAEF"/>
<path d="M716.243 420.914C716.343 421.353 716.418 421.797 716.469 422.243C716.481 422.156 716.481 422.068 716.469 421.982C716.394 421.626 716.318 421.27 716.243 420.914Z" fill="#DBDBDB"/>
<path d="M0 24.2969V117.745H98.7775V24.2969H0ZM7.51541 110.768V31.3446H91.3122V110.768H7.51541Z" fill="#EBEBEB"/>
<path d="M405.306 0.398438H70.1938V292.725H405.306V0.398438Z" fill="#37474F"/>
<path d="M297.61 145.364C338.444 184.565 389.799 267.026 380.28 283.756C369.608 302.384 312.766 247.425 312.967 244.198C313.142 241.825 293.151 191.684 277.895 155.259C262.639 118.834 287.515 135.658 297.61 145.364Z" fill="#F7A9A0"/>
<path d="M312.541 244.267C310.812 238.905 283.581 172.865 275.816 151.959C268.05 131.053 275.239 124.622 297.46 143.748C319.681 162.874 368.38 226.802 379.503 260.712C390.2 293.341 372.439 293.341 349.091 278.32C329.826 266.004 312.541 244.267 312.541 244.267Z" fill="#01BAEF"/>
<path opacity="0.1" d="M293.602 145.912C293.071 148.843 291.741 151.591 289.744 153.885C289.997 152.424 290.46 151.003 291.121 149.661C291.77 148.314 292.604 147.053 293.602 145.912ZM360.94 236.75C360.26 238.084 359.796 239.508 359.562 240.973C360.582 239.844 361.426 238.581 362.067 237.224C362.728 235.883 363.192 234.461 363.445 233C362.416 234.124 361.572 235.388 360.94 236.75ZM336.865 202.033C336.189 203.377 335.725 204.809 335.487 206.281C336.503 205.139 337.346 203.869 337.993 202.508C338.661 201.169 339.125 199.746 339.37 198.284C338.356 199.417 337.512 200.679 336.865 202.033ZM311.814 193.324C310.405 192.681 308.902 192.241 307.355 192.019C309.776 193.911 312.678 195.171 315.772 195.673C314.593 194.719 313.278 193.928 311.864 193.324H311.814ZM334.36 228.42C332.941 227.78 331.43 227.34 329.876 227.115C331.081 228.077 332.422 228.876 333.859 229.488C335.273 230.121 336.774 230.561 338.318 230.793C337.137 229.836 335.822 229.037 334.41 228.42H334.36ZM316.023 168.313C314.613 167.669 313.11 167.229 311.563 167.008C312.756 167.974 314.089 168.773 315.522 169.381C316.932 170.021 318.435 170.461 319.981 170.686C318.804 169.723 317.488 168.924 316.073 168.313H316.023ZM302.044 215.179C302.574 216.574 303.308 217.892 304.223 219.095C303.918 216.131 302.804 213.294 300.992 210.86C301.153 212.34 301.524 213.793 302.094 215.179H302.044ZM349.216 256.991C349.741 258.388 350.475 259.707 351.395 260.906C351.089 257.943 349.976 255.105 348.163 252.672C348.31 254.155 348.681 255.609 349.266 256.991H349.216ZM317.45 249.872L318.277 250.798C319.644 250.32 320.934 249.665 322.11 248.852C320.526 249 318.973 249.368 317.501 249.943L317.45 249.872ZM373.34 274.836C374.815 274.338 376.207 273.643 377.474 272.771C375.911 272.895 374.376 273.23 372.914 273.768C371.435 274.256 370.041 274.952 368.781 275.832C370.355 275.725 371.906 275.413 373.39 274.907L373.34 274.836ZM289.493 178.042C288.472 178.4 287.483 178.836 286.537 179.347L286.763 179.941C287.833 179.762 288.881 179.484 289.894 179.11C291.381 178.622 292.783 177.927 294.053 177.046C292.505 177.205 290.988 177.564 289.543 178.113L289.493 178.042Z" fill="black"/>
<path d="M307.656 292.796H152.337C152.337 292.796 177.013 177.47 236.535 127.542C243.9 121.372 260.484 122.796 271.331 127.874C275.189 129.702 289.068 148.092 293.026 165.486C296.984 182.88 308.107 292.274 307.656 292.796Z" fill="#01BAEF"/>
<path d="M294.478 172.676C295.706 176.567 296.708 180.578 297.535 184.54C297.522 184.382 297.522 184.224 297.535 184.066C297.535 181.693 297.535 179.486 297.86 177.208C297.86 177.208 298.086 177.066 298.086 177.208C298.403 179.497 298.47 181.811 298.286 184.113C298.286 185.181 298.161 186.273 298.061 187.364C298.386 189.168 298.687 190.995 298.913 192.798C299.388 196.216 300.591 209.006 300.691 211.545C300.691 212.067 300.065 212.162 299.915 211.545C299.188 208.982 297.259 195.788 296.633 192.395C295.422 185.822 294.586 179.192 294.128 172.533C294.203 172.533 294.428 172.533 294.478 172.676Z" fill="#263238"/>
<path opacity="0.1" d="M246.38 157.655C246.126 159.119 245.653 160.541 244.977 161.879C244.345 163.24 243.501 164.504 242.472 165.628C242.73 164.165 243.202 162.743 243.875 161.404C244.513 160.045 245.356 158.782 246.38 157.655ZM225.337 216.22C224.657 217.555 224.193 218.978 223.959 220.444C225.956 218.15 227.286 215.401 227.817 212.471C226.805 213.602 225.97 214.864 225.337 216.22ZM174.908 237.173C174.232 238.518 173.768 239.949 173.531 241.421C174.546 240.287 175.389 239.025 176.036 237.671C176.712 236.327 177.176 234.896 177.414 233.424C176.399 234.557 175.555 235.819 174.908 237.173ZM211.984 274.737C211.305 276.072 210.841 277.496 210.607 278.961C211.613 277.822 212.455 276.561 213.112 275.212C213.765 273.859 214.229 272.431 214.49 270.964C213.465 272.1 212.622 273.371 211.984 274.737ZM276.692 202.172C276.027 203.52 275.564 204.95 275.314 206.419C276.338 205.284 277.182 204.013 277.819 202.646C278.499 201.312 278.963 199.888 279.197 198.423C278.191 199.562 277.348 200.823 276.692 202.172ZM297.084 242.014C296.408 243.359 295.944 244.79 295.706 246.262C296.721 245.128 297.564 243.866 298.211 242.512C298.887 241.168 299.351 239.737 299.589 238.265C298.581 239.403 297.738 240.664 297.084 242.014ZM247.733 270.727C247.079 272.08 246.616 273.508 246.355 274.975C247.379 273.839 248.223 272.568 248.86 271.202C249.536 269.864 250.009 268.442 250.263 266.978C249.24 268.11 248.389 269.372 247.733 270.727ZM200.461 193.06C199.788 194.399 199.316 195.821 199.058 197.284C200.087 196.16 200.931 194.896 201.563 193.534C202.239 192.196 202.712 190.774 202.966 189.31C201.943 190.438 201.099 191.701 200.461 193.06ZM259.131 179.961C257.722 179.317 256.219 178.877 254.672 178.656C255.864 179.622 257.198 180.421 258.63 181.029C260.045 181.658 261.546 182.098 263.089 182.334C261.897 181.367 260.564 180.568 259.131 179.961ZM268.926 227.278C267.517 226.634 266.014 226.194 264.467 225.973C265.666 226.931 266.998 227.73 268.425 228.346C269.839 228.979 271.34 229.418 272.884 229.651C271.698 228.676 270.364 227.876 268.926 227.278ZM177.639 277.419C176.227 276.778 174.725 276.331 173.18 276.09C174.366 277.064 175.7 277.864 177.138 278.463C178.553 279.097 180.054 279.544 181.597 279.792C180.411 278.817 179.077 278.017 177.639 277.419ZM270.529 286.911C269.115 286.281 267.614 285.842 266.07 285.606C267.263 286.572 268.596 287.371 270.028 287.979L270.98 288.382C271.807 288.382 272.609 288.382 273.486 288.524C272.553 287.924 271.564 287.407 270.529 286.982V286.911ZM212.536 239.024C211.122 238.391 209.621 237.952 208.076 237.719C209.263 238.693 210.597 239.493 212.035 240.092C213.447 240.729 214.949 241.168 216.494 241.397C215.29 240.464 213.959 239.689 212.536 239.095V239.024ZM259.131 138.007C257.719 137.366 256.217 136.918 254.672 136.678C255.865 137.643 257.198 138.442 258.63 139.051C260.049 139.67 261.549 140.108 263.089 140.356C261.896 139.415 260.562 138.647 259.131 138.078V138.007ZM269.152 159.957C269.672 161.356 270.406 162.675 271.331 163.872C271.191 162.393 270.837 160.94 270.279 159.553C269.749 158.158 269.015 156.84 268.099 155.638C268.242 157.144 268.613 158.622 269.202 160.028L269.152 159.957ZM293.977 269.469C294.492 270.871 295.227 272.191 296.157 273.385C295.851 270.421 294.738 267.584 292.925 265.151C293.055 266.631 293.41 268.085 293.977 269.469ZM227.366 187.531C227.901 188.924 228.634 190.241 229.545 191.446C229.424 189.967 229.078 188.513 228.518 187.127C227.983 185.734 227.25 184.417 226.339 183.212C226.432 184.683 226.736 186.136 227.241 187.531H227.366ZM246.555 235.702C247.075 237.101 247.809 238.421 248.735 239.617C248.602 238.138 248.247 236.684 247.683 235.299C247.152 233.904 246.418 232.586 245.503 231.383C245.574 232.855 245.869 234.31 246.38 235.702H246.555ZM157.598 292.202C157.586 292.4 157.586 292.598 157.598 292.796H157.999L157.598 292.202ZM201.287 292.013C200.763 290.608 200.029 289.281 199.108 288.073C199.235 289.554 199.59 291.009 200.16 292.392L200.31 292.796H201.563C201.287 292.535 201.287 292.274 201.287 292.013ZM192.369 258.055C192.9 259.45 193.633 260.768 194.549 261.971C194.421 260.49 194.067 259.035 193.497 257.652C192.977 256.253 192.242 254.933 191.317 253.737C191.41 255.21 191.722 256.664 192.244 258.055H192.369ZM229.946 144.675C230.456 146.078 231.191 147.399 232.126 148.59C231.993 147.111 231.638 145.656 231.074 144.271C230.543 142.876 229.809 141.559 228.894 140.356C228.989 141.831 229.31 143.286 229.846 144.675H229.946ZM271.431 255.801C272.904 255.299 274.295 254.604 275.565 253.737C274.004 253.852 272.468 254.179 271.005 254.709C269.535 255.216 268.144 255.911 266.872 256.774C268.433 256.659 269.969 256.331 271.431 255.801ZM230.748 291.206C232.223 290.708 233.615 290.013 234.881 289.141C231.753 289.431 228.757 290.486 226.189 292.202C227.751 292.079 229.286 291.744 230.748 291.206ZM161.631 259.147C161.631 259.479 161.406 259.811 161.306 260.144C162.054 259.796 162.767 259.382 163.435 258.91C162.829 258.95 162.226 259.03 161.631 259.147ZM197.054 218.355C198.537 217.859 199.937 217.163 201.212 216.291C199.649 216.412 198.114 216.747 196.653 217.288C195.17 217.785 193.77 218.48 192.494 219.352C194.055 219.22 195.59 218.884 197.054 218.355ZM229.621 257.32C231.123 256.867 232.549 256.212 233.854 255.374C230.726 255.663 227.73 256.718 225.161 258.435C226.705 258.267 228.214 257.892 229.646 257.32H229.621ZM248.885 201.436C250.363 200.929 251.762 200.235 253.044 199.372C251.482 199.484 249.946 199.812 248.484 200.345C247.011 200.847 245.62 201.541 244.351 202.409C245.904 202.294 247.431 201.966 248.885 201.436ZM289.844 179.178C291.331 178.69 292.733 177.994 294.003 177.113C292.44 177.234 290.904 177.57 289.443 178.11C287.966 178.602 286.573 179.298 285.31 180.174C286.898 180.06 288.46 179.724 289.944 179.178H289.844ZM216.619 166.174C218.094 165.676 219.486 164.981 220.752 164.109C217.624 164.399 214.628 165.454 212.06 167.17C213.656 167.056 215.226 166.721 216.719 166.174H216.619Z" fill="black"/>
<path d="M102.21 82.1487C101.884 75.0298 103.387 42.5913 105.942 33.6451C108.497 24.699 117.817 -0.57315 125.257 0.589607C132.697 1.75236 130.593 9.34589 130.593 9.34589C130.593 9.34589 136.304 -0.739247 143.695 1.06421C151.085 2.86767 147.377 14.6139 147.377 14.6139C147.377 14.6139 154.041 4.67113 161.281 6.97291C168.52 9.2747 162.709 20.4751 162.709 20.4751C162.709 20.4751 168.345 11.1256 173.456 15.397C179.593 20.5226 167.118 36.7537 165.088 46.744C164.612 49.1169 159.176 93.8 159.176 93.8L102.21 82.1487Z" fill="#F7A9A0"/>
<path d="M163.184 19.5715C154.016 31.4363 152.187 38.1756 151.185 52.627C151.185 52.9118 150.709 52.9355 150.709 52.627C150.333 38.3892 151.36 29.6566 162.583 19.0969C163.134 18.6223 163.711 19.0257 163.184 19.5715Z" fill="#263238"/>
<path d="M148.129 13.7617C139.761 26.8842 137.707 34.1455 135.453 49.1902C135.453 49.4037 135.052 49.38 135.052 49.1902C135.954 34.2404 137.181 25.4604 147.352 13.5956C147.828 12.9074 148.504 13.1447 148.129 13.7617Z" fill="#263238"/>
<path d="M130.492 10.1754C123.378 23.4403 120.772 31.3186 120.472 46.1971C120.453 46.2559 120.415 46.3074 120.363 46.3441C120.311 46.3807 120.248 46.4005 120.184 46.4005C120.119 46.4005 120.056 46.3807 120.004 46.3441C119.952 46.3074 119.914 46.2559 119.896 46.1971C118.543 31.0101 121.724 21.1622 129.916 9.98552C130.618 9.24989 130.943 9.34482 130.492 10.1754Z" fill="#263238"/>
<path d="M158.7 103.123C158.7 103.123 172.854 90.4753 177.79 83.6411C182.725 76.8069 191.192 44.843 184.002 42.7073C174.733 39.9784 166.015 57.4909 162.934 66.6031C162.934 66.6031 141.49 60.2436 132.371 71.5389C123.253 82.8343 158.7 103.123 158.7 103.123Z" fill="#F7A9A0"/>
<path d="M181.247 42.7569C170.9 46.0316 167.669 58.2287 163.961 66.8663C163.914 66.9969 163.833 67.1146 163.727 67.2094C163.621 67.3042 163.493 67.3732 163.352 67.4106C163.212 67.4479 163.064 67.4524 162.921 67.4237C162.779 67.3951 162.645 67.3341 162.533 67.246C153.364 65.134 139.787 64.7069 132.472 70.9715C132.432 71.0156 132.375 71.0429 132.314 71.0473C132.253 71.0518 132.192 71.0331 132.146 70.9953C132.099 70.9575 132.071 70.9038 132.066 70.846C132.061 70.7881 132.081 70.7309 132.121 70.6868C139.16 62.9272 152.538 62.3339 162.433 65.2289C166.065 56.3303 169.948 44.2044 181.347 42.662C181.247 42.6382 181.247 42.7332 181.247 42.7569Z" fill="#263238"/>
<path d="M245.203 144.746C235.883 160.028 182.023 207.131 134.977 215.294C128.614 216.386 104.364 211.545 99.2784 196.311C90.2349 169.164 97.4747 113.114 102.084 79.3705C102.986 72.7973 167.568 86.3233 165.89 96.3847C164.036 107.538 157.122 148.471 158.199 148.946C162.057 150.631 203.292 133.735 230.422 128.206C249.712 124.267 252.392 132.976 245.203 144.746Z" fill="#F7A9A0"/>
<path d="M93.0407 96.0312L166.642 111.123C166.642 111.123 159.953 146.718 161.255 146.552C162.558 146.386 214.214 128.494 234.13 126.619C254.046 124.744 254.021 133.05 243.925 148.616C233.829 164.183 167.694 216.294 135.102 216.294C118.518 216.294 103.086 206.232 100.03 201.415C90.7359 186.56 93.0407 96.0312 93.0407 96.0312Z" fill="#455A64"/>
<path d="M93.0407 96.0312L166.642 111.123C166.642 111.123 159.953 146.718 161.255 146.552C162.558 146.386 214.214 128.494 234.13 126.619C254.046 124.744 254.021 133.05 243.925 148.616C233.829 164.183 167.694 216.294 135.102 216.294C118.518 216.294 103.086 206.232 100.03 201.415C90.7359 186.56 93.0407 96.0312 93.0407 96.0312Z" fill="#01BAEF"/>
<path opacity="0.1" d="M198.507 145.671C197.839 147.01 197.375 148.432 197.129 149.895C198.158 148.771 199.002 147.507 199.634 146.146C200.31 144.81 200.775 143.386 201.012 141.922C200 143.057 199.158 144.319 198.507 145.671ZM140.037 207.914C139.358 209.249 138.893 210.673 138.659 212.138C140.657 209.844 141.987 207.096 142.517 204.165C141.511 205.3 140.676 206.562 140.037 207.914ZM96.6983 165.201C96.0109 166.534 95.538 167.958 95.2954 169.425C96.3146 168.294 97.1582 167.032 97.8005 165.675C98.4565 164.332 98.9198 162.911 99.1783 161.451C98.1637 162.58 97.3283 163.843 96.6983 165.201ZM160.755 165.367C160.09 166.715 159.626 168.145 159.377 169.614C160.406 168.482 161.251 167.211 161.882 165.841C162.558 164.503 163.031 163.081 163.285 161.618C162.257 162.755 161.405 164.026 160.755 165.391V165.367ZM128.639 182.974C127.977 184.316 127.514 185.737 127.261 187.198C128.29 186.074 129.134 184.811 129.766 183.449C130.443 182.111 130.915 180.689 131.169 179.225C130.141 180.354 129.289 181.616 128.639 182.974ZM131.495 140.118C130.822 141.456 130.358 142.879 130.117 144.342C132.114 142.048 133.444 139.3 133.975 136.369C132.919 137.493 132.041 138.756 131.369 140.118H131.495ZM98.5771 108.249C97.9007 109.587 97.4283 111.009 97.1743 112.473C98.211 111.355 99.0563 110.09 99.6794 108.724C100.352 107.385 100.824 105.963 101.082 104.5C100.062 105.63 99.2183 106.892 98.5771 108.249ZM230.923 144.247C230.398 142.85 229.664 141.532 228.744 140.332C228.871 141.812 229.226 143.267 229.796 144.651C230.307 146.049 231.033 147.368 231.951 148.566C231.843 147.098 231.514 145.651 230.974 144.271L230.923 144.247ZM187.334 172.723C186.804 171.328 186.071 170.01 185.155 168.808C185.285 170.288 185.639 171.742 186.207 173.126C186.722 174.528 187.456 175.848 188.386 177.042C188.258 175.582 187.921 174.145 187.384 172.77L187.334 172.723ZM154.592 140.617C154.067 139.22 153.333 137.901 152.412 136.701C152.718 139.665 153.832 142.502 155.644 144.935C155.525 143.474 155.188 142.036 154.642 140.664L154.592 140.617ZM150.358 187.079C149.833 185.682 149.099 184.364 148.179 183.164C148.309 184.644 148.663 186.099 149.231 187.483C149.751 188.882 150.485 190.202 151.41 191.398C151.292 189.937 150.954 188.499 150.408 187.127L150.358 187.079ZM108.372 182.073C107.852 180.673 107.118 179.354 106.193 178.157C106.338 179.635 106.692 181.087 107.245 182.476C107.77 183.873 108.504 185.192 109.424 186.391C109.308 184.929 108.971 183.491 108.422 182.12L108.372 182.073ZM121.624 116.389C121.1 114.984 120.366 113.657 119.445 112.449C119.567 113.936 119.912 115.398 120.472 116.792C121.013 118.183 121.746 119.499 122.651 120.707C122.544 119.247 122.215 117.808 121.674 116.436L121.624 116.389ZM116.614 153.644C116.084 152.249 115.351 150.931 114.435 149.729C114.565 151.209 114.919 152.663 115.487 154.048C116.007 155.447 116.741 156.766 117.666 157.963C117.566 156.503 117.246 155.065 116.714 153.692L116.614 153.644ZM216.319 165.201C214.844 165.698 213.452 166.393 212.185 167.265C213.747 167.139 215.282 166.803 216.744 166.269C218.219 165.771 219.611 165.076 220.878 164.204C219.315 164.327 217.78 164.663 216.319 165.201ZM138.459 163.492C136.991 164.004 135.601 164.699 134.325 165.557C135.888 165.436 137.424 165.1 138.885 164.56C140.362 164.068 141.755 163.372 143.018 162.495C141.452 162.586 139.908 162.89 138.434 163.397L138.459 163.492ZM145.824 119.687C144.351 120.189 142.96 120.884 141.69 121.752C143.245 121.628 144.772 121.292 146.225 120.755C147.707 120.272 149.101 119.576 150.358 118.69C148.801 118.781 147.265 119.085 145.799 119.592L145.824 119.687ZM104.038 133.427C102.565 133.929 101.174 134.623 99.9049 135.491C103.035 135.224 106.034 134.176 108.598 132.454C107.034 132.545 105.492 132.841 104.013 133.332L104.038 133.427ZM173.506 192.751C172.035 193.258 170.645 193.952 169.372 194.815C172.502 194.548 175.502 193.5 178.065 191.778C176.495 191.891 174.951 192.219 173.481 192.751H173.506ZM117.566 204.355C116.091 204.852 114.699 205.548 113.433 206.419C114.995 206.299 116.531 205.963 117.992 205.423C119.469 204.93 120.862 204.235 122.125 203.358C120.555 203.479 119.01 203.815 117.541 204.355H117.566ZM177.865 145.363C176.392 145.865 175 146.559 173.731 147.427C175.29 147.297 176.823 146.97 178.291 146.454C179.759 145.942 181.149 145.248 182.424 144.39C180.854 144.5 179.309 144.828 177.84 145.363H177.865Z" fill="black"/>
<path d="M161.832 146.86C161.272 152.175 160.292 157.441 158.901 162.617C157.673 167.885 155.92 172.987 154.291 178.136H154.091C155.519 172.963 156.596 167.671 157.748 162.427C158.901 157.183 159.777 151.938 161.205 146.765C161.205 146.386 161.857 146.504 161.832 146.86Z" fill="#263238"/>
<path d="M162.308 124.268C153.79 122.275 145.173 120.685 136.53 119.142C127.887 117.6 119.245 116.01 110.577 114.657C105.567 113.898 100.757 113.115 95.8216 112.498C95.8216 112.498 95.6462 112.688 95.8216 112.712C104.314 114.729 112.957 116.342 121.574 117.956C130.192 119.57 138.86 121.088 147.503 122.536C152.513 123.343 157.323 124.078 162.258 124.671C162.433 124.719 162.558 124.339 162.308 124.268Z" fill="#263238"/>
<path d="M186.608 195.481C187.96 194.342 189.463 193.369 190.891 192.325C192.319 191.281 193.647 190.26 195.05 189.264L203.567 183.07C209.229 178.918 214.79 174.622 220.402 170.399C223.608 168.026 226.765 165.653 229.921 163.09C229.934 163.079 229.95 163.071 229.966 163.065C229.983 163.06 230 163.058 230.018 163.059C230.035 163.06 230.052 163.064 230.068 163.072C230.084 163.079 230.098 163.089 230.109 163.102C230.121 163.114 230.13 163.129 230.135 163.144C230.141 163.16 230.143 163.177 230.142 163.193C230.141 163.21 230.136 163.226 230.128 163.241C230.121 163.255 230.11 163.269 230.097 163.28C226.239 166.72 222.331 170.114 218.323 173.388L219.826 172.7C221.379 171.965 222.882 171.182 224.385 170.327C224.385 170.327 224.61 170.446 224.385 170.517C222.975 171.461 221.502 172.317 219.976 173.08C219.224 173.46 218.473 173.839 217.696 174.172L216.569 174.622C215.667 175.358 214.765 176.094 213.838 176.806C208.277 181.109 202.599 185.245 196.803 189.216C195.133 190.308 193.505 191.376 191.918 192.42C190.19 193.488 188.511 194.674 186.683 195.647C186.652 195.632 186.627 195.607 186.614 195.577C186.6 195.546 186.598 195.513 186.608 195.481Z" fill="#263238"/>
<path d="M259.657 162.756L268.25 150.369L276.341 160.786L273.035 169.994L263.866 170.183L259.657 162.756Z" fill="#263238"/>
<path d="M263.866 170.186L248.635 266.125L264.091 299.94L278.045 265.081L273.035 169.996L263.866 170.186Z" fill="#263238"/>
<path d="M271.432 149.491C262.488 151.532 247.032 138.67 240.894 128.134C240.468 127.422 241.596 119.829 242.472 110.527C242.998 104.879 243.424 98.662 243.399 92.8008L281.678 101.367C279.543 108.597 278.356 116.049 278.146 123.555C278.144 124.353 278.236 125.149 278.421 125.927C278.421 126.046 278.421 126.165 278.421 126.331C279.173 130.863 279.974 147.474 271.432 149.491Z" fill="#F7A9A0"/>
<path d="M245.979 93.4688C247.156 101.11 252.618 126.263 274.437 126.69C275.752 126.721 277.068 126.649 278.37 126.477C278.361 126.342 278.361 126.208 278.37 126.073C278.189 125.294 278.088 124.499 278.07 123.7C278.3 116.195 279.494 108.745 281.627 101.513L245.979 93.4688Z" fill="#263238"/>
<path d="M234.481 52.3912C231.55 65.5137 242.147 101.868 252.518 109.343C267.549 120.116 290.446 119.333 299.665 102.58C308.608 86.3485 293.928 39.2212 282.504 32.6481C265.67 22.8239 238.865 32.9803 234.481 52.3912Z" fill="#F7A9A0"/>
<path d="M268.651 73.9375C268.651 73.9375 268.476 74.1036 268.501 74.1985C269.277 76.5715 269.753 79.5377 267.649 80.9615C267.649 80.9615 267.649 81.1276 267.649 81.0802C270.455 79.9649 269.803 76.1206 268.651 73.9375Z" fill="#263238"/>
<path d="M265.594 71.9682C261.361 72.7276 263.289 80.7245 267.223 80.0126C271.156 79.3007 269.152 71.3275 265.594 71.9682Z" fill="#263238"/>
<path d="M284.233 70.2824C284.233 70.1637 284.458 70.2824 284.483 70.4485C284.984 72.9401 286.036 75.7165 288.592 76.025V76.1674C285.636 76.3809 284.283 72.6554 284.233 70.2824Z" fill="#263238"/>
<path d="M285.936 67.1527C290.07 65.9425 292.324 73.8682 288.441 74.9835C284.558 76.0988 282.479 68.173 285.936 67.1527Z" fill="#263238"/>
<path d="M261.411 69.0476C262.488 68.5256 263.39 67.8611 264.417 67.2442C265.444 66.6272 266.547 66.0814 267.098 64.8712C267.219 64.5079 267.208 64.1167 267.067 63.7599C266.926 63.403 266.664 63.1009 266.321 62.9016C265.582 62.5912 264.768 62.4759 263.966 62.5678C263.163 62.6597 262.402 62.9554 261.762 63.4237C260.306 64.1824 259.2 65.4252 258.655 66.9119C258.559 67.2558 258.568 67.6189 258.684 67.9576C258.799 68.2963 259.015 68.5964 259.306 68.8217C259.597 69.0471 259.95 69.1883 260.323 69.2284C260.697 69.2684 261.074 69.2057 261.411 69.0476Z" fill="#A6A6A6"/>
<path d="M288.216 62.4294C287.031 62.4884 285.844 62.4884 284.659 62.4294C283.408 62.5677 282.146 62.2999 281.077 61.6701C280.775 61.4134 280.572 61.0689 280.499 60.6909C280.426 60.3129 280.489 59.9227 280.676 59.5819C281.151 58.9646 281.792 58.4787 282.532 58.1742C283.271 57.8697 284.084 57.7576 284.884 57.8496C286.54 57.7946 288.157 58.3278 289.419 59.3445C289.66 59.5953 289.825 59.9041 289.893 60.2373C289.962 60.5705 289.933 60.9152 289.809 61.2337C289.685 61.5522 289.47 61.8322 289.189 62.0431C288.909 62.254 288.572 62.3876 288.216 62.4294Z" fill="#A6A6A6"/>
<path d="M273.561 88.7669C274.47 89.5906 275.549 90.2268 276.73 90.6352C277.912 91.0437 279.17 91.2155 280.425 91.1399C281.525 91.1104 282.614 90.9264 283.657 90.5941L284.233 90.4043L284.809 90.1907C284.938 90.1318 285.043 90.0358 285.111 89.9164C285.178 89.797 285.204 89.6604 285.185 89.5263C285.195 89.4396 285.195 89.352 285.185 89.2653V89.0517C284.784 87.1296 283.882 84.3058 283.882 84.3058C284.709 84.4956 288.892 85.2787 288.542 84.3058C286.224 75.7697 283.001 67.4774 278.922 59.5556C278.899 59.4958 278.851 59.4473 278.79 59.4206C278.729 59.3939 278.659 59.3912 278.596 59.4132C278.533 59.4353 278.482 59.4802 278.454 59.538C278.425 59.5959 278.423 59.662 278.446 59.7217C280.55 67.6237 284.082 75.1223 286.312 83.0243C284.84 82.7246 283.329 82.6287 281.828 82.7396C281.552 82.882 283.657 88.2211 283.782 89.0991C282.172 89.6219 280.466 89.8284 278.769 89.706C277.072 89.5836 275.419 89.1349 273.912 88.3873C273.536 88.3873 273.36 88.6008 273.561 88.7669Z" fill="#263238"/>
<path d="M282.254 90.262C281.396 91.8352 280.129 93.1748 278.571 94.1537C277.711 94.6408 276.716 94.8722 275.715 94.8181C273.486 94.652 273.21 92.8249 273.21 91.2113C273.254 90.3413 273.414 89.4801 273.686 88.6484C276.289 90.0332 279.29 90.5982 282.254 90.262Z" fill="#263238"/>
<path d="M278.571 94.1539C277.711 94.641 276.716 94.8725 275.715 94.8184C273.486 94.6523 273.21 92.8251 273.21 91.2115C274.323 91.0614 275.456 91.27 276.428 91.8036C277.401 92.3373 278.155 93.165 278.571 94.1539Z" fill="#FF9CBD"/>
<g opacity="0.2">
<path d="M272.685 56.895C274.074 56.7804 275.455 56.5823 276.818 56.3017C278.196 55.9695 279.473 55.3763 280.851 55.0678C283.495 54.6284 286.199 54.6284 288.843 55.0678C289.068 55.0678 289.068 55.2339 288.843 55.2102C286.046 54.8513 283.2 55.0698 280.501 55.8509C278.349 56.6589 276.09 57.1781 273.787 57.3933C268.503 57.423 263.365 59.0343 259.107 61.9969C262.992 59.0488 267.722 57.2717 272.685 56.895Z" fill="black"/>
<path d="M271.782 53.4323C273.106 53.3452 274.421 53.1628 275.715 52.8865C277.018 52.578 278.221 52.0085 279.548 51.7237C282.035 51.3134 284.577 51.3134 287.064 51.7237C287.289 51.7237 287.289 51.8898 287.064 51.8661C284.408 51.5458 281.712 51.756 279.147 52.4831C277.109 53.2486 274.967 53.736 272.784 53.9306C267.777 53.9689 262.911 55.5054 258.881 58.3206C262.573 55.513 267.065 53.8112 271.782 53.4323Z" fill="black"/>
</g>
<path d="M238.288 83.7125C238.288 83.7125 224.861 62.7591 226.113 50.6332C226.665 45.1517 234.531 41.4735 234.531 41.4735C233.926 39.2384 233.993 36.8878 234.724 34.6866C235.454 32.4855 236.819 30.5213 238.664 29.0154C245.503 22.9169 262.062 24.2695 262.062 24.2695C262.062 24.2695 272.784 9.58079 287.965 15.3946C303.146 21.2084 293.276 37.5107 293.276 37.5107C293.276 37.5107 298.838 45.0093 285.235 50.8705C271.632 56.7318 244.902 50.9892 244.902 50.9892C246.172 59.8174 246.037 68.7762 244.501 77.5665C244.162 79.033 243.403 80.3826 242.307 81.4669C241.211 82.5512 239.82 83.3283 238.288 83.7125Z" fill="#A6A6A6"/>
<path d="M264.668 24.4584C261.282 23.1551 257.648 22.5328 253.996 22.6312C250.727 22.5802 247.473 23.0618 244.376 24.055C241.588 24.8037 239.069 26.2574 237.087 28.2598C235.105 30.2623 233.737 32.7381 233.128 35.4215C232.907 36.8141 232.981 38.2345 233.347 39.5996C233.712 40.9646 234.362 42.2468 235.257 43.371C235.257 43.371 235.483 43.371 235.408 43.371C231.9 39.242 233.729 32.835 237.362 29.3941C241.799 25.7395 247.489 23.7404 253.369 23.7702C257.135 23.725 260.894 24.0993 264.567 24.8855C264.793 24.8143 264.868 24.5533 264.668 24.4584Z" fill="#A6A6A6"/>
<path d="M245.628 81.7924C245.628 81.7924 235.457 70.7818 230.071 74.3413C224.685 77.9007 233.328 94.5116 240.292 96.1726C241.172 96.449 242.101 96.5532 243.024 96.479C243.947 96.4048 244.845 96.1537 245.663 95.741C246.48 95.3282 247.201 94.7624 247.78 94.0779C248.36 93.3934 248.787 92.6044 249.035 91.7589L245.628 81.7924Z" fill="#F7A9A0"/>
<path d="M232.677 79.0361V79.2021C237.687 80.531 240.543 84.3989 242.697 88.5042C242.369 88.0893 241.951 87.746 241.47 87.4971C240.99 87.2482 240.459 87.0997 239.913 87.0615C239.367 87.0232 238.819 87.0962 238.305 87.2755C237.792 87.4548 237.325 87.7362 236.936 88.1008C236.902 88.1228 236.88 88.1565 236.873 88.1943C236.866 88.2321 236.875 88.271 236.898 88.3025C236.921 88.334 236.957 88.3554 236.997 88.3621C237.037 88.3688 237.078 88.3601 237.111 88.3381C237.905 88.0009 238.79 87.9066 239.643 88.0682C240.496 88.2299 241.275 88.6394 241.871 89.2398C242.829 90.2587 243.669 91.3725 244.376 92.562C244.626 92.9417 245.378 92.562 245.152 92.2061C244.752 86.416 239.165 78.9411 232.677 79.0361Z" fill="#263238"/>
<path d="M267.899 86.8929C265.706 87.1722 263.473 86.8626 261.456 85.9994C259.439 85.1362 257.718 83.7541 256.489 82.0103C255.261 80.2664 254.573 78.2309 254.506 76.1352C254.438 74.0396 254.992 71.968 256.106 70.1562C257.22 68.3443 258.848 66.865 260.806 65.8865C262.763 64.9079 264.971 64.4695 267.179 64.6211C269.387 64.7727 271.505 65.5082 273.293 66.7439C275.081 67.9796 276.467 69.6659 277.294 71.6109C277.873 72.9758 278.162 74.4354 278.146 75.9064C278.13 77.3773 277.807 78.8307 277.198 80.1837C276.588 81.5367 275.703 82.7627 274.594 83.7917C273.484 84.8208 272.171 85.6326 270.73 86.181C269.818 86.5203 268.869 86.7591 267.899 86.8929ZM264.993 66.1531C264.136 66.2675 263.296 66.4746 262.488 66.7701C260.076 67.6861 258.123 69.4379 257.026 71.6693C255.929 73.9006 255.771 76.444 256.583 78.7821C257.395 81.1203 259.117 83.0776 261.398 84.2562C263.68 85.4347 266.349 85.7459 268.864 85.1265C271.379 84.5072 273.55 83.0037 274.937 80.9219C276.323 78.84 276.82 76.3362 276.327 73.9194C275.834 71.5027 274.388 69.3546 272.283 67.9119C270.177 66.4692 267.571 65.8403 264.993 66.1531Z" fill="#455A64"/>
<path d="M294.153 80.393C289.669 80.9625 284.984 77.1183 283.456 71.4706C282.688 68.7686 282.828 65.9069 283.857 63.2839C284.223 62.1354 284.898 61.0963 285.814 60.2677C286.73 59.4391 287.857 58.8493 289.085 58.5554C290.313 58.2616 291.601 58.2738 292.822 58.591C294.044 58.9081 295.158 59.5193 296.057 60.3651C298.322 62.2147 299.888 64.7143 300.516 67.484C302.119 73.4639 299.614 79.3489 294.904 80.3693C294.655 80.3996 294.404 80.4075 294.153 80.393ZM290.07 59.9142H289.468C288.503 60.1962 287.622 60.692 286.899 61.3605C286.176 62.0289 285.631 62.8509 285.31 63.7585C284.417 66.0817 284.303 68.6093 284.984 70.996C286.387 76.1928 290.646 79.6574 294.504 78.7082C298.362 77.759 300.391 72.8232 298.988 67.6264C298.393 65.2161 297.018 63.0423 295.055 61.4092C294.381 60.8423 293.589 60.4162 292.73 60.1586C291.871 59.901 290.965 59.8177 290.07 59.9142Z" fill="#455A64"/>
<path d="M277.268 72.9403L275.966 72.0623C277.343 70.2589 280.851 67.435 284.408 69.6894L283.556 70.947C280.375 68.93 277.393 72.7742 277.268 72.9403Z" fill="#455A64"/>
<path d="M226.965 88.008L225.437 87.6758C225.587 86.9876 227.141 81.0077 230.447 79.6551C233.754 78.3025 254.547 75.2651 255.499 75.1465L255.749 76.6177C249.712 77.5194 233.529 80.0348 231.149 81.0315C228.769 82.0281 227.366 86.3706 226.965 88.008Z" fill="#455A64"/>
<path d="M278.346 125.595L267.649 146.382L241.67 117.74L233.128 125.88C233.128 125.88 257.353 170.444 257.653 168.593L268.25 150.843L280.776 164.488L282.003 132.358L278.346 125.595Z" fill="#EBEBEB"/>
<path d="M282.253 148.448C282.253 143.132 282.454 137.793 282.253 132.478C282.253 132.311 281.928 132.193 281.878 132.478C280.4 137.508 280.425 157.821 280.049 162.662C279.548 162.092 268.475 150.631 268.35 150.797C266.12 153.573 258.329 166.506 257.803 167.692C253.995 160.574 239.215 134.827 234.581 128.064C234.552 128.03 234.512 128.006 234.467 127.997C234.422 127.987 234.375 127.993 234.334 128.012C234.293 128.032 234.26 128.064 234.241 128.104C234.222 128.143 234.218 128.188 234.23 128.23C237.512 135.657 257.027 170.35 257.352 170.279C261.393 164.209 265.097 157.944 268.45 151.509C270.279 153.882 281.351 166.791 281.452 166.008C282.037 160.171 282.304 154.31 282.253 148.448Z" fill="#263238"/>
<path d="M380.229 283.85C371.035 296.284 346.009 298.681 283.631 310.237C274.988 311.851 246.655 257.178 255.774 255.018C267.273 252.289 312.515 244.103 315.897 243.889C344.481 242.086 386.467 275.307 380.229 283.85Z" fill="#F7A9A0"/>
<path d="M268.275 252.217C268.275 252.217 241.821 256.014 228.594 262.065C215.002 268.698 203.311 278.355 194.524 290.208C185.004 302.975 171.276 340.041 181.873 345.688C191.468 350.766 203.467 312.182 203.467 312.182C203.467 312.182 184.378 349.604 197.104 353.709C209.83 357.814 221.078 312.324 221.078 312.324C221.078 312.324 202.365 351.217 216.193 353.472C226.665 355.18 239.291 314.46 239.291 314.46C239.291 314.46 223.458 347.99 234.13 350.197C245.929 352.57 260.083 315.718 260.083 315.718C288.191 316.975 302.119 306.677 311.113 298.229C313.292 296.117 268.275 252.217 268.275 252.217Z" fill="#F7A9A0"/>
<path d="M209.179 298.824C206.674 303.143 204.294 307.509 202.315 312.018C200.336 316.526 198.482 321.106 196.929 325.757C194.794 331.821 193.39 338.094 192.745 344.456C194.749 333.256 201.638 317.001 203.642 312.492C205.647 307.984 207.375 303.38 209.379 298.895C209.429 298.776 209.254 298.729 209.179 298.824Z" fill="#263238"/>
<path d="M226.514 305.349C223.684 310.997 220.652 316.502 218.097 322.269C215.542 328.035 213.663 333.659 211.534 339.544C211.358 339.995 211.684 339.924 211.859 339.544C214.239 333.754 216.87 328.557 219.375 322.791C221.88 317.024 224.034 311.139 226.69 305.468C226.69 305.326 226.539 305.207 226.514 305.349Z" fill="#263238"/>
<path d="M242.447 308.431C237.884 316.983 234.274 325.962 231.675 335.222C231.525 335.673 231.926 335.555 232.076 335.08C235.483 326.11 238.088 319.062 242.748 308.574C242.823 308.431 242.548 308.242 242.447 308.431Z" fill="#263238"/>
<path d="M262.764 252.218L317.426 309.952C317.426 309.952 372.715 297.945 380.856 284.514C386.217 275.662 344.582 239.854 313.218 244.031L262.764 252.218Z" fill="#01BAEF"/>
<path opacity="0.1" d="M311.288 288.215C311.047 289.679 310.583 291.102 309.91 292.439C309.278 293.801 308.434 295.065 307.405 296.189C307.651 294.726 308.115 293.304 308.783 291.965C309.433 290.613 310.276 289.351 311.288 288.215ZM349.266 284.965C348.601 286.313 348.137 287.743 347.888 289.212C348.912 288.076 349.756 286.805 350.393 285.439C351.07 284.101 351.542 282.679 351.796 281.215C350.773 282.348 349.922 283.61 349.266 284.965ZM322.186 272.862C320.776 272.219 319.273 271.779 317.726 271.557C320.148 273.449 323.05 274.709 326.144 275.212C324.949 274.253 323.617 273.462 322.186 272.862ZM349.266 256.987C349.791 258.384 350.525 259.703 351.445 260.903C351.14 257.939 350.026 255.101 348.214 252.668C348.344 254.148 348.698 255.603 349.266 256.987ZM293.978 269.469C294.493 270.87 295.227 272.19 296.157 273.384C295.851 270.421 294.738 267.583 292.925 265.15C293.056 266.63 293.41 268.085 293.978 269.469ZM271.431 255.801C272.904 255.299 274.296 254.604 275.565 253.736C274.004 253.851 272.468 254.179 271.006 254.709C269.535 255.216 268.144 255.911 266.872 256.774C268.433 256.658 269.969 256.331 271.431 255.801ZM317.977 251.055C319.45 250.553 320.841 249.858 322.11 248.99C320.55 249.108 319.014 249.436 317.551 249.963C316.083 250.475 314.693 251.17 313.418 252.028C314.961 251.891 316.479 251.556 317.927 251.031L317.977 251.055ZM335.212 301.741C336.687 301.244 338.079 300.549 339.346 299.677C337.783 299.798 336.247 300.133 334.786 300.674C333.309 301.166 331.916 301.862 330.653 302.738C332.199 302.6 333.717 302.256 335.162 301.718L335.212 301.741ZM376.296 272.981C375.177 273.179 374.078 273.473 373.015 273.859C371.54 274.357 370.148 275.052 368.881 275.924C370.442 275.789 371.975 275.453 373.441 274.927C374.573 274.545 375.657 274.043 376.672 273.432L376.296 272.981Z" fill="black"/>
<path d="M350.644 253.332C339.778 245.895 326.399 242.516 313.067 243.84C312.917 243.84 312.917 244.101 313.067 244.101C326.795 243.745 345.308 250.532 350.494 253.474C350.669 253.64 350.794 253.427 350.644 253.332Z" fill="#263238"/>
<path d="M332.381 300.225C326.72 293.581 320.707 287.245 314.645 280.909C308.583 274.573 302.57 268.214 296.357 261.925C292.85 258.437 289.368 254.807 285.736 251.532C285.716 251.507 285.686 251.49 285.653 251.486C285.62 251.481 285.587 251.489 285.56 251.508C285.534 251.527 285.516 251.555 285.512 251.586C285.507 251.617 285.515 251.649 285.535 251.674C291.197 258.295 297.184 264.678 303.071 271.038C308.958 277.397 315.146 283.757 321.284 290.021C324.741 293.557 328.273 297.14 331.905 300.439C332.206 300.676 332.532 300.463 332.381 300.225Z" fill="#263238"/>
<path d="M262.663 251.484C266.019 250.514 269.443 249.769 272.909 249.254C276.341 248.66 279.823 248.091 283.281 247.569C290.17 246.525 304.649 243.558 317.375 243.582C317.526 243.582 316.799 244.247 316.649 244.223C310.586 243.914 267.172 252.101 263.615 252.338C263.74 252.576 263.891 252.789 263.991 253.027C264.027 253.064 264.047 253.114 264.044 253.166C264.042 253.217 264.018 253.265 263.978 253.3C263.939 253.334 263.886 253.352 263.832 253.35C263.778 253.348 263.727 253.325 263.69 253.288C263.239 253.003 262.939 252.647 262.513 252.338C262.432 252.288 262.369 252.216 262.331 252.132C262.292 252.048 262.28 251.956 262.296 251.865C262.312 251.775 262.355 251.691 262.42 251.623C262.485 251.556 262.57 251.507 262.663 251.484Z" fill="#263238"/>
</svg>
