<svg width="35" height="35" viewBox="0 0 35 35" fill="none" xmlns="http://www.w3.org/2000/svg">
<path opacity="0.4" d="M30.625 10.2087V24.792C30.625 29.167 28.4375 32.0837 23.3333 32.0837H11.6667C6.5625 32.0837 4.375 29.167 4.375 24.792V10.2087C4.375 5.83366 6.5625 2.91699 11.6667 2.91699H23.3333C28.4375 2.91699 30.625 5.83366 30.625 10.2087Z" fill="white"/>
<path d="M22.6043 2.91699V14.3795C22.6043 15.0212 21.846 15.342 21.3793 14.9191L17.996 11.7982C17.7189 11.5357 17.2814 11.5357 17.0043 11.7982L13.621 14.9191C13.1544 15.3566 12.396 15.0212 12.396 14.3795V2.91699H22.6043Z" fill="white"/>
<path d="M25.5207 21.5107H19.3228C18.7248 21.5107 18.229 21.0149 18.229 20.417C18.229 19.8191 18.7248 19.3232 19.3228 19.3232H25.5207C26.1186 19.3232 26.6144 19.8191 26.6144 20.417C26.6144 21.0149 26.1186 21.5107 25.5207 21.5107Z" fill="white"/>
<path d="M25.5208 27.3438H13.125C12.5271 27.3438 12.0312 26.8479 12.0312 26.25C12.0312 25.6521 12.5271 25.1562 13.125 25.1562H25.5208C26.1188 25.1562 26.6146 25.6521 26.6146 26.25C26.6146 26.8479 26.1188 27.3438 25.5208 27.3438Z" fill="white"/>
</svg>
