<svg width="35" height="35" viewBox="0 0 35 35" fill="none" xmlns="http://www.w3.org/2000/svg">
<path opacity="0.4" d="M29.8957 10.2077V21.8743H9.26025C6.97067 21.8743 5.104 23.741 5.104 26.0306V10.2077C5.104 4.37435 6.56234 2.91602 12.3957 2.91602H22.604C28.4373 2.91602 29.8957 4.37435 29.8957 10.2077Z" fill="white"/>
<path d="M29.8957 21.875V26.9792C29.8957 29.7937 27.6061 32.0833 24.7915 32.0833H10.2082C7.39359 32.0833 5.104 29.7937 5.104 26.9792V26.0312C5.104 23.7417 6.97067 21.875 9.26025 21.875H29.8957Z" fill="white"/>
<path d="M23.3332 11.3027H11.6665C11.0686 11.3027 10.5728 10.8069 10.5728 10.209C10.5728 9.61107 11.0686 9.11523 11.6665 9.11523H23.3332C23.9311 9.11523 24.4269 9.61107 24.4269 10.209C24.4269 10.8069 23.9311 11.3027 23.3332 11.3027Z" fill="white"/>
<path d="M18.9582 16.4063H11.6665C11.0686 16.4063 10.5728 15.9104 10.5728 15.3125C10.5728 14.7146 11.0686 14.2188 11.6665 14.2188H18.9582C19.5561 14.2188 20.0519 14.7146 20.0519 15.3125C20.0519 15.9104 19.5561 16.4063 18.9582 16.4063Z" fill="white"/>
</svg>
