<svg width="35" height="35" viewBox="0 0 35 35" fill="none" xmlns="http://www.w3.org/2000/svg">
<path opacity="0.4" d="M23.6103 2.91699H11.3894C6.08109 2.91699 2.9165 6.08158 2.9165 11.3899V23.5962C2.9165 28.9191 6.08109 32.0837 11.3894 32.0837H23.5957C28.904 32.0837 32.0686 28.9191 32.0686 23.6107V11.3899C32.0832 6.08158 28.9186 2.91699 23.6103 2.91699Z" fill="white"/>
<path d="M23.9458 11.387V23.6078C23.9458 24.5411 23.1874 25.2994 22.2541 25.2994C21.3062 25.2994 20.5479 24.5411 20.5479 23.6078V11.387C20.5479 10.4536 21.3062 9.69531 22.2541 9.69531C23.1874 9.69531 23.9458 10.4536 23.9458 11.387Z" fill="white"/>
<path d="M14.4521 18.8557V23.6099C14.4521 24.5432 13.6938 25.3016 12.7459 25.3016C11.8125 25.3016 11.0542 24.5432 11.0542 23.6099V18.8557C11.0542 17.9224 11.8125 17.1641 12.7459 17.1641C13.6938 17.1641 14.4521 17.9224 14.4521 18.8557Z" fill="white"/>
</svg>
