<svg width="35" height="35" viewBox="0 0 35 35" fill="none" xmlns="http://www.w3.org/2000/svg">
<path opacity="0.4" d="M26.9353 24.5441L27.504 29.1524C27.6499 30.3628 26.352 31.2087 25.3165 30.5816L19.2061 26.9503C18.5353 26.9503 17.8792 26.9066 17.2375 26.8191C18.3167 25.5503 18.9582 23.9462 18.9582 22.2107C18.9582 18.0691 15.3707 14.7149 10.9374 14.7149C9.24578 14.7149 7.68537 15.1962 6.38745 16.042C6.3437 15.6774 6.3291 15.3128 6.3291 14.9337C6.3291 8.29823 12.0895 2.91699 19.2061 2.91699C26.3228 2.91699 32.0832 8.29823 32.0832 14.9337C32.0832 18.8712 30.0561 22.3566 26.9353 24.5441Z" fill="white"/>
<path d="M18.9582 22.2097C18.9582 23.9451 18.3165 25.5493 17.2373 26.818C15.7936 28.568 13.504 29.691 10.9373 29.691L7.13109 31.9514C6.48942 32.3451 5.67275 31.8055 5.76025 31.0618L6.12484 28.1889C4.17067 26.8326 2.9165 24.6597 2.9165 22.2097C2.9165 19.643 4.28734 17.3826 6.38734 16.041C7.68525 15.1951 9.24567 14.7139 10.9373 14.7139C15.3707 14.7139 18.9582 18.068 18.9582 22.2097Z" fill="white"/>
</svg>
