<svg width="35" height="35" viewBox="0 0 35 35" fill="none" xmlns="http://www.w3.org/2000/svg">
<path d="M31.3543 15.8962V5.97949C31.3543 3.79199 30.421 2.91699 28.1022 2.91699H22.2106C19.8918 2.91699 18.9585 3.79199 18.9585 5.97949V15.8962C18.9585 18.0837 19.8918 18.9587 22.2106 18.9587H28.1022C30.421 18.9587 31.3543 18.0837 31.3543 15.8962Z" fill="white"/>
<path d="M16.0418 19.1045V29.0212C16.0418 31.2087 15.1085 32.0837 12.7897 32.0837H6.89808C4.57933 32.0837 3.646 31.2087 3.646 29.0212V19.1045C3.646 16.917 4.57933 16.042 6.89808 16.042H12.7897C15.1085 16.042 16.0418 16.917 16.0418 19.1045Z" fill="white"/>
<path opacity="0.4" d="M31.3543 29.0208V24.9375C31.3543 22.75 30.421 21.875 28.1022 21.875H22.2106C19.8918 21.875 18.9585 22.75 18.9585 24.9375V29.0208C18.9585 31.2083 19.8918 32.0833 22.2106 32.0833H28.1022C30.421 32.0833 31.3543 31.2083 31.3543 29.0208Z" fill="white"/>
<path opacity="0.4" d="M16.0418 10.0628V5.97949C16.0418 3.79199 15.1085 2.91699 12.7897 2.91699H6.89808C4.57933 2.91699 3.646 3.79199 3.646 5.97949V10.0628C3.646 12.2503 4.57933 13.1253 6.89808 13.1253H12.7897C15.1085 13.1253 16.0418 12.2503 16.0418 10.0628Z" fill="white"/>
</svg>
