<svg width="35" height="35" viewBox="0 0 35 35" fill="none" xmlns="http://www.w3.org/2000/svg">
<path opacity="0.4" d="M13.125 10.4993V24.4848C13.125 29.166 16.0417 32.0827 20.7083 32.0827H24.4854C29.1521 32.0827 32.0688 29.166 32.0688 24.4993V10.4993C32.0833 5.83268 29.1667 2.91602 24.5 2.91602H20.7083C16.0417 2.91602 13.125 5.83268 13.125 10.4993Z" fill="white"/>
<path d="M8.12497 11.8418L3.23955 16.7272C2.81663 17.1501 2.81663 17.8501 3.23955 18.273L8.12497 23.1584C8.54788 23.5813 9.24788 23.5813 9.6708 23.1584C10.0937 22.7355 10.0937 22.0355 9.6708 21.6126L6.65205 18.5938H22.2416C22.8395 18.5938 23.3354 18.098 23.3354 17.5001C23.3354 16.9022 22.8395 16.4063 22.2416 16.4063H6.65205L9.6708 13.3876C9.88955 13.1689 9.99163 12.8918 9.99163 12.6147C9.99163 12.3376 9.88955 12.046 9.6708 11.8418C9.24788 11.4043 8.56247 11.4043 8.12497 11.8418Z" fill="white"/>
</svg>
