<svg width="35" height="35" viewBox="0 0 35 35" fill="none" xmlns="http://www.w3.org/2000/svg">
<path opacity="0.4" d="M32.0685 8.78053C32.0976 9.13053 32.0685 9.4951 31.981 9.85969L27.0664 29.5909C26.7164 31.0638 25.404 32.0846 23.8874 32.0846H4.72478C2.5227 32.0846 0.962303 29.9263 1.60398 27.8117L7.74354 8.08046C8.16646 6.70963 9.43522 5.77637 10.8644 5.77637H28.8019C30.2019 5.77637 31.3394 6.6076 31.8207 7.77427C31.9665 8.08052 32.0393 8.43053 32.0685 8.78053Z" fill="white"/>
<path d="M33.5281 28.6125C33.6739 30.4937 32.1866 32.0833 30.3053 32.0833H23.8887C25.4053 32.0833 26.7178 31.0625 27.0678 29.5896L31.9823 9.85835C32.0698 9.49376 32.0989 9.1292 32.0698 8.7792L32.0845 8.75L33.5281 28.6125Z" fill="white"/>
<path d="M14.1162 10.3999C14.0287 10.3999 13.9412 10.3853 13.8537 10.3707C13.2704 10.2249 12.9059 9.64156 13.0517 9.04364L14.5683 2.74363C14.7142 2.1603 15.2975 1.81032 15.8955 1.94157C16.4788 2.08741 16.8434 2.6707 16.6975 3.26861L15.1809 9.56863C15.0642 10.0645 14.6121 10.3999 14.1162 10.3999Z" fill="white"/>
<path d="M23.8869 10.4154C23.814 10.4154 23.7263 10.4154 23.6534 10.3862C23.0701 10.2549 22.6911 9.67158 22.8077 9.08825L24.1784 2.75912C24.3097 2.16121 24.893 1.79661 25.4763 1.91328C26.0597 2.04453 26.4388 2.62787 26.3222 3.21121L24.9513 9.54033C24.8492 10.0653 24.3973 10.4154 23.8869 10.4154Z" fill="white"/>
<path d="M22.8947 18.5938H11.228C10.6301 18.5938 10.1343 18.0979 10.1343 17.5C10.1343 16.9021 10.6301 16.4062 11.228 16.4062H22.8947C23.4926 16.4062 23.9884 16.9021 23.9884 17.5C23.9884 18.0979 23.4926 18.5938 22.8947 18.5938Z" fill="white"/>
<path d="M21.4362 24.4268H9.76953C9.17161 24.4268 8.67578 23.9309 8.67578 23.333C8.67578 22.7351 9.17161 22.2393 9.76953 22.2393H21.4362C22.0341 22.2393 22.5299 22.7351 22.5299 23.333C22.5299 23.9309 22.0341 24.4268 21.4362 24.4268Z" fill="white"/>
</svg>
