<svg width="35" height="35" viewBox="0 0 35 35" fill="none" xmlns="http://www.w3.org/2000/svg">
<path opacity="0.4" d="M27.6212 7.90671L20.0816 3.54629C18.6379 2.71504 16.3775 2.71504 14.9337 3.54629L7.32119 7.93587C4.30244 9.97754 4.12744 10.2838 4.12744 13.5359V21.4546C4.12744 24.7067 4.30244 25.0275 7.37952 27.0984L14.9191 31.4588C15.6483 31.8817 16.5816 32.0859 17.5004 32.0859C18.4191 32.0859 19.3525 31.8817 20.0671 31.4588L27.6796 27.0692C30.6983 25.0275 30.8733 24.7213 30.8733 21.4692V13.5359C30.8733 10.2838 30.6983 9.97754 27.6212 7.90671Z" fill="white"/>
<path d="M17.4998 22.2399C20.1174 22.2399 22.2394 20.1179 22.2394 17.5003C22.2394 14.8828 20.1174 12.7607 17.4998 12.7607C14.8823 12.7607 12.7603 14.8828 12.7603 17.5003C12.7603 20.1179 14.8823 22.2399 17.4998 22.2399Z" fill="white"/>
</svg>
